<mxfile host="Electron" modified="2023-11-23T14:19:45.249Z" agent="Mozilla/5.0 (Windows NT 10.0; Win64; x64) AppleWebKit/537.36 (KHTML, like Gecko) draw.io/21.1.2 Chrome/106.0.5249.199 Electron/21.4.3 Safari/537.36" etag="hLlwVBud4oYc5KXElGkJ" version="21.1.2" type="device" pages="5">
  <diagram id="2x4AiwME3_5MGV6KLdE0" name="Block_Diagram">
    <mxGraphModel dx="1434" dy="836" grid="1" gridSize="10" guides="1" tooltips="1" connect="1" arrows="1" fold="1" page="1" pageScale="1" pageWidth="2336" pageHeight="1654" math="0" shadow="0">
      <root>
        <mxCell id="0" />
        <mxCell id="1" parent="0" />
        <mxCell id="ZXXCgHuPtxaKytGJFdzq-1" value="" style="shape=image;verticalLabelPosition=bottom;labelBackgroundColor=default;verticalAlign=top;aspect=fixed;imageAspect=0;image=data:image/png,iVBORw0KGgoAAAANSUhEUgAABEQAAAMeCAYAAAAUN9E8AAAgAElEQVR4nOzdeXTU9b3/8dcs2RPWEMKasO8giCK4oejFXnG5P62grba3rXZHr9fa6m212lZvba9XbXvbattbsa3g1VtRaPEKihuIIMi+yRI2QwwESDLZZvn98WEyM8msySzJzPNxzpyZfNf3d8LM4fvKZ7F4PB6PAAAAAAAAMog11QUAAAAAAAAkG4EIAAAAAADIOAQiAAAAAAAg4xCIAAAAAACAjEMgAgAAAAAAMg6BCAAAAAAAyDgEIgAAAAAAIOPYU10AAADd2daVUsUW6eQxqbHWt7z3AKmonzRxtjR4Qurq87fhVam5QZp1U6or6ZyVz0j7N5jXd/w2dXVsXSmt/R/zeuZnpUlXdGzfVF4DAACZjEAEAIAOOFUpvfsX6dju4OtrPjGPQ1ukiXNSH0Ise9zUOnx6ausAAADoKghEAADoAP8wpPcAqf9wqfdA83NTg1R9yKx3NknbVpnlqQxFGs6k7twAAABdEYEIAAAx2rPWF4YMHCPNuzv4dqcqpVd+brrS7HpXGn+J1Ks0eXWmqytul3R7qqswXWRi6SYDAAC6FgZVBQAgRoe2+V5fdEvo7XqVSuMvNa+dTdLH6xNbFwAAAKJHCxEAADohUouP6ddIG5dJ9hwzoKnXontMy5FwLUwk6fl/k2qrA7c7VWkGSP30oFknmeP3GSCVjAjsmuM/AKlkXj8dYkDSU5XS+y9JNcd8x80tkkqGSRfcEPxan/6qeZ75WdN16KPXpKqDJgCy50gl5SY06lXqq/vYbt8AtCXl0vjZ0uiZ4d9Hf6EGVfUu7z1A+uwPpTUvSBWbfddSVCz1Kze/k2DXcmS7qd9/gNzcIqnPQKlscvvWIJEGVW17vf7vRzTeXiQd32/GopF8+4+eGdv7BQAAgiMQAQAgRvk9fa/XvBB5bJBgs4iUDDMDrlYdDL3fke2+m3nvDbB/Nxx/ziZzrKqD0skj4UOWYPasld593hzHX2OtqfPYbumim0PfiB8/IK1/JXB/Z5PZ7++/kD7zbfPsvR6vqoPSyeel/B7xnY3HO4isv9pq8/j0oKnHPxTZurJ9/ZK5/mO7zaP2ZPTjwJyqbH+9/u/HqAti29d//2O7perDqR+oFwCA7o5ABACAGI2/xIwJ4h0w9eQRqXSUaXkQreHTTNDgbDKtCILtu/9D85xb5Asi3v2Lr7XB5Ct9+3lbN3hvmL1BjXe8jf/5oWlpMHz62WV+jmz3hSFFxeZm3XvcDa9Ke983N+fvhgku9m8wNU2bZ/b1n4WnttqEOM5maeyF0uR/MGHE24ukXe+Z8370WvwCEe8MPyXl0vRrzXH935/aamnL/0mX3ObbZ9MK3/WfO8/3fu9ZK324zOyzbZU0dEJ0dXoDDXuONHK675rXvGD+7ex4K7p9x17kG3tmz1ppx2oTIm1bJWXnxfZvDgAABGIMEQAAYtSr1IQR9hzz87HdplvM0181wcPKZ0yLg3BGzzQ335JUuTf4NkfPtnAon+xb5m314B+GSOYmfd7d5phFxZKzMfrr2XC2ZURukWk54X/c6deYZblFvuAilItu9u3bq9TUk1tkfm6sNTf3l9zma5lxyW3S0LPXdvJY9PVGo6Rcuv4+X3jh//5IpiuK19aVvhY3n/l2YCuY0TPNMsl0xfF2XwlnzQu+1h2Trwy85lk3mffJ2Rx837cX+fa96GazvXff0TPNNZWUm5/DhSoAACAyWogAANAB06+RehT7/mLv5W2dsH+D6YJRUi6dMzd4q4JBY6Rd1cG7zfh3lxl+bvv1jprgdd38k9iu48h23/lHnh98bI1epWbdtlXtu6F4ece2aCuv0NeiJVgXD3u2eW7bBaizxs8OvrxfuXlfG+qCr6860P496FUavNtTKFX7zHNRcfAWHKNnBs5U5O/gFvM8cEzo7knTr5X+9pR5z7auZKYbAAA6ihYiAAB0kPcv9v+4UJo4x4QC3lYjkm/Mh789ZVoNtOUNOrzdZvx5u8v0HhAYpvQeYJ53vWfGydjwqume0lGVfi0lhobpClI8xPc6WOuXwuLw5ynqE3x5/2Hh9+uoSIOO+gcwQyb6fm/vPi+t+FXkFj7hnDzbiqRfeehtSke1X3aq0ldXn8Gh9x08wVfv8QMdqxEAANBCBACAThvcZlyJPWtNN5iju32tPIKN+TB4gmlFUFvdvtuMt7vMoPGBy6fM9Y334R0vZOMyc5xBY0zIEstYHP5hyt+eim6fpobI23QnvUpNd55tq8z7emiLeaz9HxNylYzwjeMRDe/ArNk5obfpESRAOuw3nfO2VeYR8Vwhut4AAIDICEQAAIgz/2lRN7xqAgvJDE7atgtF2RRz4+vfbcbbXcaeY27E2x47v4e0bbXp3uFtUVBbbbrf7HrP3MTP/ufob+Bj1ZkWKV3VrJtMK5aKLb5pgyXfzD3bVgUfkDac3gNDrxs9U1r9x87VLEm1n3b+GAAAZCoCEQAAYuA/68jMz0Yev2H6NVL1IdPioO00qpIJPLwtE7yzzXi7y5SUBw81/Fuk7FkrHdom1Rz1DfhZdVB6/TfSZ38Y27XFMk5GOpp0he/3ueFV83urOeb7ve3fIK1U9KFITZiBYo9sD79vNP+2AABA5xCIAAAQg/wevhvkcDe8/nr0C72uV6kJPqoO+rrNeLvLBBtnoi3/1ihHtptuHt6BXY9sj9x9Jr+n73U022cK/5Y8W1eaaXkba0MPKuvPnmMCLkeYgWKDzVbjHR9GkmpPRl8rAADoGAZVBQAgBoMn+KaSPbgluu4jZ852a7CHGFOiZIR5rjro6y6TW9S+e82GV820vn9YGPy8gyeYsTC8opki1n8g1V1rIm+fjlY+Y97X5/8t+PpJV5hZX6ToZsPxTotbFWbA06NBghX/f1tHd0Q+DwAA6BwCEQAAYjTyfPPcWCv9/RfhQ5E1L5juMpI0dFLwbWbd5GtVsG21WVYSZPaV0uEm5HA2SVv+L/ix/FutDJkY/jokcxPubZlwaKvpghPM24ukp79qgoNI3T26m/ye5n2trQ59/XVnWwUVRZhNR5LKJpvnxlrzvrV1qjJ0SxNv8FLzSfCZiSRT49NfNQFO29mJAABA9OgyAwBAjGbdJFXtMy06aqul/33EtAroM9g3vWzNMen4fl8rjaLi9i0+/JWUm5tkb3gycXb7bbzhRc0nZvDU5iZzzF6l5iZ7x9vSxxvMtgPHBB9/5Nhus63/uilzzQCfziYzg031Yd+sKke2m5Yj+zcE1pFOxl8i7Xo38Ppn3WTWea/fO+ht2ZTIx5t0hbRvvdmn7e9pw6vSjrd8g7a2Nf0a8ztqrDVjyzhOS2Nnmffc+zve9a7ZtqFWGnle568fAIBMRSACAEAHXH+ftOJXJsDwnwI3mN4DpCu/Fn7Wl9JRvv2LikOHDld+zbRKqa02IYV/UOFVVCxddEvgsv5nW5c01kovPGiWeQdRHT1TOlMtbXn9bCuVEFO+FhWb86ebXqXSRTf7pjMOdf0Dx/iCkkhm/3P435N3uuVgtVxwg2/g3lC/Y3uOqTlRMwkBAJAJCEQAAOigq75pWhBsW22mP/UfsyO3SOrRVxo8MXzLEK/p1/gCiUFjQm/Xq1T6zLdNlxn/FiiSCV4GjQ9+037JbWaQz2O7fa0Ttq70zWQy/RrTJWfb6sCZVew5Up8BZpyTaMOA7sh/OuNg1z/ivNhmfelVKt38E9PtpWKz73hFxaaVSVEfMwBuqFpKhoX+HfcfLk3+B8IQAAA6y+LxeDypLgIAgEx3qtJ0vXE2STc9xM0uAABAojGoKgAAXcCGV00YEmrsDwAAAMQXXWYAAEiRDa9KOXnS8QNmhhfJN0MJAAAAEotABACAFNm4LPDnoZNjG6cCAAAAHUeXGQAAUqSk3Dzbc6Th080grQAAAEgOBlUFAAAAAAAZhxYiAAAAAAAg4xCIAAAAAACAjMOgqgCAtHJ6j1S1Xmr4RKo/JjmOSY6zrxs+kVrqU10h0L1kFUh5A6SCgVL+ACl/oHmdN0AqOU/qOTrVFQIA0DGMIQIA6Paq1kmHlksVy6QTm1JdDZBZ+k6VyuZJQ6+WSmakuhoAAKJHIAIA6JY+WS3tf8kEIbUHUl0NAEkqGmaCkeE3SANmp7oaAADCIxABAHQrJ7ZIHz0q7Vuc6koAhDNigXTOfVLfyamuBACA4AhEAADdQv1RE4Rs/1WqKwEQiwnfNMFIwaBUVwIAQCACEQBAl/fhg9LGRySPM9WVAOgIi12adr907kOprgQAAB8CEQBAl1VXIb1xq1T5TqorARAPpRdLlz8nFZaluhIAAAhEAABd1LE3pDdvM11lYtV7nGQrkEbd3H660KzC+NcKpLOWOt/01d4prD9+XnLWSad2xX68gkHS7EXSoMvjXysAALEgEAEAdDm7fie9fXts+/SfZWa3KJsn9WEQRyApTm4x010fWiYdXxvbvpc8I439SmLqAgAgGgQiAIAuZf390qZHo99+zJelqfdLPYYnriYAkZ3ZL216RNr9++j3mXqfdN4jiasJAIBwCEQAAF1GLGFI+fUmCOl3XmJrAhCbT9ebYOTgy9FtTygCAEgVAhEAQJcQbTeZvudI5z8qDbkq8TUB6LjDK6QP7pNOfBR5W7rPAABSgUAEAJByR9+Qls+JvN3wG8xgjPb8xNcEoPOcDjM48oGXIm87b5U0kIFWAQBJZE11AQCAzFZXIa2+LfJ2U74jXfEiYQjQndjzpStfNJ/fSN68zXwfAACQLAQiAICUeuPWyFPrXvRracZjyakHQPzNeMx8jsOpP2q+DwAASBYCEQBAynz4oFT5TvhtLvq1NP5ryakHQOKM/1rkUKTyHfO9AABAMjCGCAAgJRzHpD+XSR5n6G2mfIeWIUC6WXevtPlnoddb7NLnKqT8gcmrCQCQmWghAgBIiU2PhA9Dht1AGAKkoxmPmQGSQ/E4zfcDAACJRgsRAEDSndwqvTg59Pq+50jXvccAqkC6cjqkpReGn5L3xi1Sn0nJqwkAkHloIQIASLpIf/09/1HCECCd2fPN5zwcWokAABKNQAQAkFTHVkv7FodeX369NOSq5NUDIDWGXGU+76HsW2y+LwAASBQCEQBAUh14Kfz6qfcnpw4AqRfp8x7p+wIAgM4gEAEAJNWh5aHXjfmy1O+85NUCILX6nWc+96GE+74AAKCzGFQVAJA0Veukly8IvX7BPqnH8MSdv7FaOrzC3GTVbJMclWYZkElyi6X8UqnXWGnI1VLZPLMsVc7slxaPCL3++velkhnJqwcAkDnsqS4AAJA5wv21t//MxIUhtQelPYukvc9JZz5OzDmA7qKx2jxObpP2vygVlUmjbjWPnqOTX0+P4VL/WdLxNcHXH1pOIAIASAy6zAAAkqZiWeh1Q+cl5pyndknLr5Q+fJAwBAimtkLa+GNp2Zzw0+Am0tCrQ68L970BAEBnEIgAAJLi9B7pxKbQ68sSEIhUviv99TyCECAa9UekVy6WDr6c/HOH+/yf2GS+PwAAiDcCEQBAUlStD72u11ipz+T4nu/wCundr0stdfE9LpDOWuqk9+9JfijSZ7LUe1zo9eG+PwAA6CgCEQBAUjR8EnqdvTC+53I1Su9924yRACA2Z/aZz0/zqeSe11YQel247w8AADqKQAQAkBT1x0KvG3lzfM+1+Wd0kwE6o/6ItOXx5J5zVJjvgXDfHwAAdBSBCAAgKRxhbmgKBsbvPI3V0ubH4nc8IFNt/llyp6XOGxB6XbjvDwAAOopABACQFI4wTd7zw9wIxergy4wbAsSDqzG5Y4mEC0bDfX8AANBRBCIAgKQI1+Q9noHI0VXxOxaQ6ZL5eQr3PUCXGQBAIhCIAACSItygiPlx7DJzZl/8jgVkutr9yTtXuO8BBlUFACSCPdUFAAAyQ0t96HVZcZxlpuF4/I6F8EbMl+Ysbr/c6TCD2m56RNq3xCybv0fqOSryMdfcKW17yrwuvVg690Gp7zlSbl+zrP6IVL1Rem+hVFcRn+tAaI7K5J0r3PdAuO8PAAA6ikAEAJBW6g6luoLMkdc/+HJ7vtRnsnTpH8zP3lAkFhMXSuc/ao7lr2CweUjSa9fFflzEhs8TACCdEYgAAIBOq3jFBBSFZdJ5P5ZGfd6EGVPvN4HIktG+bSculGY9Gbifv9KLA8OQvX+S3rzVvB4x3xwTAACgswhEAABA3NRVmPBiyGdMNxdbXuzHuOCx4GGIZMKVjrQ4AQAAaItBVQEAQJfSZ7J5djoCwxAAAIB4IhABAABxU1gmXb3SNwjqqZ2x7V96sa91SP3R+NYGAADgjy4zAACg08qule7wBC6rej/2gU+Lp8avJgAAgHBoIQIAAOKu/oi0ckHs+zFtMgAASBYCEQAA0GkVr0hPW8wgqJKZGveqV2I/jv+AqQWD4lMbAABAMAQiAAAgbt68VTq917zuM9lMsRurk1vMsz1fuvAX8asNAADAH4EIAACIq+2/9L0eeXPs++/6ve/1mC8FhiIj5kvXr5XmLu14fQAAABKBCAAAiLNtT5kxRCSp5AIzc0ys+3u73tjzpQnfMgO23uGR5iw2xwQAAOgsAhEAANAh/gOg1h0KXLf7v32vp9wTuK56k+9185ngx37zVmnNnab7jNPhW15/xIxX8l4HuuIAAAD4s3g8Hk/kzQAA6JynLaHXtZ2uNVHnARC7eH4+I0nW9wQAABItRAAAAAAAQAYiEAEAAAAAABmHQAQAAAAAAGQcAhEAAAAAAJBxCEQAAAAAAEDGIRABAAAAAAAZh0AEAAAAAABkHAIRAAAAAACQcQhEAAAAAABAxiEQAQAAAAAAGYdABAAAAAAAZBwCEQAAAAAAkHHsqS4AAAAk34j50pzF7Zc7HdKZj6VP3pbe+3bwfS97Tho4WyoYbH6uPyJVb5Reu679thMXShO+JfUcZX5etUDatyRwm9KLpQsek3qMknL7+o558OXgNcxdKhVPCzx/222vXyuVXBD6+iVpzZ3StqfCbwMAANIXgQgAABkor3/w5fZ8qc9k8xg8V1p+pVRX4VsfLGgoGGweExf6AoYR86XpP/IFIeHO+48rzHnbHnPCt6TCoYFBS6jzB9sWAAAgHLrMAACQ4SpekZ62mMeaO6XTe83ynqOkq1/3bTdivi+MOLlF+ku52Wfjj3z7eI28RcrpI+39k3R0VfjzOxuk7b/0HW/vn3zreo3zvZ640Hf+qvfNtq9cIjWeMMsGXSEVlpnXL8/0XZP/w1un0yEdXBr9ewQAANIPgQgAAGi17SlpyejAUGTEfPO69wTfdgeX+lqObHjA7OPf/eS9hdKiYunNWyVnffhzLio23V28x3vz1uDblV3re71ygXmufEc6/Hfz2p4vjf1y6PNMXOhrsXJ8bWDLFwAAkHkIRAAAQDv7/MYXGXmLeW6s9i0b888mYAilo2FD6cWmW4zXqZ2+14VDzXP9kcDjf7re97rvlNDHnvAt3+sPH+pYfQAAIH0QiAAAgHY2POB7XVRunrc9ZcIIyYzbMetJ6XOHpQt/0fnz3eExj2vf9nWL2f7LwDFBCgaZZ2dD7McfMd/XOuTkFtOyBAAAZDYCEQAAEJYtz/d66UUmUPDyDmj6ucO+8TviZcyXAsOWtgOvxmLSXb7Xu37f8eMAAID0QSACAADa8Q83mk74XtdVSC9OMdPnVr3vW14wOHAA1lh5Bz39S7lpGeJ0mABkwrdMN5rOKL3Y1+qk/ghT7QIAAINABAAAtOM/OOnpj9uv37fEzOTiP8tL2yl2O6KuwgywetxvHJEp95yt4+xAr/a89vt5NZ9pv+yCx3yvD77c+RoBAEB6IBABAKSVgsGpriA9jFjge73z6dDbVb4jNZ2M//mDzUzjOjt2SMHgwBYs/kHMoWWB+xSWSX0mnz2mw4QtiB6fJwBAOiMQAQCklfzSVFfQvU1cKM3f4wsZqt73DUA6d6l042Zp+sOB23sHO/W24OjI+doec9AVvp83/9w8f/K2b9kVZ2fBKb1YGnGzed14wrRc8XfhU76xR46ujL2+TMfnCQCQzuypLgAAgHgqKpc+3ZDqKrqXsmvNDC9tnd4rrVwQuKzPZPOY9oPA5U6HtMFv2WXPSaM+3/6Ys540j5NbzFgkkglfpv2g/TEl6egqXyDz3rel8utNq4WSC9rXvPHhwJ8Ly4IHK4ied4YhAADSES1EAABpxf8GGKE1HA++vPGECSu2/1JaMtqM6eH13kITUHin3vVuX/W+9Ler2rfOiMa2p6SNPwqcucbpMD+vuVNa3ub3ufQicz6nw7fMu23bwVKn3OPXOmQVU+12BJ8nAEA6s3g8niB/EwIAIL6etoReF6x1Qkc5KqXnh0muxvgdE8hEtlwznXJucfLOmazvCQAAJFqIAADSTH6pb1YSAB036c7khiEAACQbgQgAIO1M+S6zYwCdkV8qnfO9VFcBAEBiEYgAANJOVqF04S+lHiNTXQnQ/RQMlmY+IWX3SnUlAAAkFrPMAADSUvl1kjzSm7dKLXWprgboHqx2aeZ/SsNvTHUlAAAkHi1EAABpq/x6ad6bpvk/gPDyS83nhTAEAJApaCECAEhr/aabm7yP/2IeZ/aluiKgaykYIo26RRp5i9RncqqrAQAgeQhEAABpr9dYafrD0sSF0uEV0qHlUs02M0VvY3WqqwOSK7fYtAbpNVYacrVUNo/ZZAAAmYlABACQMXKLpVGfNw8AAABkNsYQAQAAAAAAGYdABAAAAAAAZBwCEQAAAAAAkHEIRAAAAAAAQMYhEAEAAAAAABmHQAQAAAAAAGQcAhEAAAAAAJBxCEQAAAAAAEDGIRABAAAAAAAZh0AEAAAAAABkHAIRAAAAAACQcQhEAAAAAABAxrGnugAAAFKtpU46tEw6tFw6uU1qrJbqj6S6KiB58kul3GKp11ip7Dqp/HopqzDVVQEAkFgEIgCAjFWzXfr4L9LHz0u1B1JdDZA6jkrzOLlN2v+iVDBYGvU5aeTnpD6TUl0dAACJQZcZAEBG2rdYWnqRtOkRwhCgrfoj0kc/lV65xAQkAACkIwIRAEBGcTulDT+QVt0sNZ9KdTVA19Z8Slr5WfOZAQAg3RCIAAAyysaHpY0/TnUVQPey8cfShgdSXQUAAPFFIAIAyBj7Fksbf5TqKoDuaeOP6D4DAEgvBCIAgIxQs13a9GiqqwC6t40/Mp8lAADSAYEIACAjfPwX6eSWVFcBdG8nt5jPEgAA6YBABACQ9lrqpC2Pp7oKID1sedx8pgAA6O4IRAAAae/AS5KrMdVVAOnB1Wg+UwAAdHcEIgCAtHd0ZaorANILnykAQDogEAEApL1Te1JdAZBe+EwBANIBgQgAIO01VqW6AiC98JkCAKQDAhEAQNqrPZjqCoD0wmcKAJAOCEQAAAAAAEDGIRABAAAAAAAZh0AEAAAAAABkHAIRAAAAAACQcQhEAAAAAABAxiEQAQAAAAAAGYdABAAAAAAAZBwCEQAAAAAAkHEIRAAAAAAAQMYhEAEAAAAAABmHQAQAAAAAAGQcAhEAAAAAAJBx7KkuAAAAJMaNm6U+k6XGE9Ki4vDbBON0SH8oMK8ve04a9fn22zSekM7slT5+Xtr2VHR1jZgvTbrLnNeeb85z5mNp0yPSviXRHQMAAKCzaCECAECasuWZ59y+kbeJJLtH8OW5faWSC6RZT0pXr4x8nBHzpUv/YPax55tl9nwTjkz/UeC2N26W7vBI8/dEV2Oo893hMY+JCzt+HAAAkH5oIQIAACRJT1ui227NnaY1SGGZNPbL0vhvmGBk0Bxp7lLptetC7zv1fl8Q4j1O6cXSlHukovLAbaMNa8LJ69/5YwAAgPREIAIAADqkrkLa8IC06/fSTTtM0DHoivD75PQxz/VHfF1sKt8xD68R86U5i30/9xxlWnhI0qoFplvNxIXSyJt93W4k6fRead9iU5PUvjvQrCfN4+QW6cUpvm5A/l2D2p7fez7v8qn3+45Zf0Ta/d++8wEAgO6FLjMAAKBT6iqk42vNa3t++K4pzgbzXDDYtCYpLIv9fCPmm2DDv9uNZIKTaT8w66Ph7QbkfwwpsFWJ93Xpxaarj3/AUjDYnA8AAHRPBCIAAECSb6yNjoy5UfGK73W/80Jvt8+v5UfZtaZlyfVrTeDQus0S033n9F7z8+m95uenLb7WGo0npO2/lP5SbpavudO3/8hbzPOLUwKXr7nTbPvilOivy2vcHb7gZNUC3zkbT8R+LAAA0DUQiAAAgLgKNQCrZLqXbPyR6aYimZCh5ALp2relC38R3fH3LTGz5rz3bdM6RQqc4SavpGN1h9N8yvd65C2mZcu2p0LP3gMAALo+xhABAACSoh9UNZhcv2Cg7lD4bb3jjky5Rxpxs28WnAnfMq1Bopm+d+JCM6Brj5Htu7zkhJlVp6M2/1wqv950kym71jxObmGqYAAAujNaiAAAgE7rP8v3uvLdyNvXVZgWHouKA7vbDJoTed/pD5sxRPwHVE20ugpp6UWmVm83mT6Tzbgi/t19AABA90EgAgAAOqWwTOo/07xuPBF7i4mjq2Lbvvw637m843l0pnWLFBhq9BwVfJu6CjOl8KJiae+fzDJ7vmnpAgAAuh8CEQAA0CGFZaa1xv/70NdSY9/z4ff5Ur2Z7tYbQBSWmelzvYKFIwWDzHalF5tnW55v3fH3zfNlz0Wu19v6xDsLjX/XnnMfNM/TH5bGfKn9vnOXmml8vXUfWuZb13wm8rkBAEDXwxgiAABkgDs8gT/v/ZP05q3ht5GCt7yY9aR5tHV0lekGE449Xxr1efNoq+r9wPFDqtaZ1hr2fOmWg2bZmjulI6+Z5bl9fctD2faUdP6j5hhl15prPL3XtGLZ/HMTftjzTVjivX7vgK9t9ZlsBn/153RIO58OXwMAAOiaaCECAECacjXEZxspdCuI+iMmyFhzp7T8isjH2fgjMxipf4wbZ4MAACAASURBVOhweq+ZQvflmYHbvnmrCVm82zaekKo3mdDFfywPp8PU4G1d0vaa3vqSqdPr1E7zXFdh1nmn9/Ue54XxvnM2HDfP7y006/zPeXKL2b/yncjXDQAAuh6Lx+MJ8vcgAADiK9wYD8FaJiTr3AA6JhGf21R+TwAAMg8tRAAAAAAAQMYhEAEAAAAAABmHQAQAAAAAAGQcAhEAAAAAAJBxCEQAAAAAAEDGIRABAAAAAAAZh0AEAAAAAABkHAIRAAAAAACQcQhEAAAAAABAxiEQAQAAAAAAGYdABAAAAAAAZBwCEQBA2issS3UFQHrhMwUASAcEIgCApMgqCL2upS6x584rSezxgUyTiM9UuO+BcN8fAAB0FIEIACAp8gaEXuc4lthzF/HXbCCuEvGZCvc9EO77AwCAjiIQAQAkRcHA0OscnyT23IPnJvb4QKYZclX8jxnueyDc9wcAAB1FIAIASIr8MH/hrU9wC5ERCySrPbHnADKFLVcaPj/+xw0XiIT7/gAAoKMIRAAASZEf5i+8DQluIZJVKE26O7HnADLFpDvNZyrewgWj4b4/AADoKAIRAEBShGvyvvf5xJ9/1OelvpMTfx4gnfWdLI38XGKO/XGY7wG6zAAAEoFABACQFOEGRXTVJ/78fSZJ474u2fMTfy4gHdnzzWeoz6TEHN8ZZpYZBlUFACQCgQgAIClKzgu9rmandHJL4msY/zVp8r8m/jxAOpr8r+YzlAgnt0indoVeH+77AwCAjiIQAQAkRc/RUt+poddXLEtOHZPvlqb9gJYiQLSyCsxnJpHj8IT7/Pedar4/AACINwIRAEDSlM0Lve7Q8uTUkN1Lmv6wdOnvzWsAoWX3ki79o/nM5CTw83IoTCAS7nsDAIDOIBABACTN0KtDrzu+RjqzP3m1jFgg3XJAOud7ZhpRAD62XGnKPeYzMvzGxJ7rzH7p+NrQ68N9bwAA0BkWj8fjSXURAIDM8fxwqfZA8HVjvixd+rvk1iNJLXXmL9SHlksnt0mN1VL9keTXAaRKfqmUWyz1GiuVXSeVX5+YqXWDeesr0u7fB19XNEy6OYlBKQAgsxCIAACS6r1vS9t/GXr9P30g9WMARSAjfLpe+uv5oddP+JZ04S+SVw8AILPQZQYAkFTDbwi/ftMjyakDQOpF+rxH+r4AAKAzCEQAAEk1YLYZvyOUgy9Lh1ckrx4AqXF4hfm8hzJigfm+AAAgUQhEAABJd8594dd/cJ/kdCSnFgDJ53SYz3k4kb4nAADoLAIRAEDS9Z0sTfhm6PUnPpJW35a8egAk15u3mc95KBO+ab4nAABIJAIRAEBKnHOfZLGHXr//JWndvcmrB0ByrLtXOvBS6PUWO61DAADJQSACAEiJgkHStPvDb7P5Z9KO3ySnHgCJt+M35nMdzrT7zfcDAACJxrS7AICUeuUSqfKd8Ntc9Gtp/NeSUw+AxNjxG+ndr4ffpvRi6dq3k1MPAAC0EAEApNTlz0X+a/C7X6f7DNCdrbs3chhSMMh8HwAAkCy0EAEApNyxN6RlcyJvN+wG6bJFkj0/8TUB6DynwwyQvD/MmCFeV6+SBl2e+JoAAPCihQgAIOUGXi5d8kzk7Q68JC29UDq8IvE1AeicwyvM5zWaMOSSZwhDAADJRwsRAECXsf5+adOj0W1bfr009X6p33mJrQlAbD5dL216RDr4cnTbT71POu+RxNYEAEAwBCIAgC4lllBEksZ82QQjPYYnriYAkZ3Zb4KQ3b+Pfh/CEABAKhGIAAC6nF2/k96+PbZ9+s+Uhs6TyuZJfSYnpi4AgU5ukSqWSYeWS8fXxLbvJc9IY7+SmLoAAIgGgQgAoEs6+oYZjLH+aOz79hor2QulkTdLBQOl/AFnHwOlrML41wqks5Y6yXFMcnwi1R+TGj6R9j4vueqlmp2xH69gkBkceSBjhgAAUoxABADQZdVVSG/cKlW+k+pKAMRD6cVmat3CslRXAgAAgQgAoBv48EFp4yOSx5nqSgB0hMUuTbtfOvehVFcCAIAPgQgAoFuoPyp99Ki0/VeprgRALCZ8UzrnPtNVBgCAroRABADQrZzYYoKRfYtTXQmAcEYsMEFIXwY5BgB0UQQiAIBu6ZPV0v6XzOwWtQdSXQ0ASSoaJg29Whp+gzRgdqqrAQAgPAIRAEC3V7XOBCMVy6QTm1JdDZBZ+k41010PvVoqmZHqagAAiB6BCAAgrZzeI1WtN1OD1h9rP11oS32qKwS6l6wCKW+A3xTWA83rvAFSyXlSz9GprhAAgI4hEAEAAAAAABnHmuoCAAAAAAAAko1ABAAAAAAAZBwCEQAAAAAAkHEIRAAAAAAAQMYhEAEAAAAAABmHQAQAAAAAAGQcAhEAAAAAAJBxCEQAAAAAAEDGIRABAAAAAAAZh0AEAAAAAABkHAIRAAAAAACQcQhEAAAAAABAxiEQAQAAAAAAGYdABAAAAAAAZBwCEQAAAAAAkHEIRAAAQMKs/Rdp6xOprgIAYmdZelqWpac1f4Mjqu3nb3C07oOOSeR7+Ozh5qh/l91dqGvl32h79lQXAAAA0tOGH/rCkKZT0vQfprYeAEBmumtro57c36TxRenfHiCTrjUeeJcAAEDcbfihtPEh388bHzLLAABItk+a3KkuIWky6VrjgRYiAAAgrtqGIV7eZbQUAQAg+ZZMz9eS6amuomuhhQgAAIibUGGIFy1FAABAV0ELEQAAEBeRwhAvWooAyCSP72vSv25rlCR5rusZ0zbzNzj0wtEWjS+yavvlRbpra6OWVrbooMN0iyjPt+q2IVl6aGxu63GWHG3RBzUuSVJxtkWX97NryfT8oOfdUevWf+5r0pqTTu2o9XW1KM62aGIPm743KkdzSwJvGaOp6fzeNj04Jjeu41h4BwL9j4m5mlBk07/vbdIHNS45XB7l2yya2MOq+YOydPeInNZ9/N9X7/X6H8d/2x21bn13R4O2nXG3XktxtkUX9LHpp+Pzgl6L/7HW1bi0rNIph8uj8nyrvj08O+D4d21t1Noap7adccvh8khSyLrb8u7r/b0G2y+aa/X+7qTg/xa9/x5WfuoMeA8m9rDpi0Oz9IUh2e32mfBGrXbUunXToCw9OCZXD+1u1BufOlXdbK5xfJFVV/bL0hOTckNeXyoRiAAAgE6LNgzxIhQBgNjMeLuu9YbY66DDrYd3N0mSTrdIT+5vClhf3ezRC0db5HDV69UZBQHrnj3crHu2NbbeuLbdb3W1uQH/rym5QW+EJemy9+q1utrZrqaDDrc+qHFp+QUFcR/cc2etWz/Y2dQaKkiSw+XRBzUufVDj0iGHJ+ab72cPN+sbmxsDjimZ92FZpVNvfFoX9n34fUVzQKDkDRMkEzJ8dn19wPpo6w61b2evN5hQ/x68/xZWVzu16ZQ75LkcLo+ufr8+4Nq917Cjtkmbz7j05oUFQfdNJbrMRKnlrafU+Ou5rY+WVY9Fv++KhwL27Qpar+Otp9qtc1esC7o8lTUBALquWMMQL7rPAEB0dtSagGF2sV0rZhbIc11P/cfEXOXbLJKk/zrQ3DqzyB+n5clzXU+tmFmg8nxzu7es0qnXqgKDix/ualJ1s2ld8cCYHHmu69m6302DsiSZm9zH9gaGLP41ra526vzettaaVsws0Oxi8zf3gw7T2iDeflfRLEm6c7iv5gfG5LS+F8+cXS9Jd48w23ivZ3yRtXUfb8uK16qcrWFIeb414L14YEyOyvOtcrg8+sbmxnbvof97MbvYru2XF7Xu5z3+d3c0tAYaXynLbt1m++VFunN4YN1tg49vbvHtO6/UHvA+n9/bJsmEYI/va4rqWkPZUevWNzY3tv57uHN4Tmudf5zmax3z5P4m3bW1MegxllWaViU3DcoK2Nf7b3B1tVPPHm4Oum8q0UKkg9zHtka9revo5gRWEl/ODX+Wc/0iWUvGpLoUAEA30NEwxIuWIgC6uheOtuiFo6dTXYbO720L+Av73SNydMjh0ZP7TbBRnG3R9suLWtfPLbFr+QUFmvBGrSTp78edrd1fHtzV2PqX/B+Nywm4YZ5bYtfcErscrnotq3QGbdngX9O6Swrb7Tvs9VoddLi15mTwAKGz2rbW8HYZeni3aTniDQii8cAuE4YUZ1vatWh5aGyu5g/K1qXv1qm62aN/39vUrguRZLqV+P9uvPXsqHVrWaV5D24alKVnzslr3WZ8kVVPTMpVzyxf3SuqWjS+yNT97OHm1tY3Nw3KCuj2ZN7nQvX7+xlVN3u05GhL1NcbzDe3NLS2jmn73n5hSLa+MCS7tWvMMxXNuqM8O2jLn6+UZQdc4xeGZOu8XvbWf4N/O+4M2comVWgh0kGeuiq5j++MuJ1ry1+l5vokVBQfnvoTqS4BANBNdDYM8aKlCABE9o1h7W8kh+ZbWl9fPyCr3Xr/m1b/6VhPt5ixPsrzrSFvpC8rjvy382A1SWptvVDV1L47Tmed39sW9KbaG0JI0iFHdOd9rco3LsfnBge/yR9fZNXnBpvzte0e5DWxhy3o8vWnnK3HfHBM8K4m/nX7e/GYGesj32YJOQbM5wZnqzjbojpn595n73swu9geMrB4fKIJOhwuj54+2L6lR77NEhCGeI0vsra+B4n499BZtBDpAEvvofLUHJJ7/7uy9h8Xdlv3sS1mn8ISeeqqklFeVHK//lqqS2inK9YEAAguXmGIFy1FAHRVs4vtuqY08m3Tq5XOkDfM8RDpL+vjQozVMb7I2q6VxxOTcmMad+K1KmfQlhGRago2PklnebtghOMf/oTj34LlM/1D/46n9vKdM1jrk5IcS9tdJPlaV0TLP8jZX2+uYWKP0Ncb6+8xmMf3+cZjCffvfG6JXcXZFlU3e7T5jKvd+vL84O+Bv6oofy/JRCDSAdYBk+SqOSRXxQeyz7w97Lbe7jLWgZPk2rMqGeUBAJBQ8Q5DvAhFAHRFJTmWqLojrKtpf5PYnbxW5dT2Wpd21rr1cb07YADX7bWuoIFId7erzneDftXa6Fr1n27pXMizo9atFVUtOuTwaJ/DpfdP+t5n/yDn4NlwJJoAKF4mFAVv6eJVkmMCka4YbHRU+v2rTgJb+Qy5diw3rUSO7wzZSsTbXcY6eKpkD5/ceeqq5Nq6VK6KD+SpOSTJtCqx9hsp27irZC2b0W6f5pcWyl21W7bxV8t+7gI5P1ws96H1rS1RrCVjZC2bIfv0z7Xb1zu4q2381cq6dKFcu19Xyxs/b13vrtrduk3W5ffINubKuNVq7T1Ezs3/K09dlSyFJbKNvET2mbe3q6ltrVmX3yNLr8FybXrBBE3N9VJ2gawlo2UbPSegxracG/4sd8U6uat2m3p7D5V1wCRlXbowoDb/8wIA2ktUGOJFKAIAybGj1q2HdjfqgxpXu5lBEJp/iBKtu7Y26vVPW8KOx9JW2xlvkiEdQ69IMu+K48BaNqO1C0y4bjPe7jLWAZPCjs3hrlinlrd/2a5LjaeuSq66KrkOrJH9vNuCBhuSJGejmpf9W2s40Xrcqt1yV+2Wp/pjZV31YAxXGFpna/VUf6yWHcsD9vM0N0R1bs/Jg2p599eBY7I018t9ZJPcRzbJU1sV9LwtKx6S68CawGPVHJKr5pDcn0Q/OC4AZLpEhyFehCIAkFg7at3tpkgtzraoJMei4QVWjci3tQ72mSk81/VMyHHbTk2cb7OoPN+ikhyrRhZYdePArKCtU/JtlqSHIqG6RqWzzLraOPJ2gQnXbcbbXcY29ko5P1wcdBtPXZWaV/60tbWDfcoNso29UpbCErkr1pmWDVW75Vy/SJKC3vB7u+J4W4p4921Z+ztz439gjWwV64K23PCyjblStjFXquWtp+TasVzWkjHKviFw+tt41Oqu2i1L76HKuuxuWfuPk2v367IOmhKyLn/Oj1405/ULXFxb/qqW9c9JzfVybn6p3Tlb3nqqNQyxDZsl29SbZO0/LuD9AQBElqwwxItQBEA62lHrDjpwZ7SDgMbLN7c0tIYhXynL1r+MyGlX1+MJmDK3qxmQ47vmRIQBd21tbA1DZhfb9b1ROVGfozzfoh21nrCtd5493KwvbmzQ+CKr7h2V0+kZXCJ1jfIOilqSkz5zs6TPlSSZbeSlkkxLg2CDpfp3l7EUloQ8jtOvxUP2Fd+VffrnWre3ls1Q9g1PtU6B69z8UsiBWe3n3KisSxcG7jvvJ756Dq7rwFUmplZvGCKZICbc+9OW97xetsn/pKzzbjU/NNfLtfv11nWeuiq5zrZGsQ2bpayrHmw9r7VshnIWPCNL76FRnxsAMlWywxAvZp8BkG5WVLUEXb7PkdzxR7w36fNK7XrmnLygIU13HxMlGv4Dqf7hUPuZUzrr9U/N77s836o3LywIGjaECp6GF5jfybYzoQORTafMuh217g6HIXePyFG+zQyI+mpl6EGBnz3c3DpI7pQQs+p0RwQiHeTtNiNJrl2vt1vv310mnNZWJMNmhWzBYb/o6+ZFc33Qcym7IGgrFUthSWtAoYaasHVEIx61WgpLIs7ME4p18NSg57VN/qfW155aXwjj2rq0fV1t6516U4dqAYBMkaowxItQBEB35z9QZbCQYUetW2982rXCh2cPN2tZmJvjdDG3xN4aBi2rdOrZw8FDkds/apBl6WlNeKNWr1XF733ZUevWL/YHP+eNA800yg6XR7d/1H6IgR21bv35iNl3dhRTJIfjnSZ5dXXo9+CxvSa4ybdZdEd551qidCUEIp1gHWjCjmDjUPh3lwnFtfv11hYX1mGzQp+n/7jW8MVT/XH79b0GR6w13Bgm0YhXrZb83h2uwdJjYMRt/K/TXb3P1FQyJmQrFNuYK6Xsgg7XBADpLNVhiBehCIDubG6JvXWmkGWVTt21tbF13V1bG3Xpu3VJr8k/BLj9o4bWwT5fqzL1fWNzY0oG9Uy0HbXudjf8944yMwg5XB59Y3Oj7traGPB+zN/g0O8qfPvE0q1m4tmWFAcdbl32Xn1rmLKj1q0HdzW2G8fF3xeGZLcGHb+raNb8DY7W/Z893KzPrq9XdbNH+TaLvjeq/SxIwa41lF9NzmttJdL2PXj2cLMmvFHb+vMtg7OCtijqrtLnSlLA223GfWRTQPeQaLvL+LNECDW8QUJng4146Da1NjskRa43mkAJADJNVwlDvAhFAHRnPxyb0zpI5pP7m2RZelqWpaf15P4mOVzSPSOT+xf3e0f5ukn8rsLc8FqWntZVa+v15H7TEuDO4b6b7M5ONZtq/+jXNeaLG01rD29XlS8MydYDYwJ/P/7vxwtHfd1e/ue82P6Q+uCY3NYwbHW1U1etrW9tafLw7iYddLg1r9TXSqVtCPWryb7uTC8cbWnd/4sbTYiVb7Po9rLsgJAm3LWGMr7Iqv+akhv0PfCeS5JuGpSlZ87Ji+k96OoIRDohVLeZaLvLBByrg91IUqE71Sop4pTHAIBAXS0M8SIUAdBdfWFItv73/HzNLra3BhH5NotmF9v1v+fn66Gxyf3/arB6JHPTf9OgLK2/tFBPTPLdzL99omt16YnVF4Zk687hOSrO9l2rf/elh8bm6n/Pz9e8Ul9rHsn8js7vbdOdw3N04MqimFtGjC+yavkFBbppUFbAuYuzze9+xcwCvTqjoHW8kPdPutrtv/3yIt05PHDQW/9/O09MCvy3E+laQ/nCkGytv7RQNw3KCngP/GtdMj0/puvvDphlppO8s834d5uJprtMW+7jO7tN0NCdapUkORsjbwMAkNR1wxAvZp8BkCyxTsO6ZHq+lkwPvX5uiT1sd4tg54t0zLtH5OjuEe27S/jbfnlRh+qRpANXtt83Uk3RbhPrftH8PsJt88Sk3Hbhgb9o3o+O1DS+yBoxSHh1RviWJ6bu6EOzUNca6fcSTa1thfr3Fes2qUILkU5q222mI91lJMlz6kj49Q4zKKqloG/Hi42T7lSrFLled4T1AJApunoY4kVLEQAAEA8EIp3k323Gvf+9mLrL+A/o6T6wJuR27op1rWOUWIpHdrbkDulOtXq1DnpbtTvkFMDuinWtg8UCQCbrLmGIF6EIAADoLAKROGi98T62JebuMrZBUyRJrgNrzM15EM4NfzYvsgti6oYTb92pVkmyDr+o9bVz3R+DbtNaLwBksO4WhngRigAAgM5gDJE4sPYbJdeeVXKdbTkRS3cZ+0VfNyFKc72aV/5U9ik3yDb2SlkKS+SuWCfnhj/LXbXbbDv+MzF1w+kMd9VuuSvWyVo2o8vXGoq1/zjZxl8t147lcu1ZJUmyTbxG1v7jTL1b/tpaLwBksuk/jG1Mjj/2lppPJa6eL9ZI2b0Sd3wAAACJQCQubJP/SS3rn2vtehHL7DKWwhJlX/FdNa/8qdRcL+f6RXKuX9T+HOOvln3m7XGrORRb+Qy5diyXJDX/7QFJUtbl98g25souV2s0si5dKDXUyHVgjQmtzgYjXrZhs1qDLAAAAABA5qDLTJx4u5NIsc0uI5lxSHLm/0a28VfL0nto63JLYYlsw2Yp+/89YW7sk8BaNkP2824LaN3hrtzZJWuNVtZVD5pr8q+391DZz7tNWVc92LrM2ntIKsoDAAAAAKSAxePxeFJdBJAIzrXPyFXxgSwFfZV9zb8H3cZTV6Wm526V5GsJAwAIjy4zAAAgHdBCBGnL0qdcnppDch/ZJNfu14Nu49q61LzILiAMAQAAAIAMQiCCtOUd90SSnB8skmvLX1vXuY/vVMtbT8n50Ytm25GzU1IjAAAAACA16DKDtOauWNc6CGwotmGzAsYSAQCER5cZAACQDphlBmnNWjZD2fN+Ite2V+X+dK88NYfMiuwCWUtGyzZ6Dl1lAAAAEBcuj0d76jzaXefSnnq3dte6tN/hUa3T79HiUZ0r1ZUCwRXapKIsi4rsvsfwfIvGFNk0usCqMYU2jS60yGaxpLrUuCAQQdqz9h8na/9xqS4DAAAAacbp9uitEy69dcKl1dUteucESQe6tzqXVOfy6BP5OpKsliS1BGx3cV+bZhdn6dK+Nl3a1ya7tXsGJHSZAQAAMQnVZaawTLpph2TPl1YtkPYtCb7/9Wulkgukilek165rv54uMwC6snqnR0uOObX4SLNWn3Cpxc3tFDJbltWi2X1tWjA4S/MHZqnA3n3CEQIRAAAQk1CByGXPSaM+L1W9L708M/T+pRdL174tOR3SHwrarycQAdAVLT9uQpAlx1rU4k51NUDXlGWVFgzK1vxBdl3dPyvV5UTELDMAACAu+k42z0eCz3TeqvIdqf6IaUkyYn7i6wKAzvjtwWaNX1Wree/X609HCEOAcFrc0nOHmzXvfYfGv1Gr3x5sTnVJYRGIAACAuLDlmefG6sjbOhvMc17/xNUDAB3lkfTEviYNe/2Mvra5QTvrSEGAWO2sdetrmxs07PVaPbGvSV2xawqBCAAAiKueoyJvk9Mn8XUAQEf88VCzhvxfrf5lW6MOOrriLRzQvRx0uPUv2xo15P9q9ezhlsg7JFG3mWXGU/epPKeOyHP6qNynDstz6qjUUCNPc4M8LQ5ZWhrlaWlIdZlATCxZefJk5cqSlS9Ldp6U11uWXoNk7TVElp6DZOk1WJbCfqkuEwCiUrXOhCFjviRVvht6UNXLnpNy+5rXB5cmrz4ACGfTaZe+v7NJfzveuRu2vtkWjS/yTk9qngfmKmAa06JuNOgkMkvAFNFOj441ykwjXefW7jq3dtS6dKK5Y0Hh0Qa3vrjRoReO2vXjcbma2tMW5+pj12UHVfU4TspzbItcR7fI88kWuWsOp7okICWsvYfIMmCybIMmyzJwsiz5/FkVQGqFGlTVO1iqZAZMPb7WzCTj1XOUNHiurwXJ6b3SktHtj8OgqgCS7f6djXp0T1OH9i20SbP7melHZxfbNb1X6m/ygETacMql1dVOM930py2q6+Bs0/eNztEj43LjW1yMulYg0tIg18er5dq7Wu6jH6W6GqBLsg46R7ZRs2UbOVvKykt1OQAyUKhARPLNNBOJ0yG99aXgrUgIRAAkS02zR7dtatCyythbhVxXateCwdlaMKjrz6QBJNLioy1afKRFSzvwOZpXateiqfnqnZ2aVlNdIhBxH98p17ZX5Nq7WvIwYBEQFYvVBCMTr5W1/7hUVwMgg4QLRCTpwl+YbjP2/ODrG09IGx+Wtj0VfD2BCIBk+PCUS7d+6IhpwNSyfKsWDsvWLUOyVZpDtxfAX2WTR3853KynDjSrwhH952p8kU2LpuXp3BS0rkppIOI+dVSuTYvl2vV/qSoBSAu2sf8g29QFsvYalOpSAGSASIGIJBWWSVPukXqNkwqHmmWndkonNksbHgi/L4EIgER74WiLbtvoUFOU92xjCq26c0SOvl6endjCgDTx64PNenJfk3ZHGTjmWKXnzs3XZwcmt8VVagKRpjo5Nz4v50cvJv3UQDqzn3Oj7NNulnIKU10KgDQWTSDSGQQiABLp3/c26b4djVFt2zvLoh+Py9E3huUkuCogPf3XgSZ9f2eTalqiix0eHZ+r741K3uct6YGIc+MSuTYtlqfZkczTAhnDkp0v29QFsk+bn+pSAKSpeAQiF/7CtBzZ/HOp8p3AdQQiABLl9o8c+l1FdOMc3FGWrZ+Mz1VxisY2ANJFdbNH39/ZqN8ebI5q+9vLs/X0lOSMlZi0QMS1c4WcG5+X50xlh49h7T1Ulr7DZOk5WJbeg820pNkFUna+LFl5DDCJ7qelwUwX3eyQp7lentNH5ak5Is/pI/KcOCB3zaEOH9rSo1T2aTfLNu6qOBYMAOEDkbbjh5zeK23/ZfvxQubvMbPNrLmz/ToCEQDx9kmjW5//sEFvVDsjbju8wKqnp+RpTj97EioDMseqT526Y3OD9tdH7kZzebFdfzo3TwNyrQmtKSmBiHPdf8u5cXHsO2YXyjZ8lqyDpsg6YJIsRf3jXxzQrf+5CAAAIABJREFUhXlqj8v9yVa5j26Wa/8aqbku5mPYpy2QfcY/J6A6AJkqVCAycaE068ng+1S8Ir12ne9nAhEAyTTnvfqowpAr+tn13Ln5DJgKJEhlk0e3fujQyk8jfx4vL7Zr1YUFCa0nobGnx9WillWPyb3v7Zj2sw2/UNYRl8o28tIEVQZ0D5ai/rIV9Zdt9BXKuuxf5fr4Lbn3vSXX/veiPoZz42J5Th+Tfc69stiYFg5A4pRdG37d9Wull2cmrx4AkKQ7NkfXMuSr5dn6TZKa6QOZqjTHotdnFeirHzXo6YrwXWjeqHbq9o8ceuacENPWxUHCAhFPzSG1vPEzuav2RL2PbdRlsk+7WZY+ZYkqC+jWbCNNUGg/WSHnxufl2vtmVPu59r0tT22lsi7/jiy9hya4SgCZyjubTP0RadUtUt0hM9PMiJul3L5SyQWEIgCS69/3NumZKMYt+On4XN2bxIEcgUz323PyNKLAqu9GGOD4dxUtGlHQlLCBVhPSZcZd8YGaV/1Uaoqueb91yHTZz10g64BJ8S4FSGvuT7bK+eFiuQ9viG6HnEJlXX6vbOUzElsYgLQWqstMqG4whWXSde9KBYPNz1XvSzl96TIDILH+51iLbloffiKHPJuZ6vOGAbSiBVLhxWMtum1jgxpc4WOJJdPzddOg+H9O4z5CiWvry2r+2w+iCkOsJaOVNfcHyp73E8IQoAOsAyYpe95PlDX3B7KWjI68Q1OdWv7+gFxbX058cQAyTt3ZcaBzi9ssr5D+PMQEIZJpKdJzVHJrA5BZPjzl0q0fhg9Dcm0WvXdxIWEIkEI3DszSexcXKNcWftye2zY69OEpV9zPH9dAxLX1ZbW8++uotrWNnqPsG34h2/CL4lkCkJFswy8yn6fRc6LavuXdXxOKAIi742vM8+Arg69/eaYvFAGARKlp9ui2jQ1qCjORRZ7NojUXF2hqT1vyCgMQ1NSeNq25uEB5YUKRJrd064cO1TTHt4NL3AIR18F1UYUhlvzeyr7mUWXNuTdepwZwVtace5V9zaOy5PeJuG3Lu7+Wu+KDJFQFIFNseMCMH1JygTRifvBtCEUAJNptmxzaURv+L8mLpuURhgBdyNSeNi2aFn5Q4511bt22qSGu543LGCKemkNq+uu/ROwmYy0dbwZ17Dmws6cEEIbn9CdqeeMxuSt3hN8wp1A5//SfDLQKICahxhCJxYj5Ul7/9uOHSIwhAqDj7t/ZqEf3NIXdhgFUga7rsb1NEQdavW90jh4ZlxuX83U6EPG4WtTy8t0RZ5Oxjb5CWXO+05lTAYhRyxs/k2v3yrDbWEtGK+v6x5mSF0DU4hGIhEMgAqAjNp12adrq8H+gvaMsW789h6l1ga4smil5N84ujEsrr05Pu+tc9VjEMMQ+/fOyn3drZ08FIEZZl39HlqJSOTf8KeQ27qo9aln1mLL/4d+SWBmAdFRYJpVfF/32DcelfUsSVw+AzPL9neH/qnxFPzthCNAN/PacPO13uLXyU2fIbb6/s0nLL8jv9Lk6FYg41/23XPveDn8CwhAgpbyfv7ChyL635Vw3UPYZ/5yssgCkoatfj332mFDdZgAgFs8ebtHfjoe+eRpeYNVz53b+5glAciyalqcL36nXAUfw0ZH/drxFfzzUrC8Oze7UeTo8qKpr5wo5Ny4Ou41tzBWEIUAXYD/vVtlGXxF2G+fGxXLtXJGkigAAAOLDI+nfIrQOeXpKnkpzwk/rCaDrGJBr1TMRWnR9f1eTOjsgaodbiDg3Ph92vXcAVQBdQ9ac78hz5ljYgVadG5+XbdxVSawKQDrZt1jqOyW2fQ4uTUwtADLHk/uadLQh9By7Xy3P1px+nR4pAECSzeln1x1l2SHHEzna4NaT+5p014iOD5LcoUFVnRuXyLnuD6EPmt9H2dc/LkvPAR0uDED8eU4fU/PLd8vjqAm5jX3Gl2SfFmK+TAAQg6oC6FqGvV6rgyGa1ffOsmjPFUUqzo5f65CPTrv00idOra526kiDW5WNbjWGzmMQgt0iDc6zanCeVbOL7Zrbz6aL+qY2uOJ3Gx/x/N1WN3s0emWtalqCxxbl+RYduLJHh2uNPRBpqlPTn26Vp9kRcpPsax6VdfC0DhcFIHHcRzaq+dX7Qq63ZOcr5/PPSf+fvTsPk6q884b/PXVOLV29CdUCnW7WNCDKJiDahhZ90SHkIUDyJAMumImJeUKCxHmc1ytxEkXNYC7fOFGMQyYmmYkrZDGAToyDDCAoLoAsrWwti3TTDXQLvVXXcpb3j1N1qqq7qrqquqpOddX3c11eXX3Wu87NKfv86nf/bntJFltFRIMJAyJElCv+/ZQP3z3QE3P9M1Md+N7Y9Eyxu6HJj5cafdjcErtWCQ3MguESbqu24dYqCaKQvSFO7NvMG0jf/ttJL75/MPawuF9NK8L/GZNaLZGka4jI+16OGwwRJ8xjMIQoh1mqZ0CcMC/mes3n7ndIHBEREVEueOqEN+a6iSWWtARDumQNt+5xY9keNx+YM+z1czKW73Xjax/0oEseaHWI/rFvs2cgffu9sXZMLIkdunjqk9ifA/1JKiCiXmqCvP9PsQ82bAKs8+5PuTFElB3WeffDMmxCzPXy/j9BvdSUxRYRERERJee/zvlxuDP2eIYfDKCuQFCLR0Xdrm6sb/IP+FiUuI3NftTu7EZLBsersG/NkWrfxrufD3ep+K84s0zFk1RARPmwn1llrmbdAaLBor/7tb/7nYiIiMhMG5piPwCNdlqwIsUU+qCGbhX/54AH+9uVAR2HUlPfoeA7B3rQ0J3+oAj71lyp9O2KMTaMdsYOX6xvjF54tT8JB0TUc4ehHPnv2AcaOQviuDkpNYKIsk8cNweWkbNirleO/DfUc4ez2CIiIiKixHTLGtY3xX4AWjV2YMEQAPjJYQ82tzB7wEyvtsh4+GjqwyFiYd+aL5W+jXdfbzjrR3cKw6wSLvWq1G+Of6CZy5I+eTxqcz3UM3uhNtdD67kIrasV8McumEQ06FmLIDiHQCiugGXYBFjG1MIyfBJgETN2SmnmMvjO7Im5XqnfrLeBiIiIKIdsOOuHP86Xy7eNHFhAZEOTH388ywfmXPByow8Lh0tYWmVNy/HYt7kj2b69baQN930UvbiqXwU2nJVx16jk/p0kliHi74FyfHvM1eL4m2CpnJLUiaNSfJAP/gXe3y+Db+N9kPe+BPXsQWgXzzAYQvnP3wOt/SzUswch7/8TfBvvg/f3t0Le+xKgpJYC1h9L5RSI42+KuV45vp33HhEREeWc9Y2xH2gXj7BihH1gM5T8vMELJfM1PSkBiqb3R7qwb3NHsn07wi5g8YjYOR2pDJtJKCCiNGwHtNghWGnGrUmfuM85Tr4D78vfhvz2r6C5Lw74eET5QPO0Q37/9/C+cCeUY1szco6496+m6vc/ERERUY6QVQ3b22LXflhWPbBMgi0XZOy5xNoSuWTPJQVvXhj4LDDs29yTbN8uq46d/bW9TYGsJhftSmjITNzskHFfgDB0dFInjaDKkD/8A+QP/8Bvooli0NwX4d/2r9AuNUKc/nUINmfaji0MHQ1x3BegnHg76nrl+HaIkxak7XxElHv2rAb2PWx2K0L+c0ji2854CJi1OnNtIaLcs6NNgT/GQ0+JCCwb4NCKnW2cfjUXvdUm4+bLE674EBX7Njcl07fLqqy4+0OgK0pcy69q2NGmYF4S/076zRDR3J9Bbdof+wCfn5vwyaKR3/l3yO//nsEQov6oMuS9L0He+cu0Hzrefaw27Yfm/izt5ySi3DFrtR5YGGwYDCEqTDviZIfcePnA60xsa2UGQS5KR7+wb3NTsv0S7z6P9/kQTf8BkbMHY6+0lUCsST0gIu99CfKh+MVaiSiScmwr5D3Pp/WYYs1cwFYSc33czwEiyguDLSjCYAhR4dreGrt+yFzXwIvRt3nTP80rDVw6+oV9m5uS7Zd493m8z4do+s0lUZpiPwiJ465P6mQRxz35jp4ZQkRJkz94AYLr8xDHpn4P9iaOuz7m1NpK00FYam5M27mIKDcFAwy5NHwmGgZDiAqXomnYGS9DpGJgQyoA4KTb3Ifm7oVlcIoC3r2ooPatrrjbRHOwQ8G0bfp+B24qwdSyvg+PjT0qjnapePiod9AMI0lHv5jdtxRdsv0S7z7f2aZA0TSIQmKFlfvPEGmOHRCxVE1L6CR9jtl1AcqBP6e0LxHplAN/htZ1IW3Hi3c/x/scIKL8kuuZIgyGEBW2Y12xCya6bAJmXTbwDBGPyc/MwUCHyxb7gS5WMKS3ohjbVRdZMO9yCX+rdeLpqUXJN9IE6egXs/uWoku2X2ZdJsa9P+J9TvQWN4SqdV2AevFMzPWpTrWrNmyH2lyf0r5EpFOb66Ec3wbp6r9Py/Hi3c/qxTPQui5AKLk8LeciotyWq5kiDIYQ0dFolRQDriwdeDBksDnerWLCm50JbStsagcA1LkkfGe0DV/9nASnKGDlWBuOdylYeyL5KUuJzHJlqSVmttjRLgWTShOaUDd+hoh2qTH2jkNGQSgdntBJepOZHUKUFkr9prQdSygdDsuQUTHXx/s8IKL8k2uZIgyGEBEAHOuO/VXyxJLEHoAK3c42Gcv3ufGjjz3Gsm+NjpzKdNO1TrQuKIO2uBzdC8uw+4YSjHby+lLumFgSOwAa73Oit/gBkfammOsE19iETxJO/fQDaO6LKe1LRJG0rlaon36QtuPFu6/jfR4QUX7KlaAIgyFEFHS0M3aGyAQGRJKy9oQPjT36g2N4nZE3ry/GohFWY0iCUxRw3RARa6c4TGknUTTx7vd4nxO9xf3UUC/FHi4jlFcnfJKIY3KoDFFaKWm8p+Ld1/E+D4gof5kdFGEwhIjCnXDHrg0Q7xvjfDW+2AJtcXnEf8nY1x56cFxapU9lWjtUv44HOxQIm9oxZksntl4YHIVXqXDEu9/jfU70Fr+GyKU4GSJDUgyIXGhIaT8iik5L4z0V776O93lARPnNrJoiDIYQUW+dcuwHnc8xgWFAhtv1jJAeBXCKwFCrgFXjbFh7woeb3+k2uXVEkeLd7/E+J3qLn1fWE3toi1BelfBJwmlxjklEyUvnPRX3vua9S1TQsp0pwmAIEUUT70GnVEps5pV8crxbhbCpPeK/ZBSHzULzYbs+fOblJj8AfSaap6YUoXVBGTZd60xfo4nSIN79nraAiObriblOsBUnfJKIY7o/S2k/IoounfdUvPs63ucBERWGbAVFGAwholgYEEmvYCFat6JhZ5s+LOaegz34waEeHOzQh9O4bAIWjbDizetTe/4jyoTsBET87tgrbSlGCVlQlSi90nlPxbmv434eEFHByHRQhMEQIoqn08+ASLqsGmdDdZH+OHiwI3JWjrUnfJi2rQs37Oo2Cq/OuzxutQWirIobEInzOdFb3H/Vgt+DWIcSrEUJn4RooOzLX4RQUgG18UP4Xv1h3G1tX30SluGTANkLz7OLAACWysmwLVwDSHbIe1+E/P5z2Wj2oBPvvhb8npjriKiwZKqmCIMhRNSfrjiTRzAgkpg6l4TvjLbhq58LPQre/1Ho77zuhWX43ad+3HOwBzvbZHzm11BdpGeREOWKePd7vM+J3uIXVfXHSZEf5AER24LVsIyp7Xc79dRu+F7P37/OHHdvBiQ71HOH4Xvl3oh11rrvQ5ysBxT8W9ZAadhhRhMBAEJJhf6zdFj/2zrK9BeSPbSsosb43eIal/4G5os493XczwMiKjjpDoowGEJEFCk4g0y4ZXvc2BCo8RFrm+PdKia82dnneNFmoHErGn73qd8YLgPo0+yuHGvDyrG2iG13f5bEUybRIMG8p0IXCBIYQYQwQsnloV+KhmSrRVFpXa0QSiqgdZ5Pbf/WBkD26sGfthPGcuu8+yFOmAcA8Kybn5a2EhEVinQFRRgMISIKcSsanGL8bJdEtgGAnhhZHce7VXzqVvHwUW9EMAQAHj3qxbJqK8YX68NpGntU7GtXsPg9Dp+m/FOwAZHeWR+OFW8AALT2JnhfusuMJlEc3udvH9D+anO9MXwmnJBqLRwiIgIw8KAIgyFERJGKX+tIyzYAMG1bV9Lnf/CIBw8e4VDpZC2tsmL9rL7PFm0+Dce7Vdz/kadP8InMV7ABkWSIU5ZAmvRFCK6xAADN0wGt5aOIoIpYMxfWWx4AZC+8678N6y0P6EMzJDu09ibI7/8e6rnDUZeHD0UJDmHxb1kDy+hrYRl1DQRHWdRzmsX+97+C4BoLre0kvH/4rrHcyLYIq92R7uvSu4aINPtOiBPn60NqZC/Uxn1R22y0AzBqiASPaZwjEBRTjm2FxTVOf4+eDnj/4+uR7/+bf4TgKIs6zIiIqBClGhRhMISIiPLFcHv0jB2XTYDLJuJvtU5c+T9dOO1Wo25H5og7ywzpdTSsc1YYwRBAH15iGVML25d/FtowOKREssP2tWf0op7B4SjlVbDedF/U5VLdysgTBtZJtd+BOGGeMZQleE7rvPsz9E6TINkifwYY2RZhQYZ0X5fwGiLS7DshzbzdqC8CyQ7LmFoI5VV92xw25CeRGiJaZ4t+PkcZpNl3GsvFmrlGn2gXjvd7HCKiQpHs7DMMhhARUb76waEeCJvaMWZLJ969qNdecYoC/qnG3s+elG3MEIlDKB0G8Qq9roTW3gTfqz+E1nneKMhqqb4alsrJUJvrI/cLm8kkmE0ByQ4B6LNccJRBnLIEyqGNkccoqYB67rCeKTJ8Eqw33ac/8I+6JjPvtbzKyJDIlHRcl3DiVV/WX8he+Lc9Eco0GT4pofZ4nl0UUVw3vIaIpXIybIHlluoZQGBWGnHSAmMbef8fk3n7RER5L9FMEQZDiIioEJx2q3i50YfrhugTF1wWNjPK8zOcuGOkFW5FixgCFT70JlhEd9U4G56aEn3yg+A2x24uNeq+hDvYoRhDp0Y7LVg7xYEvDJXgsgnG+jXHvBHFeg/cVIKpZSJeOONHmRW4OTDl8l0f9kRslw+YIRKHOOmLRmaCfGizUdAzYqjMlV/qs5/auM+Y1lU+/LfQ8paPoy4XivoWNNW6WuF75V5oneehNOwwCoEKjjKINXMH+tZMkY7rEmSpnGxkaqgtH0Np2AGt87x+zbpaB97W5npo7U36ucIySoTLRgIAtLaTKRd4JSLKZ/1lijAYQkREhWK004Jvjdaz6t2Khl+f9hnryqz6z97FccOH3sQahpNqW3bNKcaiEVYjGAIAU8tE/O7qItS5QrkSRYE2LRguYdEIK5yiAKcopLU9uYIZInGEPwhb56yAdc6KPtskVZRTjl6cKOoQDsUb+XvPpdDrODO+RMvySGT2lGjFZBOdmnjAkrkuAUJFTez9e1+7FKln9kIsrwIkO6TZd0I9s88YnqM2H0rLOYiI8lGsTBEGQ4iIqBA8NaUoIqPDrWj40cepF1Vde8KHtSf0YMpopwUf/z8lcIoCjnerRsZG+FTLm651YtEIPeLy20AQZu0UB6qL9HyIR4968eARD+pcEv4y2wmXTcDjVzlQ+1ZkEV6XTUBjj4o5u7oxqsiSl0VhmSEyQJqP00/lK3n/H/WpeqEPmwnPBuJwGSKi+GatBqaE1Z2u/QWDIUREVJicooDHrnTgkSscAz7W+llOI6vkWx/29Flf55KMYMi7FxUjkDKjXASgT7kcnEVoZ5uMtz/TgxxTy6KHBm7b24PTbjUvgyEAM0Ti0rouGK/9u9bFrWeRdmKvgjtFlxkvtdaGmLslkg2SNvbSyN/D2phpEddA6vXB0vvapXqOzvNQ207AMnwSLMMnQSu+XF/O4TJERAmp/YX+s2R0ZHCEiIgon/3gUI8RiHjkCgfuq7HBKQr43ljbgKY0XjXOhuuG6IGNzS3+qEGK316tZ6a4FQ3L9oS+vA9mh4wvtkBbXN5nv95Dd4LyNRASxAyROMKnfZWmLIKlcjIAvdiqte77sH8zc1kCQkkFbF99EoA+7W+wUKjm6ehTxDXbNI9e9Cd8BhbbgtUJFzNNB7W53miHZcSV+uwvpcNg++qToVlnkiROWQKhdJjRzwAipvHlcBkiouTV/oLBECIiKlwPHvFg92f6TDMum4ClVdbUjzVR/yK4zadh8Xt9Ryo8PbXIKKz6u0/9SU3x61a0lNs1mDFDJA61uR5q44ewVF8NobwKtiVPZPX8luGT+tQEUT56NattiEY5vt0Ifkgzb4c083Z9heyNnHI3w9RPP4A4YR4g2WG95QFjudbVmnBQRDm+zaiTYp2zApizAuqp3fAFgk7y+89BvOrLRgFXgMNliIiIiIgofepckpGJMb5EjLrNpmudRjHUR472zTIZ7bTgrlF6sOV4t4p7DkYOp2nzaXDZ9Loj4fVGCh0zRAKC2QaQfRHLfa/+EEr9ZmPGEX0brzElrqHnYuhYYUNtkl4eXNbeBPXUbqOGhdbVakxNm1bB40cZAhKc2aZ3e5VDGyHvfdG4ZpqnA+qp3fBveyLimL33G9B1CbbTE5qSyr/1cSjHtvZph7z71wm3Q2nYofev0f/eyPcNQGv5KPSaw2WIiIiIiChBq8bZUDtUD3K0+TSjCOqnPaGMjIcm6l8qP3KFwwhqhKtzScbUt+F1QcL9dnpR3Noix7v1bJHxxRY8PTVU8HVplRW7byjBpmuTmCwkjwiapsXMjYlXjyLabCaJyGqNi0EoeF2jzfpC5pBm32lkwSj1m+Hf+YzJLeor1fsxmkzc90RERETpIGxqj7kuWl2EdJ+DzDXQPs5k364aZ4uYWSaa4OwuQORsMeHcimYsC9YiCZ81prcXzvixfJ875rVxKxqKX+tAnUvC32qdMWuFbG7xG8Nwjt1cagy9ydb9kErfpuPzgBkiRP2wVM8wXofXlSEiIiIiIgKAc97oeQZtPg3vXlRww67uiIKqp90q7vqwx8jccCv6dlf+T5dRzyN4zA5//+fvrwbIzjYZX9ztxrsXFbT5Qts29qh44Yw/oiZJT+BY4dvlK9YQIYpDKB0WKmjb1Wp6QVsiIiIiyg/Pz3DixgrRmP2jsUfFvnYlarFMyn0bmvzY0JRcNoW+T99oR/FrHRG/L9/nxvJ9fTaLu080O9tk1L7V1e9207b1v02+YIZIrolT04OyzzLmeuO1euodE1tCRERERPli9w0luGOk1QiGAPq0qItGWLFqnM1YtrTKCm1xObTF5RHLk9W9sAza4vKCrRNBFAszRHKM59lFZjeBwiiHNkI5tNHsZhARERFRnlhaZcV1Q/Qimwc7FCx6z43TbhWPXOHAsurIOhHD7dHrPSQrVt0IokLHgAgREREREVGWXFUamlZ1U7OM0269hsSDRzwRNSYO3FSCqWWhbZ+aUoSnphThYIeCadu6MNppwU+vcEQMu2nzaTjerWLZHj3I8vwMJ+4YGQqyLBqhZ5wEC20CevaIUxSM4py9zx88n9Hma534wlAJLpsAt6LhYEfofESDDYfMEBERERERZUmrLxQ4+OYoa8pDYTZf6+wz7MZlE3DdEBGbkxgaE8weKes1iUlRYHlRWHbJm9cXY9EIK1w2wdj3uiEi1k5xpPQeiMzGgAgREREREVGWrD3hQ2OPHhSpLrLgqSlFOPN3pXh6auSUrdO2deEHh3qM339wqAfCpvaIbI13LypYtscNYVM7xmzpxMEOBQCMzJLl+9wRU5NubvFD2NSeUAHOaGqHhob6BM+59YKc0rGIcgEDIkRERERERFk0Z1e3EbwA9MDIyrE2nPm7Uox2JvaINm1bF2rf6jJmKTntVnEqbNhKnSv91RF6Ak0eahWwapwNp90qbn6nmzPj0KDFgAgREREREVEWnXarmLatC8v2uPHuxcjAyJbrixM6xminBZuudeLM35UaM9EsGhEa93J1efof9V4OBF+CmS2tC8o4cw0NaiyqSkRE+U3pApp+CXS+B7TvAvytZreIKDdZK4Cy64CSmUD1vYB0mdktIsp7G5r82NDkR51Lwl9mO+GyCRhfnFggY9ec4oj6Idlwz8EeHO9S8K3RNkwtE+GyCVg0woo3ry/Gze90Z7UtROnADBEiIspf59cDhxYCJ38EtG5kMIQoHn8r0PYacPph4NCXgHPPmd0iooKxs03GZ34t4e2XVoWKqW5u8WPMlk4Im9qxucWfchuG2SMfDYdao0/Vu/aED9O2deGGXd1GLZR5l/N7dhqcGBAhIqL8dH49cHwF0L7D7JYQDT4du4GjdwMtvze7JURZJ0WPA6TNpmudOHBTCR65IjQzy6pxNlQ59BMf744+fW0w6LC0yorh9lAjO/z6EJw6l4QZ5WLUfYMmBab8XVoVGlrT5tMDMVPLLKhzSRjttODATSXGTDLhuheWGcVfw4M4biXxYE6q0tEvme5bSo2Z/cJQ3iAk1syFOPUrsLjGAZIdkL3Q2s9C3vcylIbQH/6OuzcDkh3qucPwvXJvxDGsdd+HOHkRAMC/ZQ2Uhh2w3/Y7COVV/Z7fv2sdlEMbIU5ZAnH8jRDKqyA4ygAAWnsTlIbtkN/v+62SpXIypNpvwzJ8EgBAObYV/q2Pp3wdiIhich8Bmv8dkC+Z3RKiwUvzAc3PAqXXAMVXmt0aoqypKbbgSFf0oES6TC0TMbVMxE8m2iOWuxUNPznsMX5fe8KHx650wCnqQ1O0xeU43q1iwpudeHCiAy6bgDtGWnHHyPK45zvYoWBqmYjxxRZoi/VtNzTps8+8/ZmMRSOscIoC3poTql/iVjRjSt4gpyhg5VgbVo6NnCp492cKMq0mwaFE/R0j031LyUtH36aKGSKDjFgzF9ab7tODClLgA1SyQ3CNhTT7G5EbB9YHgxXhhJLLQ78UDUmtHXNWwDJ8UsTxhfIqSDNvhzT7ztCy0mGwffVJ2JY8YQRDAECwsQATEWVI60bg0nazW0E0+HW8DbS+YnYriLKqwp7ZR6RVhzzYekE2hptJdYGnAAAgAElEQVQAepbGuxcVfHG325g1JuiuD3sitj3cqQcfvn+wJ2KmmsYeFY8e9Rq/n/OGsjYWveeO2DY8C2Xxe25sbvEbWR7B47xyVp9Otycs++PRo96IfRt7VGxu8Welfkg6+iXTfUupMbNfmCEyyEgzbjUCHcFMDUvlZEjTvwahdMSAju196S7jtThlCaxzVgAA1FO74Xt9dcS24pQl0LpaoRx9A/L7z+lBjyW/gFBSoa+vudHIErGMuR4W1ziojR9Cu3TGyEwhIsqYrn1mt4Aof3QfMrsFRFlVN1TErjY5Y8cPTlWbqGDh1USXP3jE02dZcFabWGJNm7u81/9OHzziiXr8bKgbGn84UELHcGW2byk16ejbVDEgMtjYSwFAD0Yc2ggAUJvr4Wuuz2ozlEMbjfMDgNZ5HsrRNyDNvD3qtuqpd6B1nteH2WSzoURUmC5tM7sFRPnj0v+Y3QKirKpzSXjsuLf/DSmr6lxpCIgMlfAY2Le5Jh19myrmDA02in4DCyUVsC1YDaF0mMkNChECwZpotM7zWWwJERU8ziZDlD68n6jALBguYXo/xUkpu6aXi1gw3Nr/hv1g3+aedPVtqpghMsgoDduNLAzLmFrYq2dAbTsBefdvoMbIEhHKq+BY8UbG22YZOdN4rZ7Zm/HzERERERFlwn01dizfG30YCWXffTX2/jdK4ljs29yRzr5NBTNEBhn5/ecg730RkAOpXpIdluGTYFvyBKx13zetXda67xsz1GhdrfDvfMa0thARERERDcQd1VYsqTTvW2sKWVJpxR3V6esL9m3uSHffpoIZIoOQ/P5zUA7/DdL0r8NSc6Mxy4s4eRHUS00RtT0AfSrc8IKpAGBbsBqWMbVpaY84ZUmoUKrshf/Nx9JyXCIiIiIis6yZZIdf1fBf51iE0ywLR1ixZlL6MwjYt+bLVN8mixkig5TWeR7+nc/A+x9fh3pqt7FcrJ6e1XaINXNhvS4QbJG98G97IubQHSIiIiKiwWJSqYjfTC9izQmTTC4T8ew0ByaVpv/6s2/Nlcm+TRYDInlAadxvynnFmrmw3nSfPg1wIBiiNOwwpS1EREREROk2wmHBzjnFWFbFIRbZtKTSit11xRjhyNzjKvvWHNno22TkRisoYY67N8M6735YKicDAITSYRDH32isz1ZwxFI5mcEQIiIiIsp7JZKAl2c5sX6WE4tGsOJAJi0YLuH5mU786ZoilEhCxs/Hvs2ebPdtotjrg41khzhhHsQJ8/qsUs8d7lM/JGPNmP41PRgSaJP1lgdgveWBiG38u9ZBObRRzyTptQ7QZ8lxrHgDkL3wPLsoG80mIiIiIkrJ0iorllZZsb9dwZ+bZWxvldHYo6LFo8Kjmt26wUcSgOoiC6qLLLixQsL8y0XMcZnzeMq+Ta9c6tv+5GarKCZ574sQx1wPofxzRkBCa2+CemZv35ldZC8g2aF1nu9zHLXtRKioas/FPuu11obQa1/faamiLSMiIiIiynfTy8VA7QnzC0JSerFvC4+gaZoWa6Vn3fyYOzpWvJHC6TR4/nMZ0HMphX2JKKqiy+D4h/UA0pN6lv77nsgEO3InFZMoL8yN+eciUVYJm9pjrtMWl2exJURktnR8HmS5hogAwTkku6ckynP6PcWHPyIiIiIiomRkvaiqpdiV7VMS5TXeU0RERERERMnL/iwzQ8dm/ZREeY33FBERERERUdKyHhARA9PFElF6WHhPERERERERJS37Q2ZGXQPBwYJHROkgOMohjrrG7GYQERERERENOtkfMmMRIU5dkvXTEuUjceoSwCKa3QwiIiIiIqJBJ/sBEQBizU0Qhk0049REeUMYNhFizU1mN4OIiIiIiGhQMiUgIpRXQrpqoRmnJsob0pTFEMorzW4GERERERHRoGRKQAQAxCv+DtLM28w6PdGgJs1YCnHCPLObQURERERENGiZFhABAGn2NyDW3GhmE4gGHfHzdZCu+YbZzSAiIiIiIhrUJNMbMPcHEC6rhrz/T4DsMbs5RLnLIkKa/jWI0/43C6kSERER5Yj97Qr+3Cxje6uMxh4VLR4VHtXsVuU+SQCqiyyoLrLgxgoJ8y8XMcdl7uMp+zI1udiXiTK9lYLNCema5RAqPg/57V9B6zxndpOIco7gHAKp9m4OkyEiIiLKERua/Hip0YfNLbLZTRmUZA045VZxyq1iV5uMnx4FFgyXcFu1DbdWSRAFIWttYV8OTC71ZbJMD4gEiWOvhzhqFuSP/gvKhxuguS+a3SQi0wmOcohTl0Ca/jVAtJndHCIiIqKC1yVruHt/D9Y3+c1uSt55/ZyM18/J+PNZK56fUYQSKbMP0uzLzMl2X6YqZwIiAADRBmnqVyBN/QrU5nqoZ/ZCba6H1nMRWlcr4O8xu4VEmWMtguAcAqG4ApZhE2AZUwvL8EkcHkNERESUI1o8Kha868b+dsXspuS1jc1+1O5UsaXWiRGOzJS9ZF9mRzb6ciByKyASxlI5GZbKyWY3g4iooMkH/wJp6lfMbgYREZHpGrpV3Ffv4QN0ltR3KPjOgR786+Qi1BSn90GafZldmezLgcqt1hARUU6R3/4V5IN/MbsZREREpvvJYQ82t3BoRTa92iLj4aPetB+XfZl9merLgWJAhIiI4pLf/S2UDzeY3QwiIiLTbGjy449n+QBthpcbfdiQxhof7EvzpLsv04EBESIiik/xw//B85D3rTe7JURERKb4eYMXimZ2KwqTounXP13Yl+ZJd1+mAwMiRETUP8UPZc8LDIoQUU568pPc+gM7l/xjvcfsJgx6Wy7I2HOJtSbMtOeSgjcvDHxKXPal+dLVl+nCgAgRESVEU/yQP3geCoMiRJRDnvzEy4f+OHh9Bm5nW+48vBWyt9LQD+zL3JCOvkwXBkSIiChxqgz/nuch73vZ7JYQEeFnxzz40cf6w/4lP3Pgo7nMKuDJT7x44GMPfKrZrRmctrUyoyAXpKMf2Je5IZf6gQERIiJKjiJz+AwRme5nxzx4+KgXHj7kJ+Sx4148fNQDxo2S1+blP7JckI5+YF/mhlzqBwZEiIgoaZoic/gMEZmGwZDUrDnmxeojHvh53ZJy0s0LlgvS0Q/sy9yQS/3AgAgREaVGlfXZZ/Zy+AwRZQ+DIQOz5pieKSIzUyRh/LeWG9LRD+zL3JBL/cCACBERpU4NDJ9hUISIsoDBkPT4l2NePHyUU48SETEgQkREA6KpMmQWWiWiDGMwJL1+etSD1Uc8DIoQUUGTzG4AEVFvnnXzzW4CJUtVIH/wPKBpkGbeZnZriCjPMBiSGT895oUgAKsnOmARzG4NEVH2MUOEiIjSQ1UCw2deMrslRJRHGAzJrEeP6sNnmChCRIWIAREiIkobLZApwqAIEaUDgyHZ8Uhg+IzGqAgRFRgGRIiIKL00VQ+K7HnR7JYQ0SDGYEh2PXJUn32GiKiQsIYIEVGSxJq5sN7ygPG7cmwr/Fsf73c7g+yF1n4WavMh+Hc+E/s8U5ZAHH8jLK5xgGQHAGjtTVDP7I27X07QVCh7XwAEQJp5u9mtIaJBJpVgyJC/dmSuQQXi4aNeCIKAhybazW4KEVFWMCBCRJQkcepXIn63fG5a9A2LhkRfLtkhuMZCdI2FZeRM+F79IbTO8xGbWOfdD3HCvD67CuVVEMuroF5qgnJoY0rtzxZN1TNFAAZF8tKYR4DRPwFUN3Dwi0D7TrNbRHmCmSHmWn3EA2gaHrrCYXZTiIgyjkNmiIiSZHGNAwBobScBAEJJBcSauXH3UU/thmfdfHjWzYd/1zpo7U36vuVVsH35ZxHbSrPvDAVDZC/8u9YZ+8p7X4TW1Zrmd5RBmhYYPvOC2S3Jb5cvBeq6gbma/t/1rUB5XfRtHaP19cFt67pjbxtPSSAQaHECJVen3vbert4dattcDZi8Kfa2Vzwfue3UN6NvV/M0MOtA5HuedQCoWhXaJrj++hj3V7Bddd2pvzfqF4MhueHho148wuEzRFQAGBAhIkqCNPtOffiK7IXv9QeN5eKkBQkfQzm0Ed6X7ooIioQHVMSrvmy89m97IiITRH7/OXifvz3ns0MiaBqUPS+ypkgm2YbrgYkgqwsY/VD0bSf8Vl8flGpAo+uA/lN1A10fJr9/LOFtAwDXIj2I05tjNDD8jl7LRvXdbtYBoGolUDw1tMzi1H+veSpsWVH08/duV/h1prRiMCR3aNCDIo8e9ZrdFCKijGJAhIgoCZbqGQAAte0EtM7zoSyRis8nfSylYbvxWhx/k/6zZi4ERxkAPQNFadgx0CbnBI2FVrPH26j/LK+Nvr5kuv7T3zaw85x6ENghADuLMzNcJvg+AGDMT/uur/4n/We89zH1zVAgxNsI7L9Bb/N7Y4CmX+rBHMoJDIbkHlXTh888ykwRIspjDIgQESVIKB0Gy/BJAADtwnEAgNp8SF/nKIM4ZUlSx5Pffy7s2CMAAJbKycYyrbNlQO3NPYHhMx9w+ExGXQoE2ixOvc5HuDGPhDIduvZH37+8Tg8khA+rue5M36ErweEq4UNuLl8aWuYYrQ8zCQ7lue6Mvj5Rag/QfVB/fdmNfddXLOn/fQwJDD3ztwH754QCN57TQMM9ejCHTMdgSO5SoWeK/JSZIqZbWmWFtrgc2uJyPD21KO62dS4Jb15fjNYFZcY+Z/6uFJuudWK009LneOH/dS8sw4GbSvo9R6F6foYz6nXrfX1p8GBRVSKiBEnTv268lvf/0fgpTl4EABDH35j6UBbJBgAQSi4fWCNzngY5OPvMrDv635yS1/kBMHSBHvioWKxncgRVLNZ/dh8E1Bi1MKb+re+wEHu1/t8VzwNHluvLJD2TyRhy075TH7oTXDZjb+TwE3s1cMXvAN/ZxDNKLr2lZ3jYq/VgyoUN+vLLl+rLAKD52VDgI1zld0KvP3tdD4JQzsmlYMhopwVrpzgwo1xEdVHooaaxR0WjR8OTn3ixoclvLO9eWAanKEQco82n4Xi32mfbAzeVYGqZiDafhorX+86G8/TUItzgElFTbDGOGTzv/R95sLNNTvfbTZiiAQ8f9UAQgH+ewNlnzDLcHvq3NqpIiLndqnE2PHalo8+/zeoii/HvevF77ojjhXOKAqaWiZhaJmL+MAm3vNON0+4cuEFzRJk1+vLg9Z1UKmLCm50pHz/4WXG8W+1znHjrKHU5ExDRvF1QT74D9dP3oX52Si8a6O8xu1lE5rEWQSipgGXoGAgjZ0Icez0ER7nZrSpolpEzAehDWYKzwmid56F1tep9FSi2miihdJjxWvPofyBrvgJI4Q8UWgUYFMmYz17X62sUT9UzNTyn9Z/B4SOtm0JFUXtTeoCLbwJnfq4HLsrrgKv+ogc3yq5NvA1iEXD6UT0gM3mTXgvE4tQDFYkGRBruASrvCux3dyggUnm3/tPbGFi2vu++RTWh150fJN5uyppcCoY8PbUId42y9nmIBIIPOsCjkxwRQY5o27psAlw2EetnOTHc3oO1J3wAgKLAti5b5D6jnRZsub4Y44v7fqscPO/fap14osGHB4+YN3RFDgyfATT88wTOPpOr6lxSRDDkhTN+LN+n/12xtMqKB2IEtDa3+LH4PX27VeNsWDnOjvHFFowv1v998uE7OmFTOwD9ur80swjVRfo1q3NJKQcxi6J8riSyjlKXEwER5cgbUD56Der5Y2Y3hSh3+HugXTwD5eIZ4JOdUA5tgnjVQkhXLTS7ZQXJUjkZQnkVAEBwjYVjxRt9N5LssNZ9H/6dzyR0THHSF43XWvtZAIB6/pgxw0xwGE3e0jSzW5C/mn8dKjg65qd6VkewDofqDgUponmnIvL39p2A/JkeEJGGJt6Gi2+GslMaVukBESCUWZKoroNA2XWRNVGCry9tj74PELs4KuWEXAqGrBpnw8qxepaeW9Hwu0/9+HmD1/hWfNU4G26ttvUJZgSFf1v7/Awn7hipf4X8/9bYjYBILL+dXmQEQw52KFh5UM8GCWarLBqhB2nuq7Hht5/6TP2mXtaAh494IUCI+WBN5nr8qujBEADY0OSPCOjFsvaED2tP+HDs5lIjKLK0yprQvoVqZ5uMfe2KkYHzOUfosyKY1XGwQ8G0bV3G8uBnhVvRUPxaB5ZWWbF+Vig7c3yxBdpi/YvQp0548YNx9qjrlu1xG33z9NQizB8mGZ8pbkXDwQ61T5ZZsE0vnPHjpFvFN0dZUV1kgVvRsPszBTe/E5lB+sgVDmMbQP+sWnPMmzf/Jkwd5KRe/BT+Xevg37GWwRCifmhtJyG/9TT8b62F1nbC7OYUHPHKLyW0naVySuLHrAnVRVA+/qv+89BGQNbHaguusRE1RfKJNOsOSNcsN7sZ+at9Z6goabD+xtDATEhdB+PvW16n1/4IryFSNF5fl2qQYSDDVS5u0X8Ga6LUPB0a0tP869j7qcwyzVW5FAwBgAcn6hkPbkXDXR/24J6DPRGBh7UnfKh9qyuhb8nDH0DDh91EU+eSMO9y/bvJxh4V07Z1GQ8tp90qFr/nxrsXFQB6NspPrzA/M8Ov6TVFHjvOmiK5aGpZ6EE4/N9iKtY3hh52b6uOMU6EAOj38heGhu7l8EBBMKujd3ZHcOhNtEyzVOy+oQQrx9oiss2cooDrhoj4W60Tda5QHkSwLQuGS/jJRLvxWeUUBcy7XK8/E/TIFY6IbQBgapmIRyeZ/3mULuYFRPw98L/xiP7Hv2reuEiiwUb56L/g++tPoHnazW5KQbF8Th9eoHW1wrNufp//tK5WAHoQI3woTDTilCWw3/Y7I+NEPXcYanO9sV5t3Ge8tt78o4hirdLsO2G/7XdJF3DNJdKsOzhUJhuC2RP2aj2IEAxmND4Ze5/yOr2GSNl1uZNhcerB0GwwFYuBy27QX3cfjD/0xnMq9Lr0msy1j5KSa8GQpVVWI/Nj92dKWr/xdCvxs+C+M9pmvN7eqkTd5slPQoGHa4eK6WnYAPlUDauPePDYMc4+k0vqXJLxcN3kGXgGZvgQrTEsFBpVsKDqW3OK4bIJaPNpmLMrRn2ufmxo8kPY1I7j3fqH4/FuFcKmdgib2nHvIU/MdRua/Fg1zobrhuifDwc7FIzZ0glhUzteOKN/njlFAY9f1TeA4bIJxvY37OpGm0//d1Mb9lmzuFIPpLT5tIjj9vTz+TaYmPav2//ef0K7eMas0xMNalpXK+T3f292MwqGWDMXQok+jEA9eyDqNuHLpdn/0Ge9ZUwtHCvegGPFG7DOWWEEQ7T2Jvi3rInY1vf66tB0viUVsM5ZYewrzbzd2HcwkmbdDumaOwCB42Az7tSPQ6+rVuo//W2hOhzRVH4nlH1x+lF9itodAtBzPHPtTET7bv1n8dRQHZRLb8Xf59xLodfB7Jh4wjNKgrPmhAsOFxrodMUFLNeCIQCwcHjom+/NLQMLhox2WrD7hhLj94Md8d9oTUnoz/APLkX/cjBXU9J9qp4p8jNmiuSMq8sz91jH2hWJcdkE7J1bEpGNkQ2LRoQ+x1Ye9BgZbsv3udHYo78OZg/1Nm1bF067Vexsk7G/PZSRFuQOxGqLROCfauzGccOH/wx2pgREgjVDiCh1ysevQ/n4dbObURAso0OFJINDW3oLX24UV+25GHVbzdMBre0klPrN8L50l1GgNZz3D9+FUr8ZWntT5L7tTVDqN6c+m42J9GDIcgD8wyorPKdD09YGxZqiNii8vkf3R/rPqlWA3eQgXPOzfZc1/jz+Phc2hAI5Vhcw60Ao0OEYrWfNXN8a2j48wDLppdAUwcEhRMGMmY63U3sPBc6jAu0ycioYAsSeMeLYzaV9ptU8cFNJ1G2D4/lP3VJqfEvrVvTZYeKJVZNksPCqQLsf8OTRN8WD2TlvevshfPrYYOYARQpmaYzZ0mlkY7hs0bMxMmlUWF/1Lua6L0qQI5buKPfyk5944VY0OEUBK8fa0L2wDLtvKMmr6YWzXlRV83ZB3v1bDpMhGihNhfzef8Dy+ToI9uh/pFF6+Lc+Dv/Wx+NuozbXw7NufsQypWEHlIYdqZ83weKsg4E06/bAMJnB/QAw6ASnrQ06/XD87c/8PFT89Mr1iDp7ixkubAD8z4QFJd5NrC7J0W/pwQ17tX4dpsfJKmm4ByidpQ8XsldHf//eRr1ALCXNYQFWX+GAIAiDdqhFIt+SN/aoONql4lv7e/otgDrYU85/ON6Bhyba4GD2QE7Y0OTH+ln66yrHwPvkW6NCQ7oaunIskpljTrtVLN/nxo0VpagussTMxhiMNjT5cdaj4fGrHJhaZjHqkuyaU4yR/50fsw9lvbfUT95i7QOiNNE87VA/6SdtnMhk0szbIc1aDgj58wdCzvGdi/668eeh+hs9xyNrbng+7btP+059qEywICugZ5mce0F/rYYV6ZM7Qq+7Pux77vDjh+8bvl80waErvYuihmdmnH85cl1wGEvvfdp3AvvnAG2bI9+T6tbfV8MPIrf/sBZo+mXfIUI9x/Vr8O7IgRWILXB2C/DQRBt+ND53ZijZeiH0BV142vmENzuNb3/7Ez6ef+R/d+Lmd7oTmg3mVNg240ui1wdZNS70UJpL39IzGJKbDnaEsgGenlo0oGMtCyuk+uvT8WdLov4NtUbeK8Ps6fubKPyzoXfmxoxysc82ydrZJqP2rS5c+T9dRqHn6iJLxOfTYJb1DJHwYoFENHBq476EZ0AhyjZpZmCYDGuGZNaFDcCOKLVBPKeBncV9lwN6RkTDPX2Xn3owNF1uuCPL+/7ee1msdgCx29HbnmnRl9cvjr1P76mCw3lOx9+3t2jXhNLGbhECmSLAmmPm159Ye8KHx67UpyqtHSqiziX1STnPlAPtKhYFZlefPyz6n+TfCiu8uudS9MKr2cZgSO767WkfnpqiB0LuGqUHNO45qAeKl1ZZce/n7Tjv1WcwimXVOBtWjrMbs5W8e1HJ2j0xmD0/wxk2LW0o2Nnm0zC+WB9K88gVDjx4xINN1zqN4XWxVDkEjHZaMKrIgk971Igga+91ey4pxvHWz3Ji2R43TrvViDa9/VlqfXjs5lIc7lSw6pBem6ShSzXOle5hWmbJfkCkvTnbpyTKa1pHi9lNIIrKGCbDYAgRhbEFh89AwL/kwPCZV87KuGOkFU5RwN9qnfjdp378vMGL0241o8URHzziwTdHWVFdZMH4Yr0g6/0febCzTUadS8JDE+2YWqY/eDT2qMaDrZkYDMkNi0ZYoS0uN353KxqKX+vA2hM+XHOZZPx7XjnWhpVjI7/F39zSN3up9/GCjnerWLZnYNP35rNo16x3/aCXG324bogepPrJRDt+MtFubBetrsd7nykYX6wPTTl1SykA4AeHerD2hC/munsO9mD+MAnjiy24bohorAtq7FGx6lDqn7WLRlgjMuiCx8zVos/Jyn4NkV4FAoloYNRLjf1vRJRl0szbAsEQDpMhor6sAvDQRDsADf9icqbI8n1ulFmdWDQi9kNkpvzTRx787uoiY1z+W3P6ZlI19qgpT+WZTgyGmCvRb+OX73Pjg0s2fGu0DTWBh2dA/3e0r10xHoxjHa/Np6HJo+KtNiUngnC5piNGDCD8+oZnc6w94UOFzYLvjbUZU/O+/ZmMlxr9WD/L2Wd67uX73Kh0FKN2qAinqG//Ybva77oJb3Zi07VOzCgXjayQ4Ll6tylYv6j3MJrgewtv008Oe/DABLvxb6nNp+VdoEzQNC3m3dW7QGA4x4o3UjphvGMSUWpSvR+jycR9n842UO6TZt4WGCZjYjBkB/9gJ0qruZlJjZY14OGjHvz0qPnDZ+pcEh6/yoFqh2A8UAD6t+SfulU8e9oX8Y1o98IyOEUBWy/IuPmd+AGLAzeVYGqZiDafhorXI+vojHZasHaKI+JBJnje9z5T8OMjnoRqkmRSLgVD4tV1ifaNfabPSdk10D5mX+aOdNyv6fg8yHqGCBER5S9mhhBRMiQBeGiCHdCAn5qcKRIsHJio4tf6KRAcZtq22Mc97Y5f08FsuRQMISJKNwZEiCjnZCsThfqXTLaONONWPRhiiV8ojIgonBRWaPXRHMgUoRAGQ4go3/ErPCIiGjBp5q2QZi9nMISIUiIKeqHVByc6zG4KBTAYQkSFgAERIiIaEGlmIDNEYDCEiFJnAfDQRBseDMzCQOZhMISICgUDIkRElDJpxrLAMBmOwCSigbMI+vCZhxgUMQ2DIURUSPgXLBERpUSacSukaxgMIaL0EoBATREBDx/xINH5bS5+qQyXWfkQ39uQv3bgkj+xq8hgCBEVGmaIEBFR0qQZt0JkZggRZdBDE+14aKIdfDTPDgZDiKgQ8S9ZIiJKihgcJiPyfyFElFkPBWafefioF2qiqSKUNAZDiKhQ8a9ZIiJKmDRjGaRrljMzhIiy5sGJDggQ8PBRDxQGRdKOwRAiKmQcMkNERAmRZizjMBkiMsVPJtqx+goH+MyeXgyGJEbi5ckJ6egH9mVuyKV+YECEiIj6JV69FNKsOyCIVrObQkQF6scT7Fg90Z5Tf0gPZgyGJK6mmI9MuSAd/cC+zA251A/8ms9kti//DJbqq6F1tcL7/O1ZPbelcjJsC9cAkh3y3hchv/9cVs9PRIODNPUrkK67y+xmEBHhxxMDs88c9cLPoiIpYzAkORV2C9Clmt2MgldhH/hDNPsyN6SjL9MlbwMiYs1cWG+6D5D0eew1Twf8f3sYanN9n22F0mGwfe0ZCI4yfYHshe+1B6Jum25C6TD9Z0lFxs/V59wVNcb1sbjGZf38sVjn3Q9xwjwAgG/jfVnpByKKTpr6FUhf+K7ZzSAiMvzzBDsEAVh92IMEZ5OlMAyGJK9uqIhdbbLZzSh4dUPFgR/Dxb7MBenoy3TJndBMuhUNMR72AUBwlOmzIkRhvfH/hoIhACDZ9WBBFmid5/WfXa0Ryx13b4ZjxRuwLViduXO3NgCyFwCgtlEQzk0AACAASURBVJ3I2HmSJdicoddZ6odkZaN/iHIBgyFElIseGK/XFLHl71+yGcFgSGrqXHn7HfKgUudKQ0BkKPsyF6SjL9OlIP5FaF2tEEoqYBlxZdT1QsXn9e08HZGBkSzwvfrD6CvCgjmZojbXw/PsooyfJy9loX+IiIgotgcCmSIPH/HCy+Ez/WIwJHULhkuYXi5if7tidlMK1vRyEQuGD7yOGfvSfOnqy3QpiICIevaAPgRDskOafWdErQxp9p1GEERr/QRC9dVRj2GpnAyp9tsQyqtC23e1Qj31Dvw7nzG2E2vmwnrLA4DshXf9t2G95QF9OIpkh9bVCnn3r6E07DC2t//9ryC4xho1RMKHiwCAZUwtHCveAGSvEbwQSofBOud7ECrGG0NtNE8HtJaP4N/1b0bWCaBnMkCyw79rHcTxN8IyfBI0Twe8//H1UFuBiBoixj5b1kAcfxOEEVdBcJRB83RAbdge8X6D11CcOD/qsB+t7SS8f9C/YbYvfxFCSQXUU7vhez35zIpk2hW8jlrbSfh3/hLWupUQXGONNsn7Xo7oh+CxlWNb4d/6eN/+CbyPRPqHiIiIsuNH4+0osgD/WO/BZVY+6Edzya/h3s/b8diV/DJnIO6rsWP5XrfZzShY99Wk798v+9Jc6ezLdCiMgMj5Y7CMugaCowzimOsjAiLimOsB6A/JkD1R9+9djyRIKKmAOHkRhMtGhjI9ioboPyV7ZF2SwPbWm+6D1t0Wqosh2Yx1iRBKh8G25Bd9thccZRDG1MJWMT6yOGugzdKs2422GG0KthW9aogE96lbGdl+RxnEyYugeTuNayhOWQJpZmLFYINtFoaMSmj7PpJolzHspthlFI41tneNhVS3Euq5w6HgUWB9+HAdfbkt8icRERHllHs/n1t/XOeaez9vxy8mO8xuxqB3R7UVfz5rxcZmv9lNKThLKq24ozp9GQXsS/Okuy/ToWBGXqqffgBAfxg2CpmWDjOyBpRT78TcV5r9DeOB2b9rHTzr5sO38T6j7oel+mpYKif32U8IzN7iWTcf6qndgYPZIV75pZjn8m99HJ5180PtPrUbnnXzjewD65zvGYGF4DrvC8uhnjusn7OkAta67/dti6MM6rnDRtsTITjKjHP4d60zlgeDSAAgTfoiAEBrb4L3heXwvrAcmqdDb1/jh0Z2CABjeXgGSyoSaVf4tkCo34zr5CiDNP3rSZ+7v/4hIiKi7GNQJDYGQ9JnzSQ7/tfwgvg+OWcsHGHFmknpv7/Zl9m3cIQVj12Ze59HBRMQUT7+q/Famv0PET8he2NOOSuUDoNQXgUAUM8dhnJoo/66uR7K0TeM7aIFOdTGfcZx/bv+LXTM3lkISRAqxgPQgwvBYSda53n4t6wxtrFUTumzn+bpgO+Ve422J0JrbzLOoRzaGCr8Gp4tEXitXfwUWud5/b+Wj/S2BgJPQd7/+LoekIlVNyVBCbUrjHzgT0a/ybt/YyyPdp2IiIiIiKKZVCriN9OLML08dwpC5rPJZSKenebApNL0X2/2ZXYF+/KKktwLP+ReizJEba4PZXR8bpr+c9Q1+ro4M6xYwrMOei5FrAsPovQX5BhoVoRxnuBQGW9nn+Nr7U36L9ECA722T4nijd2u0hF68Kh0GIQRV+ltCmSEZFycdgGA1hNqR0QwiMNgiIiIiCgJIxwW7JxTjGVVuZX2n2+WVFqxu64YIxyZe1xlX2ZHNvpyIAoqTyhYXDU4rCQ4nEI5+BeTWzZ4qWf2QiyvguAaC/sdz0esU45vN6lVRERERESZUSIJeHmWE0sq/Xip0YfNLbLZTcobC4ZLuK3ahlurJIhC5gslsy8zJ9t9maqCCojI7/+nMUOIOFmv+aB5OiJmG+lNa20I/SJFjnmSZt8Z2q7rQhpbGpsxNbDYq8Br2NCerGVmALCMnKmfMzC1MaAPaZEPbTaGqZhNKAoVYA2v9RL1OhVdFvm7vTRTzSIiIiKiQWxplRVLq6zY367gz80ytrfKaOxR0eJR4VHNbl3ukwSgusiC6iILbqyQMP9yEXNc5jyesi8HJpf6MlmDo5VponWeh9Z20iikCuhT7cajNtcbQQjLiCshTlkC5dBGWConQ5wYKK4peyHv/2NG2hyckUWsmQulYQe09iZ9RpmSCljn3Q//1sf1aXgD0+cC2c3MCAZhlKNvxKzDEmT/5h/1gqiNHw64jkgypGlfg/bZaajnDsNat9JYrl04Hnod7GPXOFgqJ0PrOg/bgkciZrOJpnf/AGHTC2f5fRIRERFR9k0vFwO1KFjcd7BjXxaeggqIAIDafAhiWEBE3vNCv/vIe16Edc4KQLLDOmeF/jqMcuSNtNUICQoGboTyKjhW6MVblYYd8G9ZA/uy3+iz1UyYZ2S8BIUXfs2GYGaINPP2iOl3tfYmKA3bI+usBKf97VVsNeMke0TACNDb7d/5TOj3lo8gjKnVp0te8kRoQ9nbZ7plIHb/AGHTC2f7fRIREREREVHCcrOySTr0XIz6Wt7/R/0hF/pDe3iRzYhhL2H7KIc2wr9lDbS2k8a+gP5Q7N+1LuLBOny/PsNoguf1ucOW+fRlvYZv+F5/UD9f8FiBgqla53l4138b6rnDEftoXa1Q6jcbM8n0OWe04SGx2hprn0BbjZ8AtO7oQ4WE8io9SBI+rCjBaXfDr0/EkKUk2hVOObY1VHBW9kI9dxi+jf8YsY3v9dX61MjBc3S1Qt77IpQTu6IeO1b/RLyPNAfJiIiIiIiIKH0ETdO0WCs96+bH3DH4rXiy4h2TBhdxyhIjW0ap32wEhsKXa20n4f3Dd7PeNtuC1bCMqQUA+Hety1rWjPHeZS98rz2Q8BTHA5Xq/RhNJu57oqzbkbvFu4gGpbkx/1wkyiphU3vMddri8iy2hIjMlo7Pg/zNEKGME6unG6/VS6EMifAiplqvqYrznTRFL9arnNiVtWAIERERERERJa/gaohQ+iiN+40sjGi1VSB7E6rRki8slZMhlFfpQ6m2Pm52c4iIiIiIiCgOBkQoZcFhKNKkL0Io/5xRfFTzdEBr/QT+7f9qWh0Now6J7I2sQ5JBanM9h4QRERERERENEgyI0IAohzZmdVabRPm3Ps4sDSIiIiIiIoqJNUSIiIiIiIiIqOAwIEJEREREREREBYcBESIiIiIiIiIqOAyIEBEREREREVHBYUCEiIiIiIiIiAoOAyJEREREREREVHAYECEiovxjrTC7BUT5g/cTERHlKcnsBlBhs//9ryC4xkLraoX3+dvNbk5SbF99EpbhkwDZC8+zi8xuDhGFu2wucOHPZreCKD+UzzW7BURERBlRsAERS+VkSLPugHDZSAglgW8+ZC+07laoZ/bCv/MZcxuYIzJ+nSQbAISOPYgIjjL9hWQ3tyFE1JdzktktIMofxZPNbgEREVFGFGRAxFr3fYhXzO/7ICvZIZRXQSyvgmXkTHhfuivlc4g1c2G95QEAgH/XOiiHNg6kyUlx3L0ZkOxQT+2G7/XVKR8nG9eJiCgjKr4GXNwKdOw2uyVEg1vpNUDFErNbQZTTPIqGNy/I2NQiY3+7glafhlNu1exmEWXNGKcFFTYBV5SK+N+VEr44TIJDFMxuVkIKLiBiqZwcesiXvVCOvGFkOYhTlkCa/nUIJRUQyqtgW7A69YBC0ZA0tjpJachYyNp1IiLKhJJpwOe+C3QfABS32a0hGrwq7wZKppvdCqKcdNaj4oUzfrzQ6MehDsXs5hCZ5pRbxSk3sOeSghfO+DCxxILlI224o9qK0c7cLltacAERqfbbRsBAPvAnyO8/Z6xTDm2E1toA25InAACW6hnGuoiMjy1roDTsMNYFMzKUY1vh3/q4URcjyDpnBaxzVkBrOwnvH74L67z7IU6YB63tJPw7fwlr3Upje63tJOR9L8c9fpBRf6PXcYMsY2rhWPFGSjUuBnydZC+8678N6y0PwOIaB0h2aF2tkHf/OuK9hQsPtED2Qm35GP7t/wqt83zEdta678MyciaE8ip9geyF2nYC8u7fQG2uN7YTSodBmv0PsHxumjEkR/N0QGtvgn/LGuO44W32b3sC0uxvQCivgnruMHyv3Ktfj9l3Qpw4P9S2xn1JXU8iMsHwOwFNA1qeBdrfNrs1RINL6TV6MKTybrNbQpST9rcr+PoHbjR0MxOEqLejXSp+fNiD35z24fkZRZjjyt2wQ26HazLA4hqnv5C9EQ/5QWpzPbS2k/ovkh3ilECaaHjGR+/sj0DgQLA5E2qDsV2xC7aFayKCJ4JrLKS6lRBKh/V//ED9DeNnGg34Okl22L72jF50NNj+kgpYb7oPlsroY5Gtc1aEaolIdliqr4ZtwSMR29i++iTEyYtCwZDgtsMnwbZwTcSxbQsegThhXkR9EsFRpm8bftywNkt1K41jB2uESLPvhDTz9si2jamNbAMR5aYR3wAmvwaMeVRP++dsGUSxWSsA10Jg9EPAlL8yGEIUw7OnfVi6p4fBEKJ+nHKruH2vG7884TO7KTHlbqgmAyyVk42Hc627NeZ2WmdLRJAiWd4/fBfilCWwzlkBIHYNEcFRpmclBNYHZy0RHGWQpn896YKl/q2Pw7/1cT0rBEi5hki6rpMg2SHvfRHy+8/BtmA1LGNq9eDJlV+KyOQwjtfVCt/GfwQA2Jb8Qh+S4xoLS+VkqM31EKcs0QMs0DNpfK8/CK3zfCgzRrJDqv22kdUBAOq5w1AO/gVKww4IpcNgW/AIBNfYmO0WHGVQ6jfDv/MZI7giXvVlfWUgg0Q9d1jPfBnOoo1Eg4J0GTD6x2a3goiI8sCzp324/yMPLvk1s5tCNCh82qPhnz7qgSYA94xN/xf5A1VQGSJCRY3ZTehDPvAnI1gi7/6NsdxSOcWsJqXtOqmN+4zsEv+ufwsdP0YmjW/jP0LrPA+t8zzUU+8Yy8Uafbo/ccx1xjL/zl8aQ178Wx+H1qUHbozMFuiBKd8r9xpDdPRjtxjro2WqqOcOG4EotbkelsrJRqaI2vIxlIYd0DrPw/fKvcY5iYiIiCj/bWrx4+cNPgZDiJLkVYH/77gX65v8Zjelj4LKEEHPRbNb0IfW02G8jsiayMAwmIRl4Dr1rgPS3zbqpSaIgddCyeX6z7BhRL0zTLTW4/qQlrCCskLpMFjnfA9Cxfio0/oKFTVA70yVnkt9twmSPZHbKt7+3hIRERER5YGzHhVPn/DhWBeLpxKl4kyPirWfeHHdEBFjcqjQau60JAsiinnaS2NuJwwZZbzWWhsy2aSclC/XybbkF3qtjyjBECIiIiKiRL1wxo+tF2Szm0E0qO2+qODlHMsSKaiACABjmIPgKAsVAg0j1sw1imVqno6otS4sl4WKacYqEJoooags6rE0T0ffjYsui/w9TrBioNJxnZIVngESfo21rgvGeaJtCwBCxfiIbcSauUYgRD21G94XlsOzbj7UU7uTalNEoEdyRK4UBz69MRERERHlNo+i4bHjzAwmSofHj3vhUXJn2FnBBUSUo28Yr63X3QVp9p3G79LsOyHVrQxt+9GrxuvwB2PLyJkQSofp07Xe/KN+zylWT9d/BmphhJOmfU1/eC8dBmvYubULx0OvAw/5Ftc4vaZF6TB9yl1HWZ/jhQtmcISf1/bln8Gx4g3Yl78Yd99Ur9NA2Jb8AkLpMFgqJ8NSc6OxXN7/RwCR18R6ywNGUMQ67/7QtLotH+kbhM0EpPnc0DrP69cuEDhJlNpcH7r+I640+sr21SeZeUJERERUADa2yKwbQpQml/waNrXkTrZVYdUQASC//xws1TOM6WClmbdDmnl7n+2U+s0R082qzfXQ2psglFdBKK+C/Y7nww7qjahdAQDKoY2wXneXMUWrY8Ub0NqbIoejAIBkh/WWByIWaV2tETPMaC0fQQjM0GJb8kTc8wL6DCyCayyE8ipjxpngeYNBhP4e5lO9TqnSulohlFREXlcAauOHoeKpO5/Rg1HlVbAMn9RnW62r1SjeqhzaCGnW7XqGy4R5+iw0KVI//cCYxSa8r4JtJiIiIqL8xaEyROn15gUZS6usZjcDQAFmiACA75V74d+1DlrbST2oEKB5OvRZRnatizrlre/VH0I9dzi0fdtJ+LesgdZ+Vv/d547Y3r/tiYiZSLSLn/Y5pnJsK7T2Jv0X2Qv13GFj6lnjvK+v1od6BNqqdbVC3vsilBO7Avv5em3/oP7egucNHj9MIjOkpHSdwgqyBoe6GILtD79OgbarZw9A3vuikY2heTr0aYNf/WHEIbwv3QX11O7I6xrcNjBLjXHonb+MvA6B69anrfHaDH0WG+XY1j5tk3f/OuJ9EREREVH++aiDhVSJ0imX7ilB07SY+V+edfNj7hjMPEhWvGMWCtuC1bCMqQUA+HetM6bdzTShdBjsy34DSHbIe19MS2YH5YZU78doMnHfExEREaWDsKk95jptcXlGzjn+zU40dKsZOTZRIaoptuD4zQOvh5mOz4OCzBApVNb/n717j4+qvvPH/5p7ZpJJCJNAQgJJgAQIGiQiF4Gg5eKNGlltgVa76lfZrUWxq63SrVovK61rtwpWd6ur/tRVsLUaq61yUSGgCAgmQCQJEgIJBJLJPTOZ+++P45zJkJkzk2Suyev5ePhImPM5n/Oe4Bk9r3wuC+4ClBq4jHUMQ4iIiIiIgsAwxFvP8mS4SlOw/fLEaJcyIq3MUsFVmgJXaQoem5oQ+IQYFEv31IhbQ2Qkk2VMh6u3E9Z/PBztUoiIiIiIKIx6lidDp5D1e722x4nNDTY8fKx3UP26+5yg4+/Wo2GsxvN3OiOFfwdDxUAkCsQ1NOwW721dw8zyyg8idi0iIiIiIooeX2EIAOQnyvHQFA1S1TLcXWmOcFXDmzuEer/JhtIvTYFPoKhjpBQFth1PofeFq9D74vVwnj0S7XKIiIiIiGiYqu1xQlbWAVlZBx6vtsDkEJaQvH1CbOzyMZz4C6EodnGECBERERER0Qjw8LFeLB2jxNxURb+H9xydHBsvTsD80UoY1MKxyk4HnqyxYEujTbLfHJ0cT0xNwBVpCmRrhd+5G60u1PY4seqACfUmJyquTEJRsgJGqwtp/+j0Or/lmmQY1DLsbXNg3q5uAEDZHJ1Yi8nhQmWnpy8pZXN0KE7x1LG3zYFfHu1FudHu9T77tjFaXdjTasc9h3u9+neP+Fh1wIQfZavEeoxWF95qtIkjbF4v1uHm8Z6A6foMYZ0Pk8OFxA86sTJLhc2zdDA5XLj9kBmPT0tAfqLc6/0uNCjx1HThdffPv8HsxHtNdo7kCSOOECEiIiIiIhrBcnRy7F6QiOszVOLDOAAUJSvw8kwtFhqkf4/+/hwhEHAHDABgUMswN1WB9+foAAAnvwsaDGqZ12KgK7M81zzQLmzHuv1y71p0CqGvjRdLLyL6RUkSrs/wrmNuqgLPFSX0e58X1np9hgq7F3gvFOsOjf5YpPWqx6CWYW2eOuhFTd3rfugUMvyxSIv8RLnYj/tn8NE8HeamKrx+/tlaOdbmqbmAbRgxECEiIiIiIhoBNhVpMTdVAUCYSuO28eIEMSB4vNoCWVkHSnb3wGh1QaeQ4anpgR/897Y5sOqACbKyDuRu60JlpxBuFCUL13v6uFVsu3SMJ2C5M0ctfv/0cQsAYN5o4ZzKTofY345mu+T175moFt/b3jYHcrd1IXdbF95v8oxu6fs+32+yiX3vbRNqzdbKsalI269vg1omtl932DNaozRTeB+3HDR5bQHrbpv4QafPvp6rs0JW1oH/d0jo6/FpCWL4su6wWfz5N5iFv6PF6cqAoRQNDgMRIiIiIiKiYSo/US5u07o2TwgfGsxOLP28R2xTnOIJSdy7z5Qb7djTKoQQRcnSj40zPu3GvF3d4tSaepNTHBECCNNByo12MYTp29+UJOH7yk6HOF3FLOQTGK2S4Z6JatSbnFjyeY/kQqXXZ3imrLin1tSbnCj90oQZn3Z7vU+j1SX2VW8SpuK4lRgU/fqu7XGK7TeesIpBhXYQa4bsbXOIU2DKjXbk6OTiiJG9bQ5sPGEVj71yyhPmrOkTHFHoMBAhIiIiIiIaIUwOF+4/6r1WhnvURN/wxFWaIoYMgRYLzdHJUTZHh9PL9P3OBYCZ320P+/F5u9jfY1MTsNCgFK+9y+gQ27/1XbCSrZXj2Yu1aLkmGWXfTb3xp+82wP7WGXFfq9Xm8nq93uQUw5pgQg6z9DImks5bvE8uzVD6PdZ3a+RkroEbFpKBiEzVf7iQyDbIhV2k+iSigQvlPSVxX0t+HhARERFRTHLvMrPusBkmh0tcxyJHF/zvxt070/jja10OX54+7tnlZukYpdeoB/d0GQC4u9KMdYfN4rQb9xofXEuDQk3y31iXyv9cMdcgAxF5StagziMi30J5T0nd11KfB0REREQU2zaesGL7d+twGNQyrwVKjVYhpOi7RW/ff3ytheG2MkvltS5H7rYuyMo6vNbucKs3OVHZKYyCmJuqwBVpnrVCLhzVsfGEFTM+7e63loY/7vcAwG/Y425zYW7Td9pK334i4VCH530nXjA6pe+irafMka1rpAgwQkRiWJLV//wtyT5TMgd1HhH5FtJ7SuK+lvw8ICIiIqKYd8/hXnGExvzRnnDBPV0kP9F7UdGVWSp8UZIkOV3FvYMKAHTahNBjoUEprtdxoW3nPYuj+pouAwjb3brrKDfaxSkuUiNV3DvUAMDmWTrk6OTI0cnxerEOFVcmeb3PbK3wOiCEIZtned7fWw1WDNU0vfDeV2YFnudSbrSLIcy80QrcM1EYNbPQoMRtE4TzTQ6X1wgaCh3pQETtf4i8y9rj95jkBcfNGNR5ROSbLIT3lNR9LfV5QERERESxr97kxBetnmko7tDhl0c9QcnaPLW4DsjmWTpx5xZ/Np6wig/0N49XwVWagl0LEv1On3n4WG+/URgXPuzrFDKvOtw71bhr9+XuSrM4kmRuqgInl+pxcqkeN49XieuCrDpgEt+nu9aTS/Veu9O4FzUdDPcUH/daLH2DFimPVQtrhegUMjx7sbbfz/DlUza/66LQ0EhP8tKm+j3k6mgc3AUnl0CmSRrUuUTkTaZJgmJyScj6k7yvJT4PiIiIiCi2uB/8LwwfHq32rONx1Xfb35Yb7bj6CxP2tjm82jeYnXjjtM1rdxdf/f6s0rPeh/u8x6s9Icc5i3cN7t1rAN/TZR6vtnhtC9xgduL9JhuWfC79S/kFu3uwo9kz4sLkcGFvm0Pc3rbe5EThJ90+3+dzdVbM29Xt1Z+/n6H5u9fNF4xYuf5Lk9fPwf0e+r5/X1NfNp6wYtUB4dy+o2AqOx1Yd9gs7koTTF80MDKXy+X3p2jb8wIcle/5PKa89MdQzv7JoC5qP/oB7Ls2DepcIvJQLfwZFBddH7L+7Pteg/2r//N5TFF0A1TzfxqyaxERERENlKysw+8xV2lKxK9Jg/PY1AQ8NEUDAHiuzur1wE8jQyju11B8HkiOEJGPGu//Ah0NQV3AF+X05VBMv27Q5xMRoJh2FRSF14a0T6n7WurzgIhooJ759m/4+ZGXo10GERFFwdIxnvVL3m7sv/gqUaT4X6YXgExi9wqXsW5oF55zO5z1X8LV3TKkfohGIpkuFcpZPwHkkrfwgEnd11KfB0REA/HbmnfwaPUW9DptSJCr8MiUlUhQqAOfSEREcS9HJxfX7GgwO1FutAc4gyh8pBdVHZXt95iz7RRcXecGfWGZJgnqax77bqSILGB7IhIopl4F1dW/gSwpLaT9urrOwdl2yu9xqc8DIqJg9Q1DAOC3tX8V/uwY+qr+REQU+0ozPL/Qe6+JYQhFl/QIkaR0yFPHw9l22udx59nDUOjHDvrisrRJUJXcA3laPuxVH8LVXDvovoiGO9noPCinXytMkwnxyBBAuJ/9kaeOhywpPeTXJKKR5cIwRHy99q8AwJEiREQjwMYT1iHt5EIUSgGfqmSZRYC/QKSxAoqCJUMuQlF4DeSTFsJZ9zmcp/bB2XpSmEpj4+I6NIKptJAlpUE+Ohey8ZdCkXc5ZAnhWSwMEO5nf2SZRWG7LhGNDP7CEPE4QxEiIiKKsICBiCKrCI6qD30ec5z4HKor7wtJITJNEhRTl0ExdVlI+iOigXGc+NzvMUUWAxEiGrxAYYjYjqEIERERRZDkGiIAIBsn8SBk7Ybj+M5Q1kNEUeA4vhOwdvs9Lvk5QEQkIdgwRGzPNUWIiIgoQgIHIrrRkGdd4ve481sGIkTxTuo+lmddApludASrIaLhYqBhiHgeQxEiIiKKgICBCAAo8q/we8xxYg9crfUhK4iIIsvVWg/HiT1+j0vd/0RE/gw2DBHPZyhCREREYRZcIDL5CkDmv6n94FshK4iIIkvy/pXJhfufiGgAhhqGiP0wFCEiIqIwCioQgUorPUqk9lPJLTuJKDY5zx6Go/ZTv8cV+VcAKm0EKyKieBeqMETsj6EIERERhUlwgQgAxUXXSx63f7V5yMUQUWQFum8D3fdERH2FOgwR+2UoQkRERGEQdCAiHztNcktc5+kDcJzYHZKiiCj8HCd2w3n6gN/jiqnLIB87LYIVEVE8C1cYIvbPUISIiIhCLOhABAAUM1dJHncc2jKkYogocgLdr4HudyIit3CHIeJ1GIoQEY0Irxfr4CpNgas0JezXqrgyCa7SFNQs0Yf9WhR7BhSIyEdlQXnJTX6PO8/XwLbjqSEXRUThZdvxFJzna/weV15yE+SjsiJYERHFq0iFIeL1GIoQjWhJCv/HuuyuyBVCYZWsity1tApZ5C5GISN1v0t9TlxIOdALK4tXw1H1d7isJp/HHTU7oJiyBPLs4oF2TUQR4Gw4CEfNDr/HZWodlMWrI1gREcWrSIch4nVr/woAeGTKSiQo1BG9NhFFl14lQ7fD94NQl90FvZIPt6GyMkuFXxVoMDlR40EMRgAAIABJREFUDp1CBqPVhbcabbi70iy2WWhQ4qnpCchPlMOgFn72DWYn3muye7VbmaXC5lk6mBwuFH7Sjc2zdChKFvptMDtx/9FebGkU/lvSszwZuj4hhXuUyBunbbjloAk5OjmemJqAK9IUyNYKv983Wl2o7XFi1QET6k1Or/dRNkeH4hRP271tDvzyaC/GJciweZZObJefKBevteqASaxnU5EWV41RIj9RON/kcKGy04lfHu1FudEunl9xZRKKkhV447QNySpgSbrwqH37ITO2NNrw2NQE3DZBJdZR2enAkzUW8To0MFKBiF4V/OfAgEaIAAA0SQGH0tt2PAVXx5kBd01E4eXqOAvbjv+UbKOYuQrQJEWoIiKKV9EKQ8Trc6QI0YgkFXhwhEjorMxS4eWZWhQlK8RwwqCWYW2eGiuzVGKbj+bpMDdVIYYhAJCtlWNtnhrbL08UXxurEY7rFDJ8tSgJc1M9/WZr5Xh5phYLDcH9rv79OTrcPN4TLLhrm5uqwPtzdF5tvyhJwvUZ3m3npirwXFFCUNf6oiQJa/PUYhjifg9zUxX4aJ7Oq2b3SJNrxipxfYYKOoUMOoUMYzUyPDY1AQ9N0XjVUZSswOPTgquD+pMMRAYQjA48EAGgLF4JWXKG3+MuUxtsn0g/dBFR5Nk+eQouU6vf47LkDCiLV0awIiKKR9EOQ8Q6GIoQjTgMRCLj8WkJ0ClkMDlcWHfYDFlZB9YdNqPB7OzXBoDYpmR3j9hmcbrSZ8ihVQCPV1sgK+vA+03Cf0d0ChnW5Agj/hI/6BRfBwBZWQdkZR245aBnhsLeNgdWHTBBVtaB3G1dqOx0ABBCBrd7JqoxN1Uhts/d1oXcbV1i31sabZCVdaC2R6i3tscpXmtLo83r/MpO4XxZWQfeOO2p+anp/QMNg1oY9ZK7rQslu3uw8YQVpZnCz8FodXn1Y/Yz2okCi2ogAiDgkHpnU1XA30QTUeTYPvlPOJuqJNtwqgwRBRIrYYgbQxGikUXqQedMbwQLGcZydHJxRMQXrQ5sPCF8vm48YcX4rV3Y0mjzarO3zdOm3GjHK6c8/31whxx9bW+24+Fjwl/WPYc9f2nBrhsy49NuzNvVLU41qTc5cbLPNBl3CHN9hqdD91SaepMTpV+aMOPT7oDX6Xv+2specSrOLQdNYuhTlOz7cfpHX5lRb3KKU2pMQl4DrQK4f7JG7CeYOsg3qfs9IoGIYtrVUBYH2HWmZjvs+18f7CWIKETs+1+Ho3q7ZBtl8Soopl0doYqIKB7FWhjixlCEaOSYqPP/oFPd7YhgJcNXaYZnVEePnxEMfduct3iv2eEOO4DAIceF630EI0cnR9kcHU4v04s70fQNL2amCI+4E3SeR93BXKfv+X3XCgGAgx3Cv2s6PwuyXtj+mW8tMDlc0CmEaUc9y5PxRUkScnSDfhwf8aTud6nPiQsN6W9AOec2yCeVSLaxH3iDoQhRFNn3vw77gTck2ygmlUA557YIVURE8ShWwxA3hiJEI8MUvf/tI2q6B/7QS/Fn94LEfuuCxLotjTZc/YUJe9scYjAyN1WB3QsSA59MPknd71KfExca8r9FqsW/hHxMgWQb+4E3uKYIURTYdvxnwDBEPqYAysW/jFBFRBSPYj0McWMoQjT8FST6f3zhCJHQONThedBM9DMCQqrNY1M962qcMod2jYyVWZ4g5P0mm7geR981R9yMVs+1BzMSQ+r84hRFvzaBlBvtmLerG4WfdGNvm/DvarZWjnsmcre0waiWCESkPicuNORARKZQQfW9XwTclcJRvR3Wd38OV8fZoV6SiAJwdZyB9d2fw1EjPU0GmiSovvcLyBQR3OydiOJKvIQhbgxFiIa3KUn+f/Nb1cURIqFQbrSLD/rzRivEB/aVWSrULNHjnolqv20WGpS4bYLw/5UmhwtPH7cMuZ57JqqRo5NjoUEp7lYDAJ02YSrMQoNSDCj6OtDuCcg2z9IhRydHjk6O14t1qLiy/7NrVoJMvE6OTu7zfAB4vVgnhjJ7Wu39+vGlZokeZXOEPupNThzv8zB/zsKFVQejqst/ACr1OXGhkIwzkqVOgHrxAwHbOZuqYH3v3+BsOBiKyxKRD86Gg8J9FmABVQBQfe+XkKVOiEBVRBSP4i0McWMoQjR8FST5XxvAaHV5PcTS4D1fJ3x+6hQyPHuxFq7SFGyepfPafvax6t5+bXYtSBTDgpdP2Qa1dgcAvNng+e/OsxdrcXKpHvdPVmPjCasYxNw8XtXvmn3dXenZFWduqgInl+pxcqkeN49XiVvkAsCXrZ71QE4u1WPXgkSUZihxd6VZ3IHGfb6rNAU3jxcCnwaz02tR2ECuz1D57MO9OCwF70C7Q3J0jtTnxIWC2+w5CPKc2VAt+Clsu1+QbOcytcL6t/VQFCyGisP0iULKtuMpOGp2BNVWteCnUOTOCXNFRBTPHiy4EQ8W3Bh0+9S/34x2W0/Y6nGVvhu2vokoPihkMiw0KFBu9B18fNZix6xRwf92OBiTEuX4tmdkjT55+FgvWqxOrJ2oEUOQBrMT7zXZvXadOWdx4VcFGkxOlIsLjFZ2OvC/9VaxHeA9CuLCaTTuNTU6++QCWxptWGCwYnWWCga1sP1vxXfTdH5WacavCjTiFrsNZideOWXDQ1M0/a61YHcP/vcSLS5JUYj9VHY68cujniDjloMmZCYkYt5oBXQKGYxWlzglqGB7F8rm6FCcohBDF6PVhT2tdtxzuNcr8HFvoevrQf2hb3q9fk5Gqwu1PU6sOmDq13YkmDSAKS2+fNbif2TOQoMCClnwgYjM5XKFdIyO4/B7AUMRN/mYAihmroRi4oJQlkA04jhO7Ibj0BY4z9cE1V614KdQXHxDmKsiopGGgQgRRcLDxyx4vNr3b+aXZ6jwtzm6kF5v3i7Pmg9ENHRzRyvxxcLBLyj7/S9N+MDHujEA8NCUBDw2VRN0XyEbIeKmuPgGQJ8J2ydPARbpfZWd52vg/PhxOMbPgvLSVZBnXhzqcoiGNefZw7B/tRnO0weCO0GTBPXiByDPmR3ewoiIiIjCZJFBgcf9HPusOfTTDyYnKRiIEIXQ5KGOEJG4zxcZBjZCLCx7FSly50Cz4g8Bd59xc54+AOt798O2/bdwtdaHoySiYcXVWg/b9t/C+t79QYch8jEFwn3JMISIiIji2CKDAiq57yHx3Q5gc4jXZLh6TMh/h0w0og3lntrcaIO/DaVUcllsBCKAsNCq6ob/gmJSSdDnOGo/hWXLGtg+fgyO4zvDVRpR3HIc3wnbx4/BsmUNHLWfBn2efFIJVDf8FxdQJSIiorinlMtwhcRDz+aG0C6ofGOmEknK4NckICL/RqlkuDFzCIFIg//A8wqDAko/Yak/YY07ZQoVVMv+HbIvx8F+cHPQ5zlO7IHjxB7Ydm6EYuLlkGfNgDzzYsj0Y8NYLVHscXWdg/PsYTgbK+A48TlglZ6G5ouyeBWUc24LQ3VERERE0bEqW41tzb4XVixrsqPJ4kKGJjQhRoJChgcmq/HQsaFvIUs00t07SYMExeDuzSaLC2V+1g4BgFXZqgH3GZHxX8o5t0GWnAn7wbfg6mwK/kRrNxzHtsJxbCsAQJ46ATJDHmQp2ZClZkOWkgWZOhFQ6yBTaQGVNkzvgChMbGa4bGbAaoLL2gNXRyNcbQ1wdTTAZayDs+3UoLuWJWdAWbwaimlXh7BgIqKB21R0JyZo0/D08TKUGwNvCU5EFMjKcUr8awVg87P5y5unrfi3ycEvrBjIzePV2NrsQLnR/+4WRCRt1igFfjSI0MLtzdP+R3+p5MDKcTEaiACAYtrVUEy7GvaDW+A4tBku68C3GHK2nQKG8IBINBLI1DooZq6CsnhltEshIgIAXDVmJvITM7GjuZKBCBGFRKJShpXjVHjDz/D5jXWhDURydXL8LE+NepMTp8wjawteolAYo5FhbZ5a3MZ5MDbW+Q9EVmWpkTiIqW1hW0PEH2XxSmhufh3KS26K9KWJhj3lJTcJ9xfDECIiIhrmVmWr/R6rNznxwsnQriWyMkuFX+RrkBDxJyii+PeLyQn45wn+79lAXjhpRb3Jfxi5MmtwYz2icztrkqCcdyfUq1+GYuqyqJRANJwopi6DevXLUM67E9AkRbscIiIiorC7bqwS05L8P848+23o1/xYm6fG76YnYLyWqQhRMMZo5HhqegLunzz4MASQvp+n6eW4buzgpuJEdQ8p+agsyK+8D4rCa+E48j4ctZ8BLg5BIwqKTA5F/hVQXHQ95GOnRbsaIqKAfjF5BdZOvC6otv/v0HOcXkNEAa2bpMG/Vph9HqvuduL5Ogvuygvd1BkAuGeiBsUpCvxgvwlNFldI+yYaTjI0MrwyMwFXDzKscHu+zoLqbv85wbqJg7/HZS6XK3buYpsZjuOfwVH7GZyNX0e7GqKYJM+6RAhCJl/BhYSJKKak/v1mtNt6+r1es+R55CdmDqivdYdfwsYTH3q95ip9d0j1EdHwlLetEydNvh9pUlUy1CzRI00d+m1zex0uPPOtBb87bkW7LXYeqYiibZRKhnUT1bh/smbIW1a3WF0o2N6FNj/3WK5Ojrql+kH3H9URIv2otFBMuwaKadfAZWqF60wlHI2VcJ2thLPtdLSrI4oKeep4yDKLoMgqgmxcEWS60dEuiYgorEwOC85ZOqJdBhHFiXUTNfj5kV6fx9psLvz6m17894zQ/xIpQSHDgwUJuHeSBtub7ShrsuPrDgdarC6clFjrgGi4ydXJkaaWYapegRszlbh6jHLQW+te6Nff9PoNQwBg3cShTcWJrREiElzdzXC1N8DV0Qhn+2m42hsBcxtcVjNcNhNktl5h+1KiOCJTaeFSJUCm0kGm1gLaVMhGZUE+arywrfSobMiS0qNdJhFRUAKNEPE16mMgOEKEiHxxARi/tQuNEru/bL88EYvTY+t3wUQkbUezHUs+7///FW5ZWjlOL9NjKNFL3HwqyJLShQfD7JlQRLsYIiIiIiKKCTIAT0zV4LZD/n85uuZrM/aUJCFDE/qpM0QUemd7nVjjZ30gtyemaoYUhgDR2mWGiIiIiIgoRG6doMa1Egs3njA5cctXpghWRERD8ZODZpzo8T/q69qxKtw6hG183RiIEBERUVh9fP4Q3m/ah0MdddEuhYiGsSemSe80sb3Z7ndHGiKKHf9aYcb2Zrtkm0D3e7AYiBAREVFY3V35Ikq/3BDUNrr3TLwOFVf+ASuzFkSgMiIaTmamKLC+QPoh6X9OWvFUrSVCFRHRQD1Va8H/nLRKtllfoMHMlNAspBE3a4gQERFR/FqZtQB/LFoDg1rYGs9o7cLPKv+ELY27AQCbiu7EDRlzkK01AADGalKiVisRxa8npyXgcKcTHzTZ/LZ5oKoXk5LkuDHT/xQbIoq8d87a8ECV7x2j3JZnKPHktISQXZOBCBEREYXVQkMhXp65FjqF5ze3BrUeL89cCwB4fNqPkJ+Y6XUOt90losF6baYW88sd+Kbb//oDt3xlwsSFSSH7LTMRDc2hDkfAdX4K9Qq8NlMX0utyygwRERGF1f2TS8UwpLLzJHY0V8LksECn0ODlmWu9wpC9bTVYd/glceQIEdFApapleP1SHTQSTzpmB3B5eQ8OdTgiVxgR+XSow4HLy3tglrgdNXLgtWItUtWh3SmKI0SIiIgorKbpxwMAdjRXYsnnjwAQRo3sWvAfYlCyt60Gvzz6/wW1zggRUSCXjlLgtWIdVh7w/xvnXocL88t78FqxFjeN4/QZomh456wNt3xlQm+AbPL1S3W4dFToR3RxhAgRERFFxPtN+8Tvy41VqO05K74+b9cDDEOIKKR+mKXChkLptQbMDhd+sN/EhVaJouCpWgtu2meSHBkCABsKE/CDMIWWDESIiIgoqnY0V0a7BCIaph7M1+COnMAPUg9U9eJfvuaWvESR8q8V5oALqALAnblqPJgfmi12fZG5XC5X2HonIiKiESP17zej3dbT7/WaJc8jPzETDWYjzE7PVnpZCaOhU2j6vW52WLC28sV+I0Zcpe+Gr3giGtYW7+nBJy32gO2WpCvx+qU6ZGhCu04BEQmaLC7c8pUJ25sD34/fS1Nix/zEsNbDNUSIiIgoItxb6gbz+syUPE6hIaKQeeNSLW7+yhwwFNnebMf88m78aYYWi9P5qEQUSjua7VhTYcaJHv87QLl9L02JNy7Vhr0mTpkhIiKisDI7Bj43n9vuElEoZSbIsWN+Iu7MVQdse6LHiSWf9+BfK8xosXIwPdFQtVhd+JevzVjyeU9QYcgdOSrsmJ+IzITwxxWcMkNEREQh4W/KTKhwygwRhcJvay1YH8TaBQCQqpLhiWka3JUXvjUMiIaz5+ss+PU3FrTZgosdNhQmhHXNkAtxhAgREREREY0YD+Zr8PZlOmiCeBJqs7nws8peTN3RhRdOWgOfQEQAgBdOWjF1Rxd+VtkbVBiikQNbZukiGoYADESIiIgoRqzMWoAvSn6HnuWbsTJrQbTLIaJh7AfjVNizMAmFekVQ7au7nbirwozcbV34r+MWNFk4yJ7oQk0WF/7ruAW527pwV4UZ1d2Bp8cAwLQkOfYsTMIPs8Kzta4UrhREREREUbPQUIj7J5di/uhpMKj14utjNSlRrIqIRoJLRymwe0EifnLIhA+aAu94AQD1JifuO9qL+472ojRDhVXZKqyKwkMcUSzZ3GjD5gYryoK8j/panqHCazO1SFVHZ2cnBiJEREQUUTm6dNw/+QbckDHH5w4zJoeFi6oSUUSkqmX425xE/OqbXmyoGdgC0GVNNpQ12XDnIeCKdBUWGRS4Ik2JWaOCG3VCFK8OtDvwWYsdO40OfNZsQ7djcP2sL9DgyWkJoS1ugLioKhEREYVEoEVVNxXdiRJDIYqSc30er+w8ibKz+/Dwsbd8HueiqkQUToc6HPj1Nxb8/ZxtSP0Y1DIU6hWYkiRHQZIcU5IUGJcA6JUyr3+IYlGX3eX1z5leoLrbgZpuJ6q7HajqcsI4xN2Xrh2rwhPTNJiZEv3wkCNEiIiIKKzK5qzHkvQZ0Cm8F0ozWrtQ23MW+YmZMKj1+N/67dh44sMoVUlEI93MFAU+nKvDq6es+PUxCxrNwa1/cCGj1YVyox3lxhAXSBTnsrRyPDFVg1snBN7+OlIYiBAREVFYTdOPF8MQo7ULX3fU4cX6bdjSuBsAULPkea/1Q4iIounWCWr88wQ1nv3WgmdPWHHSNLhghIgEuToZ1k3UYN0kDWJtbBQDESIiIoqIBrMRr5za4XdKDBFRrJABuHeSBvdO0uB/Tlrx7AkLvuliMEI0ENOS5Fg3SYN/yY2dESEXYiBCREREYWV2CAsVZmsNeGjKD3Hf5FIc7zmLXcYqPH38vShXR0Qk7V9y1fiXXDU+PGfDlkY7NjdaYWM2QuSTSg6sHKfCqmw1rhsb+3EDF1UlIiKikJBaVPWeiddhdXYJipJz+q0lYnJYoFNo8Hj125KjR7ioKhHFgh67C1vO2LC5wYbPjA7YnHycopFNJZfhCoMCq7LVWDlOicQ4WjSYgQgRERGFRKBdZtwem7oapZmzfe4202A24rOWI/j1sf9DvanZ6xgDESKKNXanCzuNDmH70RYbyo2D3H+UKM4sNChwRZqw3fQigwJKefyEIH0xECEiIqKQCDYQccvRpeP+yTfghow5yNYavI6tO/xSvx1nGIgQUaxzuFyo6XYJ25T2OFHd5cAJk/c2pl02F7qZm1CMSlIAepX3FtETdTJM0StQkChsI12QJINCFp8ByIVif1IPERERDUv1pmbcXfki7q58EQsNhViTswzXjC3mjjNEFLcUMhmm6WWYppdHuxQiCgIDESIiIoq6cmMVyo1VAICVWQvELXmJiIiIwoWBCBEREYXVQkMhZqbkSbY5Z+kQQxCGIURERBQJDESIiIgorP535lrkJ2YGbPfHojV4vu4fkjvNEBEREYUKJ7cRERFRTDCo9Xhoyg9xz8Trol0KERERjQAxP0KkouMkanrOoLqrUfja3Ygumxndjl502c3ospvhcDmjXSbRkChkcuiVWuiVWiQpE6BXajElKQsFieMwRS98nZHSf3tKIqJ48NyJD7E4vUiyTaIiAfNGT4FOocEvJq/ot8MMERERUajF5La7/zh/EB80HcAHTftxytwS7XKIYsIEbRqWZ1yG5WNn4ZqxxdEuh4ion4Fuu3uhlVkLsHnWfQCA3G1rUG9q9jrObXeJiIgolGIiEOm0m/FB03580HQAH577Cp12U7RLIoppyUodlmfMwnVjL8XyjMuQrNRGuyQioiEHIgBwetlLyNYasO7wS/1GiTAQISIiolCK6pSZL1qrsaH2HfytaX80yyCKO512E95s2IU3G3YBAL6fcRnW59+IeaOnRLkyIqKhMTut0S6BiIiIRoioBCI13WewofYdvHrqk2hcnmjY+VvTfvytaT9unfA9rM+/EQVJ46JdEhHRgOXo0sXdaM5ZOqJcDREREQ13EQ1EWm3deLLmL/j98bJIXpZoxHj11Cd49dQnuG9yKX5VcBNGq5KiXRIREXJ06SjNmC3ZJk2djNsmLAYAmBwWbGncHYnSiIiIaASLWCCyoeYdPFnzF3Q7eiN1SaIR6/fHy/A/dR/jV1Nuwvr8G6NdDhGNcNsuf1Qc+RGM7c0VYayGiIiISBD2QOTLthr85OCzqOk+M+g+5o+eiqLkXBQkCVuQ5mjTvbYoVcoUIayYKPLsLge67Z6tpOvNzcJW091nUNl5Entajw24z25HL35V9QZePfUJXitehzmpBWGonIgotPa21aD0yw3RLoOIiIhGgLDuMvNWYzlu+eoZOFzOAZ8r7KAxC8vHzkK21hCG6ojiR4PZiA/PHcAH5w7gg6YDAz5fIZPj9UvvxeqshWGojohI4G+XmcemrsaMlNyA57/ZUC45VYa7zBAREVEohS0QeaL6z3jo2JsDOufm7EVYnjELyzMuQ6JCE46yiOJej8MiblP9RsPOAZ37+NQf4ddTfhCmyohopAvFtrtSGIgQERFRKIUlELn90HN45dSOoNv/OHsR1hf8E6brJ4S6FKJh7WjXKWyo+Sv+bwDByG0TFuPlmWvDWBURjVQMRIiIiCiehDQQOWVuxi1fPYNdxqqg2l89thjr8/8JJYbpoSqBaETaZTyKDbV/xUfnDgbVvsRQiNcvvRcTtOlhroyIRhIGIkRERBRPQhaInDI3Y/6u9WjoNQZse1lqPtbn/xNWZM4NxaWJ6Dvvnt2LDbV/xf622oBtsxMM2FOygaEIEYUMAxEiIiKKJ/JQdXTLV88EFYbclXcN9pU8xTCEKAxWZM7FvpKncFfeNQHbNvQacctXz0SgKiIiIiIiotgTkkDk9kPPBTVN5unpt+KPRWtCcUkikvDHojV4evqtAdvtMlbh9kPPRaAiIiIiIiKi2DLkQOSJ6j8HXEBVr9Ti3dkP4r7JpUO9HBEF6b7JpXh39oPQK7WS7V45tQNPVP85QlURERERERHFhiGtIfJWYzl+dOC/JNvMSM7Fa5euQ1Fy7mAvQ0RDUNl5Ej/56llUdJ6UbPfmrH/D6qyFEaqKiOLBb2vewaPVW9DrtEW7lAF7MP+f8MiUlUhQqKNdChEREcWoQQciX7bVYH75ejhcTr9tZiTnYuv8RzFGnTzoAolo6M5bO7FszyOSoYhCJseehRswJ7UggpURUayLx1CEYQgREREFY9BTZn5y8FnJMESv1OK1S9cxDCGKAWPUyXjt0nWS02ccLid+cvDZCFZFRPHgwYIbhXBBrop2KUFhGEJERETBGlQgsqH2HdR0n5Fs81oxp8kQxZKi5Fy8VrxOsk1N9xlsqHknQhURUbyIl1CEYQgRERENxIADkVZbN56s/otkm6en34obMucMuigiCo8bMucE3H3myZq/oNXWHaGKiChexHoowjCEiIiIBmrAgciTNX9Bt6PX7/G78q7hbjJEMey+yaW4K+8av8e7Hb14skY69CSikSlWQxGGIURERDQYA1pUtab7DKbs+Jnf45el5mNfyVMhKYyIwmv2rl9if1ut3+PVi/+IgqRxEayIiOJFLC20yjCEiIiIBmtAI0Q21EqvLbA+/5+GVAwRRU6g+zXQ/U5EI1esjBRhGEJERERDEXQg8kVrNV499Ynf41ePLcaKzLkhKYqIwm9F5lxcPbbY7/FXT32CL1qrI1gREcWTaIciDEOIiIhoqIIORDg6hGj44SgRIhqKaIUiDEOIiIgoFIIKRDrtZvytab/f4z/OXoQSw/SQFUVEkVFimI4fZy/ye/xvTfvRaTdHsCIiijeRDkUYhhAREVGoBBWIfCARhgDA+gKODiGKV4Hu30D3PxFRpEIRhiFEREQUSkEFIh+e+8rvsZuzF2G6fkLICiKiyJqun4CbJUaJfNB0IILVEFG8CncowjCEiIiIQi3IESL+H4iWZ8wKWTFEFB1S97FUIEpE1Fe4QhGGIURERBQOAQORf5w7iE67ye/x5RmXhbQgIoo8qfu4027CP84fjGA1RBTPQh2KMAwhIiKicFEGavDBOenRIYkKTUgL6quh+whq2nehofsIeu2dsDh6wnYtonigUSQiQZmM7KSLUDCqBNlJF4Wk30SFBsszZvkdDfZB0wFcM8b/Fr1ERH09WHAjAODR6i3oddoG3w/DECIiIgqjwIGIxIKKy8eGZ7rMOdNxHG3diqPGbWHpnyheWRw9sDh60GE5i6PGbZhuWIrpo5dhrG7ykPu+bqxUILIffyxaM+RrENHIMdRQhGEIERERhZvklJmKjpM4ZW7xe/y6MAQiR4wf47OGFxiGEAXhqHEbPm14AUdbtw65L6mA85S5BRUdJ4d8DSIaWQY7fYZhCBEREUWCZCBS03PG77H5o6ciW2sIaTFHjB/j04b/xnnziZD2SzScNZtP4JMpRm/JAAAgAElEQVTTL+CI8eMh9ZOtNWD+6Kl+j0t9HhAR+TPQUIRhCBEREUWKZCBS3dXo91hRcm5IC3FPkyGiwTli3IpzpuND6kPqvpb6PCAikhJsKMIwhIiIiCJp0CNECpLGhawIl8uJI8aPcd7EkSFEg9VsPoGjrVvhcjkH3YfUfc0RIkQ0FIFCEYYhREREFGnSI0S6/f9GeIo+K2RFNPZUoap1e8j6Ixqpjhq3obGnatDnS93XUp8HRETB8BeKMAwhIiKiaJAMRLrsZr/HcrTpISviRMeXIeuLaKQ70bF30OdK3dddNv+fB0REwXqw4EZsKLxF/PO9k76PDYW3MAwhIiKiiJPcdrfb3uv3mF6pDVkRJ7u+CllfRCPdqa6vB32u1H3d7fD/eUBENBD3Tvo+AKDe3Iw/XHR7lKshIiKikUoyEJEaIRLKQMTusISsL6KRzuoY/EgOqfta6vOAiGig3KEIERERUbQMespMkjIhZEX02FtD1hfRSDeU+0nqvmYgQkREREREw4lkIOKQ2K1CKVOEvBgiii6p+1rq84CIiIiIiCjeSAYiRERERERERETDEQMRIiIiIiIiIhpxGIgQERERERER0YgjucsMUbjdMOlRjE8qQrfNiFeq7oj5fomIiIiIiGh4YCAiYfWUPyAtIbff6902I5rN3+KDug1BtQeAus59/doToFelAwCSVIa46JeIiIiIiIiGB06ZkaCUaXy+nqQyIC95Nn6Q/7ug2gdj9ZQ/4O4Z7+KWqc8Puo941GVrBiCETPHQLxEREREREQ0PHCESpE0VKwAA+aMWYMG4W5GkMiBDV4D8UQtQ277bb/tgDSVMiWfvfftIXPVLREREREREwwMDkQGqbd+NcYnTUJR2LQBAp0wZUn/5oxbg6pz7xD+P0mTi7hnvAgA+qv89att346cXb4ZSrsGuxpdQkFqCDF0Beu1dePHoT6BXp2Nexo+RlXSROD2k196FdutZfFT/NLqszV7XsTsteKP6blydcz/SEnKglGvQbTNi95lXvYIdvTrdq02vvQtnTd+I036k+mu3nMXepjfRZKr2+Xrf67inGfVd6yPQtQFgbsZqTBu9WHzPLb0nceDcO2Lfvvp1970o6w6kayd5/bzOmr7BzsaXxJ8XAPHn/lH97zEldSEyddOQoNSj196FmvZy7Gx8cUh/90RERERERBQ9DETigFIujB6ZPXYlEpR6ABC/Ls/7Vb91SxKUemQo9Vie9yu8Vf1zAJ7gRinXYFX+78XzAWEK0JLxa9Fja8WZnioAwE2TN3itv5Gg1CMveTZmpF2HipYPJfsbpcnEkvFrYXda+71+RdYar0DEPTKm77UCXXtuxmpcNvaHXu85LSEXczN+JPbtq1+9Or1f3337T9dO8gpP3D/3K7LWeL2PBKUeRWnXwuLoxt6mt0BERERERETxh2uIDNCMtOtQMGohAMDutOBE574h9VfbvhubKlag3XIWANBuOYtNFSuwqWJFv6k4CUo9mkw12FSxAu8c/3fx9SZTDT6q/z02VazAq9+sQUvvSQDwu8CrUq7G/nNvY1PFCtR9V79SrsFFhmUAhNEf7tCgum2neD13jVL9ua+tlGt8vp6g1GNG2nV+fx7BXDsvZTYAYWTHq9+swaaKFahu2wm7y+K3XwBYlHWH2Hdd5z7x59VkqgEghCeLsu7sd16CUi+239X4Ur86iIiIiIiIKP5whEiQ3NNY3OxOC7affs5rioVU+12NL6Gi5cMh1dBr78Kfax8AAHEkh3sEiFuXtRld1vNiGDIusVBs63a6u0Ic2bCz8SXkJQsP9mqFFgDQY2sV2xq0OWIfrx+7y2ddffurMm5HSZYwyuKsqdrn61plst/3GMy17U4rACGIKU6/ATsbX8TWU8/47dMtXTsJgPBzdE+/6bI246P6p3HrtD8BAMYlFfY7r91yVmxf0fIhisesQJLKMGLXfSEiIiIiIhoOGIgMUlXrDp+LqYZTr6O732u+1sToK12b1y8Q6ctXoHOmpwpNphpk6AqQlpCLGyf/B7ptRnzTumNAU0Tszl6fr6dpfY9cCfbaXzf/DUvGr4VSrkFR2rUoHL0YLb31Xmum+CKuGXLBz7HL2ox2y1mM0mQGFXK4AxkiIiIiIiKKXwxEgrSpYgXGJRbiqpx/Q5LKgKK0a3Gm5xu/ochAd5kZLF9rYoTCn2sfwKKsOzExZQ6SVAYkqQziuh3hXjcj0LVr23ejx9aK+eP+WVx4NUNXgJsmb/BaA4SIiIiIiIjIH64hMgBneqpw8LxnKszcjB9FsRrv9TbqOveJ62nUDXFdE7edjS/ilao7sKvxJdidlu+uuTAkfQ/12md6qvDn2gfwRvXdXmuASK1P0mvvAiBMtelLr07HKE2m0MbRFdL3QURERERERLGJgcgAVbR8KC7wOUqTiXGJ/decGIok1Wjo1ekYl1gIvTpdsm3fLX+tDjO6rM0Yl1gorpUxWDPSrsNthS+J4cKJzn3iNJFAC5cOVTDXvmXq81ietx56dTq6rM3o6LPgqsne4bfvdqvQLkllwLIJ9wLwbPHrVtO2K7RviIiIiIiIiGISp8wMQm17uTiFY/64fxYXOh2Kc6YaYQ0LuUZc4DPQQqwVLR+KW/FOSV2EKamLhlyHW5LKgJKsO8SFUN3qOkIz+mSo185Lni0uBuvWbTNKruvyUf3TuHnKJijlGp8/ryZTzZAXviUiIiIiIqL4wBEiEtwjEtxTLdz2Nr2FbpsRAJChKwjYPhhbTz2D092V4vSQXnsXms11Qr/u13xM5/is8U/ilraAEArsP/e2+Gf3iIm+Iye6rC1efbj7tzrMAISgpa5zn/geAWGnlf3n3hbXD/HX30Bfv/BnFsy19za9iZbek14/qyZTDf5yfL3ffoXrNotTbPq+3m0zorLl7/2CLX8/d3ff4R4tQ0REREREROEjc7lcLr8Hy/wvDOoqfdfvsYGK1AKkRCPFhds+D0Sk7nsiIiIiIqJo4ggRIiIiIiIiIhpxGIgQERERERER0YjDRVWJiGh4c/YCZ/4b6NwDdH8NmI9HuyKi2KXJBvSzgOT5QNZaQJ4Q7YqIiIjChoEIERENX81/Bs6+BLRtjXYlRPHB0iD80/Ie0PYRkLkGSP9htKsiIiIKCwYiREQ0PLX8BahZA9jbo10JUXxq2wF0fQXI5EDaTdGuhoiIKOS4hggREQ0/llPAmRcZhhANlb1duJcsp6JdCRERUcgxECEiouGn+a+cJkMUKm1bhXuKiIhomGEgQkREw0/3V9GugGh44T1FRETDEAMRIiIafnqORLsCouGl52i0KyAiIgo5BiJERDT8dH8d7QqIhpfuQ9GugIiIKOQYiBARERERERHRiMNAhIiIiIiIiIhGHGW0CxjJVk/5A9ISctFr78KLR38y5P7yRy3A1Tn39Xvd7rSg3XoWB869g9r23UO+jttA63e3d9f0wuFVku0XZd2JCfqZGKXJBAD02rvQ3FuH9759xKudXp2ORVl3IF07CUkqAwCg22bEiY4vsbPxxcG8NSIiIiIiIhrmGIhEkVKmAQAkKPUh6U+nTPF9HbkGaQm5WDJ+LQCELBQZSP3jEgvFMMRd09yM1djb9JbP9j/I/x0ydAVeryUo9RifVOT1ml6djpsmbxCDELcklQET9DODeh9EREREREQ08jAQGabqOvfhg7oN0KvTMS/jx5iSughKuQazxt4Y0lEiwbrIsAyAMHJDKVMjQalHXspsn4HI8rz1YhjSZKrBR/VPo8vajHGJhcgfNd+r7Q0THxXDkOq2ndh66hkAwmgZQ8L4cL4lIiIiIiIiimMMROLAjLTrUGhYglHqTCjlwqiMlt6TqDJuR0XLh5LndlmbsfXUM8jRFyNBqRdHdbgtyroT45IKvaayhGN6TVbSRQCAxu4j0KlSMT6pCGkJudCr09FlbfZqm6mbBgBot5zFn2sfEF8/01OFMz1V4p/HJRaK02nqOveJYQggjIKpDVn1RERERERENNxwUdUYtyjrTpRk3YG0hFwxDAGAtIRclGTdgbkZqwfd97IJ96Io7dp+U1n6Tq8JhXGJheIojiPGrThq3CYeK06/watt/qgF4hScU13SW/y5R50AwMHzZaEql4iIiIiIiEYAjhCJYXp1OgpHLwYgLCj64cnf4kxPFWakXYfLM2+BUq7BxYZr/K7D4e5j8fi1YsjQZjntdbzdcha17eViH8vz1iMveTaUcg1mpF0XcARKMGZnrBTfg3uExxVZa5Cg1Pdb56PvOiipCdm4rfAlr4VSv2ndIdaqVmjFtsVjSnGd7kHxfbb0ngz5KBciIiIiIiIaPhiIxLDpo5eIo0Jq2svFMKGi5UPkpczG+KQiJCj1yB+1oN+Df17ybNw9412v15pMNfigboP4575TTNxOd1UiL3k2AGCUZlxI3kd6Qh4AoLm3TnytubcO45OKMEqTiXGJhV5TYdwuXEA1SWXAZWN/CLO9s19Q467ZzT3KpclU3W9KDhEREREREREDkRiWpvVMZWm3nPE6VtexTwwM/O0u01e3zYiP6p/u9/qFW9v2pVenDbTkfmakXSeO2ug7Vaap55hY/0WGZT4DkdPdldjXtAVneqqwKOtOFKVdCwAoSC3pF4hUtvwdB5vfQ5e1WdyhRinXoDj9Bm69S0RERERERP1wDZFhqq5zHzZVrEB1204AwuiK5Xm/8mpzw6RHUZR2rc8wJFQKUkvE76/OuQ93z3gXd894F5eN/aH4eo6+2Oe5TT3HxKCkb6iRoOi/za87DAGAmrZd4uuhCHWIiIiIiIho+GEgEsO6rC3i91plstexvBTPFJFmcx382XrqGbRbzgIQppHMSLtOPJapmwJAWG/jneP/jk0VK7Cr8aWQ1O6WlpATsI172g8AmOwdnnP7jJDpy+6yAACsDrP42sQLpsy49W1DRERERERE5MZAJIbVtu8Rv582ejHGJRYCEKahuMOMdstZn9NN+qrsM72k74iNvrvWnOmpgl6d7nV8qOZmrBavsf/c29hUscLrn/3n3hbbTjcsBSBsl2t3CoFHpm6a+J6X56331NotvN+6zgPia4WGJdCr04WFaA1LxNePGLeG7P0QERERERHR8ME1RGLEhQugVrftxNZTz6Cucx/ykmcjSWXAjZP/w6uN3WnB3qY3A/Zd0fIhisesQJLKgAxdgbiIaZOpBhm6AqQl5Pa7fijqN2hz+tTZfyecvU1vYWZ6KZRyjRjwAEBV6w4UpV2LBKW+33vuthnF6TO17btxSfr3xfdw67Q/ebU93V0ZMCwiIiIiIiKikYkjRKLIPfVDygd1G7D/3NvitBdACBiaTDUoO/GY1+4yfaeb9J1uAwDftO4Qvy8eUwoA+Kj+aTSZasQRGb32LtR17hOvFWi6SaD6R6mFtUlaeuv9tnEfU8o14rSZnY0vYv+5t9FtM4rtum1G1HXuwytVd3id/+faB1DXuQ+99i7xtXbLWew/9zbe+/YRyfqIiIiIiIho5JK5XC6X34NlK/ye6Cod2oiCvjZV+L8OEQ3cUEb8ROq+JwqrnbJoV0A0/Czy+7+MREREcYkjRIiIiIiIiIhoxGEgQkREREREREQjDgMRIiIiIiIiIhpxGIgQERERERER0YgTE4FIoio12iUQDRuJqtHRLoGIiIiIiCjmxUQgopQnRLsEomFDKddEuwQiIiIiIqKYFxOBSI5+ZrRLIBo2eD9JO9bVgP+u+yjaZcSV/677CMe6GqJdBhERERFRSMVEIDIpZV60SyAaNng/+XesqwFX7nkITZb2aJcSV5os7bhyz0MMRYiIiIhoWImJQCQrsRDTDUujXQZR3JtuWIqsxMJolxGTPms5gp9W/g/DkEEYpUpEk6Udt3/9HD4+fyja5RARERERhURMBCIymRzTRy9FunZitEshilvp2omYPnopZLKYuK1jymctR/Bo9RZ81nIk2qXEtS9aq/Fo9RZsbf462qUQEREREQ1ZzDw5jdXl4+K0q6JdBlHcujjtKozV5Ue7jJjDMCS0vmitxm+ObcbW8wxFiIiIiCi+KaNdQF/TRy+Dy+XCEeNWNJtPRLscoriQrp2Ii9OuwvTRy6JdSsxhGBIe7pEiALBszCVRroaIiIiIaHBiKhABgIsMVyFdOwlHW7fiqHFbtMshimnTDUsxffQyjNVNjnYpMYdhSHh93noMj1ZvgUwmw9L0GdEuh4iIiIhowGIuEAGAsbrJGKubjIJRJahp34WG7iPotXfC4uiJdmlEUaVRJCJBmYzspItQMKoE2UkXRbukmMQwJDI+bz2G3xzbDAAMRYiIiIgo7sRkIOKWnXQRH/iIaEAYhkSWe6QIXMDSMQxFiIiIiCh+xMyiqkREQ8UwJDr2GL/Bo9VbsL25ItqlEBEREREFjYEIEQ0LDEOia0/rN/jNsc0MRYiIiIgobsT0lBkiomAc62rA6gO/R5OlPaj29eZmBicDUNF5Mqh2e1qP4ZavnsGn8x/HVH12mKsiIiIiIhoaBiJEFNfcI0OCDUMA4NVTn+DVU5+EsaqRq8nSjjsrnsdvpqzC4vSiaJdDREREROQXp8wQUdziNJnYtNsoTJ/Z0VwZ7VKIiIiIiPxiIEJEcYlhSGzb3SostMpQhIiIiIhiFQMRIoo7DEPiQ7mxCo9Wb8EnLYejXQoRERERUT8MRIgorjAMiS/lxir85thmhiLD0cIeYJELKNoe7UqIiIiIBoWBCBHFDYYh8ancWIVHj23BJ80MRaImfSUw8wtPiLGwB5hVIbw+WHKd8DVhwuBrctezyAVc3gKkLPTdNiFHOO5uu7DHd9use7zf5yIXMLsGmLzJ+7ruY31fd0tZ6Dk+9fXBvTciIiKKC9xlhojiQiyFIa8X34ubxy8CAJTs/neUG6u8jm8quhNr864FAKw68Htsadzdr4+e5ZuhU2gAAJWdJzHj05/7vFbfdn3V9pzF5oZyPHzsLQBA2Zz1uD5jdsDa32/ah9IvNwRsF2q7jEfxaPUWyGTAlWkXR/z6I1r6SmDqy54AAxC+TywC8h4HmrdEpy71WO+aVAYg5xGgckn/tgX/Kxx3k+uApJlAR7nntamvA2Nv7n+uNh/IygfMtUDjRuG6br7CnKSZnu+VycG/HyIiIoo7HCFCRDEvlsIQAEhWacXvZ6bk9Ts+QZsmfj9Wk9Lv+KaiO71CjqLkXOTo0n1ey1cYAgD5iZl4aMoPsanozqDrjrZdxqP4zbHN+JTTZyIr51ee4OH4OmCnDPi6BDC+DzjN0a3NzdIgfE2Z5/t40iXCV5vR9/HcxzxhiNPkeZ87ZUD9457+iYiIiPpgIEJEMS3WwpBQKDEUAhBGhrg9MfXHkufU9pyFrGwFZGUr8Hj12zA5LACA2ycsBgCUfrlBPC4rW+HzPFnZiqiMDulr13cLrTIUiSDlaOGrpUEYIQEIIyuOlAIHZnjaTX3dMx2lr75TTPxNsZn6umdKy+UtA59q0v6Z8FWuE8KNvnIf84wO6f7a9/nj7vJ8f+x2z/sEgJMPA3vHe79GREREBAYiRBTDhmMYkqNLR1FyLgDgyZp30GAWfuN9RdpFQffx8LG3UNlZD8D/CJJYtrPl6LD7e41p7lEgmmzgojJhPQ5f3NND+k5jAbynmPT93k2bL4zOcIcWKoPw54GEIl37PaM/0kq9j7n/3FMJOC8IawAhpHFfu6cyelOAiIiIKO4wECGimDQcwxAAuH/yDQAAo7ULWxp3i+8vW2vAwu9GjowEO1uE6TPD7e83Jp3f7PnecD1wWZWw8Ki/BUwHo3OvMD2lapUwZQUARl8zsD5a/yF8TSzyhDYJOcKfAaClzPd5KQs83/ee9N2GiIiIyAcGIkQUk35+5OVh+bB8Q8YcAMJUFgD4U/1W8dj9k0t9nnOhTUV3Ym5qgVc/8Win8Sh+fuTlaJcx/J18WFhHwx1UyHVA8lzgkl2+d1kZKEsDcOi7tT+atwDdlcL3KsPAQpezf/J8n/uE91enSXgfvgx2lxsiIiIa8RiIEFFM+sNFtw9oGkk8WGgoRLZWGNq/7bywFkK5sUqcNjN/9DS/5+YnZsJV+i5cpe+KO9g0mI1Y+vkjYa46fBYZpuMPF90e7TJGhpMPA/sLgcbnvBcmzVorbFU7FBcuzGo77/m+744tgXSUexY/HXWF8NU9ysQdsvhi7wz+GkRERER9MBAhoph0RdpFeGTKymEVirhHgJgcFnG7XACo7m4EABjUeqzMWuDz3AuZHBbcf/RV1JuaQ19oBCxKm47fTF01rP5+Y15vPXD8buDzNGGHGbfUxdGr6ULuxVU12cLoFffaIA3P+D+na7/n+4Tc8NVGREREww4DESKKWcMtFHGPANEpNOJoD1fpu1icXiS2uXfS932e694tZt3hl2ByWKBTaPDHojV+t+uNZYvSpg+rv9e41LZD+njfqS7afOm2cq33n1VjPN93HxpYXSd/7fk+a63w1WaUXii1caNnOlBiUeBpOtZzvmt16/t+e09J90VERERxjYEIEcW0WAxFOm2eKQL5SeP6HR+jGSV+f6ijDgCwMmsBDGp9wL6Lkv3sAPKdjSc+xPbmCgDCiJKNF98RVM2xosRQiEemrMSVaRdHu5SRY2GPsOOLOyhIyAHGrPYcd4cjfR/+c76bipX7GJAZYFqTJltYpBUQpt8kzxW+tzQI02AGorde2CmmL39b7fbVtt3z/bQ3vacB5T4GzK7xvNa8xTNtKHmu8LNxL+La9/06TUDD0wOrn4iIiOKKMtoFEBEF0jcMiYWFVv9UvxU3j18EALh9wmK0Wbvx8LG3kKNLxxNTf+y14Gm5sQoAcGfOUvH83G1r+k112X75o1icXgSdQoPHpq72mlJzoXsOv4Ql6TOgU2gk1x2JNSUGYZrMlTEUbo0Icp2wDe7Ym/sf69wrjLAAhIf/zNuF9qmLgUUu4XX36At/LA1CsOBu79b0yuDqbd/1/7d371FR3ve+xz/qIIPMKAgoAyoqCESMGjSpNl5y0e5kqzWmuZk2l5OYrr2TdsXWrNNjmmiSZtfdnlrjapKeVTUnl9Oapk2MLTbZjWniJStmB4zaYBSkigoDFQRlENBRzh/j8zgDzHAbZhh4v9ZyrYf5Pb/n+c7DGtaar9/f93dlZxlJKn22/TlfLpam7/fMix4lZaz3/POn+DEp+5XAz8b5iidBAwAA+iwqRABEhN5UKbKr+qBePPoXSZ7lL09n3aXmxVt0bP5vzETJuYtNevqr35lzZg7PkiQdOHuszb4fG0o/MI8XO64LeP/Sc6f06enDkjxVIr+a/Ej33lAIzEnIuVwZEv7fX79T+hNP1YV3YqOh2NNg1dgdRvJ8+T/0kGdM8px/do+nGasx13u5ifFayROeniTGz00nPff0tyuMwfta3scnf3HlWg3FvlUm3lUs3nMkKX+K5z0Z8bd8r0biR/JUiRy4xfP+vJvMXqj2vHbwHk+/FQAA0KdRIQIgYvSmSpHvH9igYle5Hk6bp4xYh4YMipbk2fnlsKtMD+970Ux83J06yxzfeblipKXfl+3WS5O/q4TBdmXEOszXjX4h1efrfM5/9vDvNXN4loYMita/jGi9k0f1+TolDLar4WJTUN5vd8xOmKjV2XfrJpbJhMexVe0nJwynft92v45dsYFfC9TjI9C9drQxr7G07ftJniRFoERFZ5IYZ3b5JoQAAEC/M6C5ubnZ7+DWJX4nNi/e0iMBAQivSPjcf1z1pZ49/PuwJ0XQvtkJE/VM9j2hT4bsGBDa+wH9QctlUQAARLheWyFypsmpo2fzdbzuC9Wer5DrfJUuNl8Id1hAWAwaEKXYqHjFR6cqJTZHE+K+rmHRjvYn9lG9qVIE/s2+3ECVyhAAAAD0Rr0uIXLS9XcV1exS0ZldunCxMdzhAL3CxeYLOnv+nzp7/p8qrftCn1W+qaz42ZoQN1tp9tbLJfoDkiK926zhV2l11t0+WwoDAAAAvUmvSogcqPqLCv65Ra4LVeEOBejVLjW79dXpj3Ts7F5NG7FE1yQtDndIYUFSpHealUAyBAAAAL1fr0mI7Dv1Z+0qfyXcYQARpcF9RrvLX1Wj+6xmOu4LdzhhcUPiJCVHx+nGT55WRVNth+Y8OOYmPTD6xh6OrO947cRHevX43zp0bnJ0nDZMeVTZ9lE9HBUAAADQPb0iIXKg6i/6tOK34Q4DiFh7T23VkKh4TUlcGO5QwiLbPkqbp6/ocKPVtJikXrF9b6TYd+Zoh867fni2nsm+h2QIAAAAIkLYEyJnmpzaVf6KLjVfDHcoQMS61HxRu8tf1Vj7tH7bbJXlM+F1/fCr9Ez23ZqXNCXcoQAAAAAdEvaESMGpLSRDgCC41HxRBae26KZRj4Y7lLAhKRIe1ydcpdWZJEMAAAAQWcKaEDnT5FRh9QfhDAHoUwqrP9C0pCX9tkpEIikSal8fnq3VWXdrPskQAAAARJiwJkRKznwWztsDfVLJmc+UO+K2cIcRViRFQuPrl3uGkAwBAABAJAprQuSk60A4bw/0SSddB/p9QkQiKdLTqAwBAABApAtrQsR14XQ4bw/0SXyuriAp0jNmxmdpddbd+saIqeEOBQAAAOiysCZEapvKw3l7oE/ic+WLpEhwzRyepWey79E3kkiGAAAAILKFNSFysflCOG8P9El8rlojKRIcM4dfrgwhGQIAAIA+IOzb7gJAKNyQOEnJ0XG68ZOnwx1KxKm9UK/k6Di9MvV7yraPCnc4AAAAQFAMDHcAABAq2fZR+uj6nyg5Oi7coUSU5Og4fXT9T0iGAAAAoE+hQgRAv5JtH8UX+076t3G3hDsEAAAAIOhIiMC0NGudEq1jJUnuS03afuJFFdfubnXelMQFmpgwT3GDHbIMjDbPd104rcpzRfrr8RdCGjcAAAAAAJ1FQgSSpBnJS81kiCRZBkZriGWYzzn2wUm6bfyzivtcC2cAAB7JSURBVIt2tJpvGRituGiH4qIdqjxXrP1V23o8ZgAAAAAAuoqECGQfnKSrE26VJLkuVMsWldDmed7JkKrGY8qvfNusIEmJnagJcdcrM252aIIGAAAAAKAbSIhAc1OXyWqxq7bJqZqmE20mROamPmImQyrOFekPxT/yGS+vP6jy+oPaUbYhJDEDAAAAANAd7DLTz6XETtS4oddJkvZU/M7/ebaJ5vH7pb/o8bgAAAAAAOhJJET6uZtHf0+Sp+qjrQaqhrjBnuqQ2ian6s6fCklsAAAAAAD0FJbM9GPGMhj3paZ2qz6M3WS8TUlcoDmpy1q9/n7p2oDJFQAAAAAAwo0KkX7MaIB6wrU/qFUfLXenAQAAAACgt6FCpB+zWuySpHFDr9P3p2xpNT4ndZkmJszT5sM/UG2T09xW1z44SXXnT2l/1TZze92F41aavUgAAAAAAOjtqBBBh1SeKzKPjb4jAAAAAABEKipE+rFf7V/S6jXvSo+dZRvNCpBPK36rNHuurBa7Rtsma2nWOuVXvm32ComxxIUucAAAAAAAuomECDqk7vwpfVz2G81KeVC2qAQlWsfqlrQVuiVtRbhDAwAAAACg00iIwEfd+Srz+Jz7jM9Yce1uFdfu1tzURzTGfo1sUcPN3Wca3XVyuatV3VBqVpUAAAAAANBbkRCBjx1lG7SjbEO75wAAAAAAEMloqgoAAAAAAPodEiIAAAAAAKDfISECAAAAAAD6HRIiAAAAAACg3yEhAgAAAAAA+h0SIgAAAAAAoN8hIQIAAAAAAPodEiIAgL4ndnK4IwD6Fj5TAIA+iIQIAKDvic0JdwRA32KbFO4IAAAIOhIiAIC+h//NBoIr9ppwRwAAQNCREAEA9D1Jd0rxN4c7CqBviL9ZSlwS7igAAAg6EiIAgL4nJl0a81S4owAi3wCLNPZ5z2cKAIA+xhLuACLd3NRHNDnxXyVJ7ktN2n7iRRXX7vY559+vflOWgdE6UPUX7SjbIEn6xpjlyoqf6/e675eu9blOSuxEXZd8t+KjU2WLSjDv57pwWsfrvjCvK0lTEhdoTuoySdLhmh366/EXfK69NGudEq1jJUk7yzZqf9W2Nsdrm5x649Cjbb4XSapqPKbNh3/QaqzRXac3i1eo7vwpc8z7/Xo/h5bunPAzJQ/JlCS5LlTrj0dW+lxnQtws3ZK2QpL09pEfq7z+YKv31NLRs/+tvKNrzJ/tg5N08+jvKck6TlaLXZLU6K6T89xX2lG20ed+ACJY3A3SxLck50ap5q/hjgaIPPE3S47vSkNnhDsSAAB6BBUi3WQfnGgeWwZGa0byva3OMRII3ucOHhTT4XvMTX1Ei8ev0mjbZDMZYlw3LtqhyYn/qvuyXzZfP9Vw1DxOiElrdb24wQ7zeNyw61qNG4mFxot1reIw3otxnn1wkvnzCdd+SZLVYldu0m0+c9PsuZI8SZy9p971+16tg+zmsS0qQXMvJ3YMQyzDzOOkmHHmsWVAtDrCPjhJd2Ss0WjbZDMZYsQ8buh1um38sx26DoAIkXSnNGmrlL5OSrpDiskId0RA7xY9Skq8TRr/v6VJeVLSXeGOCACAHkOFSJC4LlTLOsimuGiHJsTNalUlEkhbVRqGlNiJmjj8ZlkGRst9qUkHT39oVldMSVyg3BFLZItKUFy0QwvHrVTe0TUqrz8o14Vqz+teyQ/JU2HhndSIj071GZ+SuMA8PlG3zzcW20RJnsoQI2kyM/nbZgXKjrKNGm2bIsvAaGXGzTbjnJv6iJl8OHj6ww5VYNQ2ORUX7dBo25R2z/XWshqkpdyk28ykknGufXCSbhv/rOKiHYqLdvidCyBCDbRKo5ZLWh7uSAAAANCLUCESJO5L51XVWCpJmpq0KGjXvT7lATOB8cWprT5LTfZXbdN/lf7S/Nk7eVDTVCbJU0UyIW6W+fq4odN9rm+LSvCp8hhtv7IzQ+Hp7eaxfXCSmQTJr3xbrgvVkqRUr2346s6f8qkSmZv6iCQpM262JM+yFH9LZVqqaTqhRnedLAOjzesEg3eVzo6yjWbcNU0ngnYPAAAAAEDvR0IkiD4pf02SlDwkUymxE4NyzUSrZ8mL+1KT9lRsbjVeXn9QVY3HJHmSH0aFR0X9IfMc7ySIsYTGSGhIUs7weeZxfPRoc9y7ksNYAtPorlNx7W6Vub6U5EmoeL/XHWUb5b7UJEkaP+xrmpK4wKwOKard1an3bpxvJFSC4UTdAfP4lrQnZB+cpJTYiXIMuUqSpzIFAAAAAND3kRAJElvUcJXXH1TFuSJJnsqOjpqTukzfn7LF/Ldw3EpJnuUyRnWI68Jpv/Przv+z1WveyRPvPiLGEpqvTn9oJi6SY7N93ocknWoo8bne+GFfkyTVnvckDL6svtKgMHfEYq9YrlSJ2KISlDvCs01fZ6pDJMk+eIR2lG1Qo7vOp9qkPeOGXmc+x0dyXtfCcSt9KmD2V20zf0fJQzL1naxfafH4VbJa7Kptcurdf6zucIwAAAAAgMhFQiRIjMSFd5WI9xfxrvBuGtoVRrWDzeLpmeHdP6Tw9HYzuZFkHddq3LuSIiV2otl3w+grYvQpkWRWVxjyjq5Ro9vTkNWY19nqEKNJqjHPSMh0htEo9Y4M354ifyj+kZkUsQyMNt9zTdMJdpgBAAAAgH6CpqpBZlSJJA/J1NzUZQEbfBr8NVU95z7TrVgqzxUpLtohq8WulNiJ5tIZYzlMdUOpEq1jW427LzX5xGNUgLRctlPTVCZbVIKsFnurRrJFtbvM7Yg7Wx3ibUfZBmXGzZYtKsGn4WtLLbcHnpG8VNckLZZlYLQ5d3/VNnOXGVtUgtyXmuQ8d1j2qCTFRTs0buh1ui/75VbXAgAAAAD0PVSI9ACjSqSzO6S05J1gsA6y+T3P6Psh+W65e/Rsvnk8Ie56c+mM0XDV37hROWIwKkAsA6N9lvaMtl1pwNqykWxtU7l57Dz3ld/YO8KoEpmYMK+dM6/YU7HZXLojXWkWe0vaE2YyZPuJF/VuyWq9cehRs2IkLtoR1CauAAAAAIDeiYRIDzCqRIKxQ4qxLMVqsbdZITEhbpa5VWyju07l9QfNseLa3WafkBFDMsz+IUbDVX/j1Q2lPtc3mqIGYjR/7QlGL5FE61jFRad0eJ5loNU8rjtfJUmyDvK8F9eF074VLTU7zWPvnWgAAAAAAH0TCZEeYlSJdKX3hbevTn9oHn/dcZ9mJC81f56RvFQ3pH7X/Pnv1e+1mm9UeyRa03z6hwQa926YmpMw3zx+9avv6lf7l/j8O+Hy9BqxDIz2iS3YAvUSmZK4QPdlv9zq2TiGZEnyLPXZe+pdnzm2qOFmgsk+OEmZ8XPMMSN5AgAAAADou+gh0kO8e4m0Z07qMs1JXebzmtFXZE/FZo22T1XykExZBkbr2pF36dqRd7W6xoGqv7S9La/roBKtY712q/HdTrfleMsqEyOpUNV4rM2Go4XVH5hLZ8YNu67NGILBu5dIS+fcZxQX7fD7bA6e/tCMvbh2l64deZcsA6PbfO6uC9Vd7ncCAAAAAIgcVIh00/mLDZJk7qri7ZPy13xeP1yzq9W8jvhD8Y+0s2yjqhqPmUtcjHtWnCvSzrKNfr/EF9d+4jPH6B/ib9y734f3rjPlroNqS3HtbvM9GktuJN9eJp15r+5mTyyNF1s/z79Xv2fG6t34tbh2t/l8zOtcalJV47FWz2ZPxWZ9XvmWz7mSJxFy9Ox/649HVnY4VgAAAABA5BrQ3Nzc7Hdw6xK/E5sXb+n2zX+13//1AXTd96d0/fPZ0597AAAAAOgNAlaIDBrgf9jdfDHowQAIr0Cf60B/DwAAAAAg0gT8hmO3xPgdc7kbgx4MgPAK9LkO9PcAAAAAACJNlxMide6O94XwZ9CAqG5fA4Cv7nyuAn2uSYgAAAAA6EsCJkRsg6x+x4KREImLdrR/EoBO6c7nKtDn2mbx//cAAAAAACJN4AqRKP//I1za0HoL1s5qawtVAN3Tnc9VoM81FSIAAAAA+pKACZEsW6rfscN1ZX7HOiolNqfb1wDgK9U2qctzA32uA/09AAAAAIBIEzAhkhmb4nesyFXe7ZunD/tat68BwFfGsJldnhvocx3o7wEAAAAARJrAFSJ2//8jfODssW7fPN46SlcNv7Hb1wHgcdXwGzWsGz1EAn2uA/09AAAAAIBI0+UKkU9OH9LJhupuBzAlcZEGDhjU7esA/d3AAYM0JXFRl+efbKjWJ6cP+R2nQgQAAABAXxIwITJl2FiNiUn0O55Xmd/tAJJixmlm8nc0QAO6fS2gP5uZ/G0lxYzr8vxtAT7PY2ISNWXY2C5fGwAAAAB6m4AJEUlamHyt37FAX6A6I3fEbZo2YklQrgX0R1OTFim3m5+hQAnOQH8HAAAAACASdSAhMt3vWF5FvuovNgUlkJmO+zQ75SHZB/uvSAHga4hlmK5PuV+zUh7s1nXqLzYpryJAQmSk/78DAAAAABCJLO2dcOuIXA21DNFZ97k2x/MqPtfdqbOCEszUpEVKjBmroppdKqrdpQuXGoNyXaCvGTjAoqz42ZoQN1tp9mu6fb28is/9jg21DNGtI3O7fQ8AAAAA6E3aTYhI0oKR07S5bFebY3kV+UFLiEjSKNvVGmW7WtNGLNHRs/k6XveFas9XyHW+ShebLwTtPkAkGTQgSrFR8YqPTlVKbI4mxH29W7vJtBSwOiRAlRgAAAAARKoBzc3Nze2d9LuTO/XtgnV+x7+8ab1y7GOCGhiA0CisO65Jf3vc7/hvp/1A946aE8KIAAAAAKDntdtDRGq/oeKaoneCEgyA0Gvv80tDVQAAAAB9UYcSIkMtMVoU4EvRb0/u0M7qwqAFBSA0dlYX6rcnd/gdX5R8rYZaYkIYEQAAAACERocSIpK0csK3Ao6vKaZKBIg07X1u2/vcAwAAAECk6nBCZObwLD045ia/4+9X7tUW556gBAWg521x7tH7lXv9jj845ibNHJ4VwogAAAAAIHQ6nBCRqBIB+hKqQwAAAAD0Z51KiGTaUrQiY7Hf8c9rivXYgd90OygAPeuxA7/R5zXFfsdXZCxWpi0lhBEBAAAAQGh1KiEiSU9m3iHbIKvf8ZePvqe1R7Z2KygAPWftka16+eh7fsdtg6x6MvOOEEYEAAAAAKHX6YTI8Chbu1+Wnih8Ve86P+tyUAB6xrvOz/RE4asBz3ky6w4Nj7KFKCIAAAAACI8Bzc3NzV2ZmPXhYypylfsdt1titHv2TzV56NguBwcgeA6cPaZZu55UnbvB7zmZthQdvvmlEEYFAAAAAOHR6QoRw+u5j2vQAP/T69wNur9gvf55/mxXbwEgSP55/qzuL1gfMBkyaMBAvZ77eAijAgAAAIDw6XJC5GvxmXpj2vKA5+w/e0zf+GS1Dpw91tXbAOimA5c/h/vb+Ry+MW25vhafGaKoAAAAACC8upwQkaSlqbP1k+x7A56z/3KZPj1FgNB71/mZZu16st1kyE+y79XS1NkhigoAAAAAwq/LPUS8PfTFi/q/xz9s97xf5DwYcNteAMGz9sjWdhuoStL/GHOzXrnmeyGICAAAAAB6j6AkRCRp7u4fa2f1wXbPe3TcrXpp8neDcUsAfjx24DcBt9Y1zEmYqB2z/iMEEQEAAABA7xK0hMjxhlO6fudKnWysbvfca+MnaOWE27XEMSMYtwZw2RbnHq0pfkef1xS3e+4oa4I+mbNGY2KSQhAZAAAAAPQuQUuISJ6kyH0FL3SoUkSSbhmZq5UTbtechJxghQD0SzurC7Wm+B29X7m3Q+fPSZioN6YtJxkCAAAAoN8KakLE0NGeIoZvj5qrlZm3K8c+JtihAH1aYd1xrSl6R789uaPDc+gZAgAAAAA9lBCRpOcP/0FPH/pdp+Z8Z9RcLUyeroXJ1yp2UHRPhAVEvPqLTcqr+Fx5Ffn6f51IhEie3WSeyrqzhyIDAAAAgMjRYwkRSdpctkv3Fbygi82XOj13YfJ0LRw5XQtGTteomIQeiA6IHCcbqpVXma9tlfnKq8jv9PxBAwbqjWnL2VoXAAAAAC7r0YSIJH1WU6T7965Xkau8y9e4fni2Jg8dq0xbirLsqUqLSZLdEiO7JUY2i1WWAYOCGDEQeu7mi3K5G1XnblCdu0GlDad0uK5MRa5yHTh7TJ+cPtTla2faUvR67uP6WnxmECMGAAAAgMjW4wkRw5rit/XTw3+U62JjKG4H9Hu2QVY9mXmHVmZ+K9yhAAAAAECvE7KEiCSdvuDST4v+qLVHtobqlkC/tCJjsZ7MvEPDo2zhDgUAAAAAeqWQJkQMRa5yrSl+W68e/1uobw30aQ+OuUkrJ3xLmbaUcIcCAAAAAL1aWBIihk9PH9aa4rf154rPwxUC0CcsSr5WKyd8SzOHZ4U7FAAAAACICGFNiBjOuhuUV/G5tlUWKK8iX2fd58IdEtCrDbUM0YKR08xtqodaYsIdEgAAAABElF6REGnpvcq9yqvMV17F5zreUBXucIBeYUxMohYmX6uFydN164jccIcDAAAAABGtVyZEvO0/c0xF9eWeLUjry3XYVaY6d4PPFqUXmy+FO0ygWwYNGHhlK+lBVtmjYpRlS1VmrGer6czYFE0ZNjbcYQIAAABAn9HrEyIAAAAAAADBNjDcAQAAAAAAAIQaCREAAAAAANDvkBABAAAAAAD9DgkRAAAAAADQ75AQAQAAAAAA/Q4JEQAAAAAA0O+QEAEAAAAAAP0OCREAAAAAANDvkBABAAAAAAD9jiXcAQTTO849+kPZJ8qvLdGReqf5eu6w8cq0pejfx92iOQk5YYywfxuwdYkkaVnafG2Y+mhYYympr9Djf9+ovBlP+bz+yL6XtbH0A0lS8+It4QgNAAAAABACfSIhUlJfoYe+eFE7qwvbHN975h/ae+YferNst5anL9K6SQ+FOEL0Ju849+iBvevlcjeGOxQAAAAAQJhEfEJkZ3Wh7slfK2djjSRpwchpWuKYoYfT5knyJEteP/GRNpR+IGdjjV4o+bMqGmu0efqKcIaNMKo57yIZAgAAAAD93IDm5ubmcAfRHRO2P6oj9U7ZLFa9MOlhMxHSUkl9hW759DlzKc3GqY/5PRd926bS7Vq27yVJLIsBAAAAgP4qopuqPrLvZTPB8UzWPQETHOmxydp0zWOyWaySpJePvheSGAEAAAAAQO8T0UtmtlXmS5IyYh1akbG43fPnJORobkKOnI01yrSltHnOzupC/fro+9pRXWguw8mIdWh6XLqev+rbSo9NbjXHaBa6cepjmmBz6OfFW7SjulAud6NsFqvmJuRo/dXLlB6brJL6Cv1n8TvaVplvXn9OQo4eT1+o2x0zfK477eMV2nvmH1qWNl//a8Lt7c5bfWizfndyl5kkyoh16N/G/kurZ+N9XX/NTf2d015MucPGa2HydD2bvdTvc/J3302l27XFucd8du1dz3vO3jP/MGMINM+IwV9M7TVVLamv0ItH/6K8inzzOTus8codNl4Ppc1r9Tvs7jMDAAAAAPSMiE2IbCrdbn6hXJg8vcPzWu4q4m31oc36ZcmfWvWXOFLv1JF6p/Iq8/Va7uNtfumVpD01RVr+5Saf+S53o7ZVFuiwq1zvz1zls2zHsLO6UHvPlChxhr3NXXBc7gbN3v2kzxf+lvN+XrxF2yoLWsX9ROGrktShhFFnuNwNbb4Xo4FtQW1JwGfd0tL8tXqzbHer1wNdz9+c7sQRyDvOPfregd+0+j04G2u0rbFA2yoLtCrrLr+JjWA/MwAAAABA10Xskpk9NUXm8ST7mG5fb1Ppdj13+C253I3KiHXoFzkPqnnxFjUv3qJf5DwohzVeLnejHti7Xu8497R5DaOywJh7ZN6vtWDkNEme5MTs3U+qoqlGy9MX6ci8X6t58RYtT18kyZM4+Xlx2/0s3izbLWej/3n35K/VtsoC3ZM6SztmPa/mxVu0ceqV5UFrS7Z2+/m0FdOReqeWpc03Y3r7uh8pI9YhSdpWWeD3ObW0+tBmM7GRO2y83r7uR+bzW5Y237zeI/teNuesPbLVnLNg5DTzfRu/L+84NpVuN+cZz8b75+bFW9rdBrikvkIP7F0vZ2ONbBarVmXd5fO+c4eNlyQ9d/gtrT60ucefGQAAAACgeyI2IeItGM1Rnz70O0me5Q/vz1zlU1GxImOxds36qWwWq1zuRv3H4T/4vc5ruY+bc9Njk5U34yk5rPGSPJUEP0z/ptZNeshcerNu0kO6J3WWJE+lgD/GdsHe84xki7OxRgtGTtPm6SvMCpOH0+bpmax7zHF/WxJ3x/L0Rdow9VEzptsdM/T+zFXm+HuVezt0nV+W/EmSJxlScMNaswInPTZZG6Y+ar7PN8t2mXP+z7H/MufkzXjKp7JmRcZinzi8k2dd9fjfN5qVP6/lPq5ns5f6vO+CG9aaSZFflvxJJfUVbV4nWM8MAAAAANA9EZsQ2VtbErRrvePcYy6DeCRtfpt9QtJjk/XD9G967n3mH20mGOYk5LS5nMYR7UmI2CzWNpdT2CwxktRqKcaVcavWTXqo9XWtw83jh9pICsVFxZrHxS5nq/Hu8BdTemyymRhwNp5u9zprj2w1Ew0/zrqzzXP+54QlslmsyoxNMSsohlpiZLNYde+oOW3O8Y4jGHZc/n0vGDnN75KpdVd7nofL3ajXT3zUajxYzwwAAAAA0H0RmxAxkgjB4P2/8oEaW96cNNk8/vDUgVbj/hq1muOxbY/PiM/s0jxvbX1J78lthTsSk78Ej7dDrjJJnmSBv0TDnIQc1S3Y7FM9UnDDWtUt2Nyh3ijdTTJsKt1uJm2W+InRiNOoBipoI2EXrGcGAAAAAOi+iG2qmmlLCfoyEOPLrD/eyzLK+eIaFEWuckkdSxa0Z1PpdtVeqNchV5k+rvrSbF4azCTDBJsj4LgjOl7OxhoSGwAAAADQy0VsQsRoGCp5vggHoxrCWNqC0HG5G7o8d1Ppdr1+4mPtPVPSamegntLWLkAAAAAAgMgTsUtmZidMNI+/rDve4XmbSrdrwvZHtTR/basdPZxN/K9+qHV16dPqQ5u1bN9L2lldaCZDcoeN15yEHC1Lm++z80sw9URzWgAAAABA6EVshcjtjhlyWD3LE/Iq8ttsVtmWLc49OlLv1JF6p+5Mvd5nrL1lDt5fhlPaWV4TCQJVZ4QqOWQsfSqqLw94nn3bUiVHx+veUbN1c9JkPXf4LUlSRqxDP8u5v83+I4F2A+qqYpczYJWI8dzaW34FAAAAAAiviK0QkTw7wkjSkXqn1h7Z2u75O6sLzd1CcoeNN79E3zoy1zxn9aHNfudvcX5mHns3WI1URv+OlkrqK0LWAyPblirJszNLy4odg1EFcqTeqTExSXrjxA5z7P2Zq/w2Yw20jXFnPJw2z1yitcVPjJLvbkXT4tKDcm8AAAAAQM+I6ITIs9lLlRHraXL5zOE3tal0u99zS+or9PAXL5nLKx4dd6s5ZlSbSNKG0g9UUl/R5vyNpR9IurI0I1IZ77WovrzN9/qfxe+ELJYVGYvNZMP6krw2z3n6K0+SymGN73CvmIV7ng9OgJfNvfz73lZZ4DdxY1Sk2CxW3T/6xqDeHwAAAAAQXBGdEJGkn+XcL5vFKpe7Ucv2vaSFe573SYzsrC7UD758RVM//oG568iqrLtafbH+Sfa9kjzLZm759DmfipO1R7Zq9u4nzWTKj7Pu7Om31aNuTLxakqcq46EvXjSXAu2sLtTCPc9rY+kHPk1re9oP079p3n/u7qfMhMPO6kItzV9rxrci3bPFrvc2xbd8+pxPgmJT6XbN3f2UtlUWdOjeP/jylQ6dt/7qZeYzeWDveq0+tNlMJr3j3KNpH68wK1KWpc1Xemxyh64LAAAAAAiPiO0hYrjdMUPKlX5U+LqO1Du1rbJA2yoLtGzfS63OtVms+mH6N/Vs9tJWYw+nzdPxhlN67vBbOlLv1BOFr+qJwldbzX8m6x6/SzQixYqMxfqo6u/aVllgJiG85Q4br9y4dLMipqc9m71URa5yvVm2WzurC9tsXHpP6iytyPAkRB5Om6ctzj3aVlmgI/VOfeu/f9bq/Nxh45VpS9GbZbt1tkWvlIfT5mn5l5vkcjfqhZI/64WSP2tZ2nxtmPqo3xjTY5P1Wu7jemDverncjXru8FtmHxNvy9Lmd7ifDQAAAAAgfCK+QkTyJEWK572sVVl3acHIaa0aWuYOG6/l6Yu074Z1bSZDDM9mL9WOWc+3ukZGrEPL0uZr3w3rzC/lkS5vxlNalXWXueRI8rzPVVl3qeCGtSGPZ/P0Fdo49THNScjxqU6Zk5CjjVMf0+bpK3zObyt+m8Vqnl9ww1pNj8uQ5Okx0zLJ8lru4z5z99aWtBvj7Y4Z2nfDOi1Lm+8z12GN14KR07Rj1vMBkyoAAAAAgN5jQHNzc3O4gwAAAAAAAAilPlEhAgAAAAAA0BkkRAAAAAAAQL9DQgQAAAAAAPQ7JEQAAAAAAEC/Q0IEAAAAAAD0O/8fI+aKw53Zbj8AAAAASUVORK5CYII=;" parent="1" vertex="1">
          <mxGeometry x="200" y="160" width="1092" height="798" as="geometry" />
        </mxCell>
      </root>
    </mxGraphModel>
  </diagram>
  <diagram id="TyATBk7Z75otYIbRtk9_" name="Flowchart">
    <mxGraphModel dx="1434" dy="836" grid="1" gridSize="10" guides="1" tooltips="1" connect="1" arrows="1" fold="1" page="1" pageScale="1" pageWidth="2336" pageHeight="1654" math="0" shadow="0">
      <root>
        <mxCell id="0" />
        <mxCell id="1" parent="0" />
        <mxCell id="4bnjt6XQkO0VnSpWKDeV-6" style="edgeStyle=orthogonalEdgeStyle;rounded=0;orthogonalLoop=1;jettySize=auto;html=1;exitX=0.5;exitY=1;exitDx=0;exitDy=0;exitPerimeter=0;entryX=0.5;entryY=0;entryDx=0;entryDy=0;" parent="1" source="4bnjt6XQkO0VnSpWKDeV-1" target="4bnjt6XQkO0VnSpWKDeV-5" edge="1">
          <mxGeometry relative="1" as="geometry" />
        </mxCell>
        <mxCell id="4bnjt6XQkO0VnSpWKDeV-1" value="&lt;font style=&quot;font-size: 24px;&quot;&gt;START&lt;/font&gt;" style="strokeWidth=2;html=1;shape=mxgraph.flowchart.terminator;whiteSpace=wrap;fontStyle=1" parent="1" vertex="1">
          <mxGeometry x="470" y="200" width="100" height="60" as="geometry" />
        </mxCell>
        <mxCell id="4bnjt6XQkO0VnSpWKDeV-9" style="edgeStyle=orthogonalEdgeStyle;rounded=0;orthogonalLoop=1;jettySize=auto;html=1;exitX=0.5;exitY=1;exitDx=0;exitDy=0;entryX=0.5;entryY=0;entryDx=0;entryDy=0;" parent="1" source="4bnjt6XQkO0VnSpWKDeV-5" target="4bnjt6XQkO0VnSpWKDeV-8" edge="1">
          <mxGeometry relative="1" as="geometry" />
        </mxCell>
        <mxCell id="4bnjt6XQkO0VnSpWKDeV-5" value="" style="rounded=0;whiteSpace=wrap;html=1;" parent="1" vertex="1">
          <mxGeometry x="360" y="310" width="320" height="210" as="geometry" />
        </mxCell>
        <mxCell id="4bnjt6XQkO0VnSpWKDeV-7" value="&lt;h1&gt;Khởi tạo&lt;/h1&gt;&lt;p&gt;- Khởi tạo IO&lt;/p&gt;&lt;p&gt;- Load EEPROM&lt;/p&gt;&lt;p&gt;&lt;br&gt;&lt;/p&gt;" style="text;html=1;strokeColor=none;fillColor=none;spacing=5;spacingTop=-20;whiteSpace=wrap;overflow=hidden;rounded=0;" parent="1" vertex="1">
          <mxGeometry x="370" y="320" width="300" height="190" as="geometry" />
        </mxCell>
        <mxCell id="4bnjt6XQkO0VnSpWKDeV-8" value="Bắt đầu RTOS" style="rounded=0;whiteSpace=wrap;html=1;" parent="1" vertex="1">
          <mxGeometry x="360" y="560" width="320" height="80" as="geometry" />
        </mxCell>
      </root>
    </mxGraphModel>
  </diagram>
  <diagram id="g-4YGhlOhr-742phr3MX" name="Task1: Read user BUT/SW">
    <mxGraphModel dx="1182" dy="478" grid="1" gridSize="10" guides="1" tooltips="1" connect="1" arrows="1" fold="1" page="1" pageScale="1" pageWidth="2336" pageHeight="1654" math="0" shadow="0">
      <root>
        <mxCell id="0" />
        <mxCell id="1" parent="0" />
        <mxCell id="f7Qyg8iMkPRq7yTjreDX-1" style="edgeStyle=orthogonalEdgeStyle;rounded=0;orthogonalLoop=1;jettySize=auto;html=1;exitX=0.5;exitY=1;exitDx=0;exitDy=0;exitPerimeter=0;entryX=0.5;entryY=0;entryDx=0;entryDy=0;" parent="1" source="f7Qyg8iMkPRq7yTjreDX-2" target="f7Qyg8iMkPRq7yTjreDX-4" edge="1">
          <mxGeometry relative="1" as="geometry" />
        </mxCell>
        <mxCell id="f7Qyg8iMkPRq7yTjreDX-2" value="&lt;font style=&quot;font-size: 24px;&quot;&gt;START&lt;/font&gt;" style="strokeWidth=2;html=1;shape=mxgraph.flowchart.terminator;whiteSpace=wrap;fontStyle=1" parent="1" vertex="1">
          <mxGeometry x="470" y="200" width="100" height="60" as="geometry" />
        </mxCell>
        <mxCell id="f2-qFdvXSumLm2rXWtgw-1" style="edgeStyle=orthogonalEdgeStyle;rounded=0;orthogonalLoop=1;jettySize=auto;html=1;exitX=0.5;exitY=1;exitDx=0;exitDy=0;entryX=0.5;entryY=0;entryDx=0;entryDy=0;" parent="1" source="f7Qyg8iMkPRq7yTjreDX-4" target="M40wl7IEQjMEHEJUxZyK-1" edge="1">
          <mxGeometry relative="1" as="geometry" />
        </mxCell>
        <mxCell id="f7Qyg8iMkPRq7yTjreDX-4" value="Đọc trạng thái cửa đang mở hay đóng.&lt;br&gt;Nếu đang đóng thì bỏ qua đọc nút.&lt;br&gt;Nếu đang mở thì thực hiện đọc nút.&lt;br&gt;&lt;br&gt;Đọc phím -&amp;gt; Record vào biến và cờ:&lt;br&gt;+ Trạng thái: đang click/vừa thả&lt;br&gt;+ Nhận biết: Click/double click/Long lick.&lt;br&gt;+ Chế độ: Đơn/Combo&amp;nbsp;" style="rounded=0;whiteSpace=wrap;html=1;align=left;" parent="1" vertex="1">
          <mxGeometry x="390" y="300" width="260" height="130" as="geometry" />
        </mxCell>
        <mxCell id="fImk5mdMS46aJWjkyjWk-1" style="edgeStyle=orthogonalEdgeStyle;rounded=0;orthogonalLoop=1;jettySize=auto;html=1;exitX=0.5;exitY=1;exitDx=0;exitDy=0;" parent="1" source="f7Qyg8iMkPRq7yTjreDX-4" target="f7Qyg8iMkPRq7yTjreDX-4" edge="1">
          <mxGeometry relative="1" as="geometry" />
        </mxCell>
        <mxCell id="f2-qFdvXSumLm2rXWtgw-2" style="edgeStyle=orthogonalEdgeStyle;rounded=0;orthogonalLoop=1;jettySize=auto;html=1;exitX=0.5;exitY=1;exitDx=0;exitDy=0;entryX=0;entryY=0.5;entryDx=0;entryDy=0;" parent="1" source="M40wl7IEQjMEHEJUxZyK-1" target="f7Qyg8iMkPRq7yTjreDX-4" edge="1">
          <mxGeometry relative="1" as="geometry">
            <Array as="points">
              <mxPoint x="520" y="620" />
              <mxPoint x="250" y="620" />
              <mxPoint x="250" y="365" />
            </Array>
          </mxGeometry>
        </mxCell>
        <mxCell id="M40wl7IEQjMEHEJUxZyK-1" value="Đọc công tắc swith bên ngoài và lưu vào biến." style="rounded=0;whiteSpace=wrap;html=1;align=left;" parent="1" vertex="1">
          <mxGeometry x="390" y="490" width="260" height="60" as="geometry" />
        </mxCell>
        <mxCell id="a59U0bAVff4DhSGodLPQ-1" style="edgeStyle=orthogonalEdgeStyle;rounded=0;orthogonalLoop=1;jettySize=auto;html=1;exitX=0.5;exitY=1;exitDx=0;exitDy=0;exitPerimeter=0;entryX=0.5;entryY=0;entryDx=0;entryDy=0;" parent="1" source="a59U0bAVff4DhSGodLPQ-2" target="a59U0bAVff4DhSGodLPQ-4" edge="1">
          <mxGeometry relative="1" as="geometry" />
        </mxCell>
        <mxCell id="a59U0bAVff4DhSGodLPQ-2" value="&lt;font style=&quot;font-size: 24px;&quot;&gt;START&lt;/font&gt;" style="strokeWidth=2;html=1;shape=mxgraph.flowchart.terminator;whiteSpace=wrap;fontStyle=1" parent="1" vertex="1">
          <mxGeometry x="1100" y="200" width="100" height="60" as="geometry" />
        </mxCell>
        <mxCell id="a59U0bAVff4DhSGodLPQ-4" value="+ Đọc SHT21 -&amp;gt; Upload GW. Lưu vào biến để hiển thị LCD.&lt;br&gt;+ Đọc Dòng áp -&amp;gt; Upload GW. Lưu vào biến để hiển thị LCD.&lt;br&gt;+ Nếu dòng áp vượt ngưỡng thì cảnh báo GW =&amp;gt; Tự động ngắt kênh nếu đang ở chế độ Auto.&lt;br&gt;+ Nếu đang ở chế độ Auto thì kiểm tra thời gian =&amp;gt; Đóng/mở kênh." style="rounded=0;whiteSpace=wrap;html=1;align=left;" parent="1" vertex="1">
          <mxGeometry x="1020" y="300" width="260" height="130" as="geometry" />
        </mxCell>
        <mxCell id="a59U0bAVff4DhSGodLPQ-5" style="edgeStyle=orthogonalEdgeStyle;rounded=0;orthogonalLoop=1;jettySize=auto;html=1;exitX=0.5;exitY=1;exitDx=0;exitDy=0;" parent="1" source="a59U0bAVff4DhSGodLPQ-4" target="a59U0bAVff4DhSGodLPQ-4" edge="1">
          <mxGeometry relative="1" as="geometry" />
        </mxCell>
        <mxCell id="iQtSJpEUxj89SkVjY6Vt-1" value="Task1: Read user&#39;s BUTTON/SW" style="text;whiteSpace=wrap;html=1;fontStyle=5;align=center;" parent="1" vertex="1">
          <mxGeometry x="420" y="160" width="200" height="20" as="geometry" />
        </mxCell>
        <mxCell id="MAoiZmStAVqRqaLET1gf-1" value="Task2: Internal control (loop low priority)" style="text;whiteSpace=wrap;html=1;fontStyle=5;align=center;" parent="1" vertex="1">
          <mxGeometry x="1027.5" y="160" width="245" height="20" as="geometry" />
        </mxCell>
        <mxCell id="pdk04ISYiKop8Z04Tely-1" style="edgeStyle=orthogonalEdgeStyle;rounded=0;orthogonalLoop=1;jettySize=auto;html=1;exitX=0.5;exitY=1;exitDx=0;exitDy=0;entryX=0;entryY=0.5;entryDx=0;entryDy=0;" parent="1" source="a59U0bAVff4DhSGodLPQ-4" target="a59U0bAVff4DhSGodLPQ-4" edge="1">
          <mxGeometry relative="1" as="geometry">
            <mxPoint x="980" y="340" as="targetPoint" />
            <Array as="points">
              <mxPoint x="1150" y="490" />
              <mxPoint x="930" y="490" />
              <mxPoint x="930" y="365" />
            </Array>
          </mxGeometry>
        </mxCell>
      </root>
    </mxGraphModel>
  </diagram>
  <diagram id="rrsxlqUUlq9YzBeQ2k4X" name="TaskMan">
    <mxGraphModel dx="2954" dy="1196" grid="1" gridSize="10" guides="1" tooltips="1" connect="1" arrows="1" fold="1" page="1" pageScale="1" pageWidth="2336" pageHeight="1654" math="0" shadow="0">
      <root>
        <mxCell id="0" />
        <mxCell id="1" parent="0" />
        <mxCell id="pSrx84dThhEPMeehNtha-1" value="" style="rounded=1;whiteSpace=wrap;html=1;absoluteArcSize=1;arcSize=14;strokeWidth=2;" parent="1" vertex="1">
          <mxGeometry x="200" y="170" width="270" height="170" as="geometry" />
        </mxCell>
        <mxCell id="pSrx84dThhEPMeehNtha-2" value="" style="rounded=1;whiteSpace=wrap;html=1;absoluteArcSize=1;arcSize=14;strokeWidth=2;align=left;verticalAlign=top;" parent="1" vertex="1">
          <mxGeometry x="540" y="170" width="270" height="170" as="geometry" />
        </mxCell>
        <mxCell id="pSrx84dThhEPMeehNtha-3" value="" style="rounded=1;whiteSpace=wrap;html=1;absoluteArcSize=1;arcSize=14;strokeWidth=2;" parent="1" vertex="1">
          <mxGeometry x="200" y="400" width="270" height="170" as="geometry" />
        </mxCell>
        <mxCell id="pSrx84dThhEPMeehNtha-4" value="Đọc phím: Đọc các phím được nhấn và thả&amp;nbsp;&lt;br&gt;(Nếu cửa mở)" style="text;html=1;align=left;verticalAlign=middle;resizable=0;points=[];autosize=1;strokeColor=none;fillColor=none;" parent="1" vertex="1">
          <mxGeometry x="550" y="220" width="260" height="40" as="geometry" />
        </mxCell>
        <mxCell id="pSrx84dThhEPMeehNtha-6" value="Hiển thị LCD&lt;br&gt;- Hiện trị các thông tin lên màn hình LCD.&lt;br&gt;- Khi nhận được cấu hình từ người dùng -&amp;gt;&lt;br&gt;Chuyển nó vào biến cấu hình và gửi lên GW." style="text;html=1;align=left;verticalAlign=middle;resizable=0;points=[];autosize=1;strokeColor=none;fillColor=none;" parent="1" vertex="1">
          <mxGeometry x="210" y="460" width="260" height="70" as="geometry" />
        </mxCell>
        <mxCell id="pSrx84dThhEPMeehNtha-8" value="" style="rounded=1;whiteSpace=wrap;html=1;absoluteArcSize=1;arcSize=14;strokeWidth=2;" parent="1" vertex="1">
          <mxGeometry x="540" y="400" width="270" height="170" as="geometry" />
        </mxCell>
        <mxCell id="pSrx84dThhEPMeehNtha-9" value="Xử lý logic control nội bộ:&lt;br&gt;&lt;div style=&quot;text-align: left;&quot;&gt;&lt;span style=&quot;background-color: initial;&quot;&gt;Buzzer, SHT21&lt;/span&gt;&lt;/div&gt;" style="text;html=1;align=center;verticalAlign=middle;resizable=0;points=[];autosize=1;strokeColor=none;fillColor=none;" parent="1" vertex="1">
          <mxGeometry x="560" y="420" width="160" height="40" as="geometry" />
        </mxCell>
        <mxCell id="pSrx84dThhEPMeehNtha-7" value="Gửi và xử lý gói nhận từ Slave:&lt;br&gt;- Xử lý tuần tự các gói nhận từ buffer RX.&lt;br&gt;- Gửi lên tuần tự các gói từ buffer TX.&lt;br&gt;&lt;br&gt;Các chế độ: NORMAL/OTA/WPS (Slave)" style="text;html=1;align=left;verticalAlign=middle;resizable=0;points=[];autosize=1;strokeColor=none;fillColor=none;" parent="1" vertex="1">
          <mxGeometry x="215" y="175" width="240" height="90" as="geometry" />
        </mxCell>
        <mxCell id="pSrx84dThhEPMeehNtha-5" value="Đọc Analog Dòng áp -&amp;gt; Lưu vào biến." style="text;html=1;align=left;verticalAlign=middle;resizable=0;points=[];autosize=1;strokeColor=none;fillColor=none;" parent="1" vertex="1">
          <mxGeometry x="570" y="460" width="220" height="30" as="geometry" />
        </mxCell>
        <mxCell id="pSrx84dThhEPMeehNtha-10" value="Đọc công tắc và trạng thái cửa. -&amp;gt; Lưu vào biến." style="text;html=1;align=left;verticalAlign=middle;resizable=0;points=[];autosize=1;strokeColor=none;fillColor=none;" parent="1" vertex="1">
          <mxGeometry x="550" y="190" width="280" height="30" as="geometry" />
        </mxCell>
        <mxCell id="j_gtpQRuYmqat1kGztNe-1" value="Task1: Read user&#39;s BUTTON/SW" style="text;whiteSpace=wrap;html=1;fontStyle=5;align=center;" parent="1" vertex="1">
          <mxGeometry x="575" y="140" width="200" height="20" as="geometry" />
        </mxCell>
        <mxCell id="j_gtpQRuYmqat1kGztNe-2" value="Task3: Hiển thị LCD" style="text;whiteSpace=wrap;html=1;fontStyle=5;align=center;" parent="1" vertex="1">
          <mxGeometry x="212.5" y="370" width="245" height="20" as="geometry" />
        </mxCell>
        <mxCell id="j_gtpQRuYmqat1kGztNe-3" value="Trạng thái của một kênh:&lt;br&gt;&lt;div style=&quot;&quot;&gt;&lt;span style=&quot;background-color: initial;&quot;&gt;+ Đang mở hay dóng.&lt;/span&gt;&lt;/div&gt;&lt;div style=&quot;&quot;&gt;&lt;span style=&quot;background-color: initial;&quot;&gt;+ Đang mở mode bình thường hày auto.&lt;/span&gt;&lt;/div&gt;&lt;div style=&quot;&quot;&gt;&lt;span style=&quot;background-color: initial;&quot;&gt;+ Thời gian next action ... ON/OFF&lt;/span&gt;&lt;/div&gt;&lt;div style=&quot;&quot;&gt;&lt;span style=&quot;background-color: initial;&quot;&gt;+ Dòng/Áp đang thiêu thụ (Slide).&lt;/span&gt;&lt;/div&gt;" style="text;html=1;align=left;verticalAlign=middle;resizable=0;points=[];autosize=1;strokeColor=none;fillColor=none;" parent="1" vertex="1">
          <mxGeometry x="210" y="600" width="240" height="90" as="geometry" />
        </mxCell>
        <mxCell id="oLSeWYGbaWTAhSOpMS_0-1" value="Task2: Internal control (loop low priority)" style="text;whiteSpace=wrap;html=1;fontStyle=5;align=center;" parent="1" vertex="1">
          <mxGeometry x="552.5" y="370" width="245" height="20" as="geometry" />
        </mxCell>
        <mxCell id="oLSeWYGbaWTAhSOpMS_0-2" value="Kiểm tra công tắc cửa. Chỉ hiển thị nếu nó mở." style="text;html=1;align=left;verticalAlign=middle;resizable=0;points=[];autosize=1;strokeColor=none;fillColor=none;" parent="1" vertex="1">
          <mxGeometry x="210" y="420" width="270" height="30" as="geometry" />
        </mxCell>
        <mxCell id="oLSeWYGbaWTAhSOpMS_0-3" value="Task4: Tương tác Slave" style="text;whiteSpace=wrap;html=1;fontStyle=5;align=center;" parent="1" vertex="1">
          <mxGeometry x="207.5" y="140" width="245" height="20" as="geometry" />
        </mxCell>
      </root>
    </mxGraphModel>
  </diagram>
  <diagram id="Yc9hdMHTVPNNL8Iew7tY" name="LCD">
    <mxGraphModel dx="821" dy="332" grid="1" gridSize="10" guides="1" tooltips="1" connect="1" arrows="1" fold="1" page="1" pageScale="1" pageWidth="2336" pageHeight="1654" math="0" shadow="0">
      <root>
        <mxCell id="0" />
        <mxCell id="1" parent="0" />
        <mxCell id="8Hf_18mNZcBwDk7Id7Ui-1" value="" style="rounded=0;whiteSpace=wrap;html=1;movable=1;resizable=1;rotatable=1;deletable=1;editable=1;locked=0;connectable=1;" vertex="1" parent="1">
          <mxGeometry x="680" y="360" width="320" height="240" as="geometry" />
        </mxCell>
        <mxCell id="8Hf_18mNZcBwDk7Id7Ui-2" value="" style="rounded=1;whiteSpace=wrap;html=1;fillColor=#0050ef;strokeColor=none;fontColor=#ffffff;movable=1;resizable=1;rotatable=1;deletable=1;editable=1;locked=0;connectable=1;" vertex="1" parent="1">
          <mxGeometry x="700" y="420" width="130" height="70" as="geometry" />
        </mxCell>
        <mxCell id="8Hf_18mNZcBwDk7Id7Ui-3" value="" style="rounded=0;whiteSpace=wrap;html=1;fillColor=#0050ef;fontColor=#ffffff;strokeColor=none;" vertex="1" parent="1">
          <mxGeometry x="680" y="360" width="320" height="40" as="geometry" />
        </mxCell>
        <mxCell id="8Hf_18mNZcBwDk7Id7Ui-4" value="" style="rounded=1;whiteSpace=wrap;html=1;fillColor=#0050ef;fontColor=#ffffff;strokeColor=none;movable=1;resizable=1;rotatable=1;deletable=1;editable=1;locked=0;connectable=1;" vertex="1" parent="1">
          <mxGeometry x="850" y="420" width="130" height="70" as="geometry" />
        </mxCell>
        <mxCell id="8Hf_18mNZcBwDk7Id7Ui-6" value="" style="rounded=1;whiteSpace=wrap;html=1;fillColor=#647687;fontColor=#ffffff;strokeColor=none;movable=1;resizable=1;rotatable=1;deletable=1;editable=1;locked=0;connectable=1;" vertex="1" parent="1">
          <mxGeometry x="850" y="510" width="130" height="70" as="geometry" />
        </mxCell>
        <mxCell id="8Hf_18mNZcBwDk7Id7Ui-8" value="&lt;b&gt;CH1 ON&lt;br&gt;&lt;/b&gt;" style="text;html=1;align=center;verticalAlign=middle;resizable=0;points=[];autosize=1;strokeColor=none;fillColor=none;fontColor=#FFFFFF;" vertex="1" parent="1">
          <mxGeometry x="724" y="415" width="70" height="30" as="geometry" />
        </mxCell>
        <mxCell id="8Hf_18mNZcBwDk7Id7Ui-9" value="&lt;div style=&quot;font-size: 10px;&quot;&gt;&lt;span style=&quot;background-color: initial; font-size: 10px;&quot;&gt;Voltage: 220V&lt;/span&gt;&lt;/div&gt;&lt;div style=&quot;font-size: 10px;&quot;&gt;&lt;span style=&quot;background-color: initial; font-size: 10px;&quot;&gt;Current: 10.2A&lt;/span&gt;&lt;/div&gt;&lt;div style=&quot;font-size: 10px;&quot;&gt;Mode: Manual&lt;/div&gt;&lt;div style=&quot;font-size: 10px;&quot;&gt;&lt;br&gt;&lt;/div&gt;" style="text;html=1;align=left;verticalAlign=top;resizable=0;points=[];autosize=1;strokeColor=none;fillColor=none;fontStyle=1;fontSize=10;fontColor=#FFFFFF;" vertex="1" parent="1">
          <mxGeometry x="710" y="432" width="90" height="60" as="geometry" />
        </mxCell>
        <mxCell id="8Hf_18mNZcBwDk7Id7Ui-10" value="&lt;div style=&quot;font-size: 10px;&quot;&gt;&lt;span style=&quot;background-color: initial; font-size: 10px;&quot;&gt;Voltage: 220V&lt;/span&gt;&lt;/div&gt;&lt;div style=&quot;font-size: 10px;&quot;&gt;&lt;span style=&quot;background-color: initial; font-size: 10px;&quot;&gt;Current: 10.2A&lt;/span&gt;&lt;/div&gt;&lt;div style=&quot;font-size: 10px;&quot;&gt;Mode: Auto&lt;/div&gt;&lt;div style=&quot;font-size: 10px;&quot;&gt;Next OFF: 13:30&lt;/div&gt;&lt;div style=&quot;font-size: 10px;&quot;&gt;&lt;br&gt;&lt;/div&gt;" style="text;html=1;align=left;verticalAlign=top;resizable=0;points=[];autosize=1;strokeColor=none;fillColor=none;fontStyle=1;fontSize=10;fontColor=#FFFFFF;" vertex="1" parent="1">
          <mxGeometry x="860" y="432" width="100" height="70" as="geometry" />
        </mxCell>
        <mxCell id="8Hf_18mNZcBwDk7Id7Ui-11" value="&lt;b&gt;CH2 ON&lt;br&gt;&lt;/b&gt;" style="text;html=1;align=center;verticalAlign=middle;resizable=0;points=[];autosize=1;strokeColor=none;fillColor=none;fontColor=#FFFFFF;" vertex="1" parent="1">
          <mxGeometry x="880" y="415" width="70" height="30" as="geometry" />
        </mxCell>
        <mxCell id="8Hf_18mNZcBwDk7Id7Ui-12" value="" style="rounded=1;whiteSpace=wrap;html=1;fillColor=#647687;fontColor=#ffffff;strokeColor=none;movable=1;resizable=1;rotatable=1;deletable=1;editable=1;locked=0;connectable=1;" vertex="1" parent="1">
          <mxGeometry x="700" y="510" width="130" height="70" as="geometry" />
        </mxCell>
        <mxCell id="8Hf_18mNZcBwDk7Id7Ui-13" value="&lt;b&gt;Time: 11:30&lt;/b&gt;" style="text;html=1;align=center;verticalAlign=middle;resizable=0;points=[];autosize=1;fontColor=#FFFFFF;" vertex="1" parent="1">
          <mxGeometry x="680" y="365" width="90" height="30" as="geometry" />
        </mxCell>
        <mxCell id="8Hf_18mNZcBwDk7Id7Ui-14" value="&lt;b&gt;CH3 OFF&lt;br&gt;&lt;/b&gt;" style="text;html=1;align=center;verticalAlign=middle;resizable=0;points=[];autosize=1;strokeColor=none;fillColor=none;fontColor=#FFFFFF;" vertex="1" parent="1">
          <mxGeometry x="724" y="506" width="70" height="30" as="geometry" />
        </mxCell>
        <mxCell id="8Hf_18mNZcBwDk7Id7Ui-15" value="&lt;div style=&quot;font-size: 10px;&quot;&gt;&lt;span style=&quot;background-color: initial; font-size: 10px;&quot;&gt;Voltage: 0V&lt;/span&gt;&lt;/div&gt;&lt;div style=&quot;font-size: 10px;&quot;&gt;&lt;span style=&quot;background-color: initial; font-size: 10px;&quot;&gt;Current: 0A&lt;/span&gt;&lt;/div&gt;&lt;div style=&quot;font-size: 10px;&quot;&gt;Mode: Manual&lt;/div&gt;&lt;div style=&quot;font-size: 10px;&quot;&gt;&lt;br&gt;&lt;/div&gt;" style="text;html=1;align=left;verticalAlign=top;resizable=0;points=[];autosize=1;strokeColor=none;fillColor=none;fontStyle=1;fontSize=10;fontColor=#FFFFFF;" vertex="1" parent="1">
          <mxGeometry x="710" y="523" width="90" height="60" as="geometry" />
        </mxCell>
        <mxCell id="8Hf_18mNZcBwDk7Id7Ui-16" value="&lt;div style=&quot;font-size: 10px;&quot;&gt;&lt;span style=&quot;background-color: initial; font-size: 10px;&quot;&gt;Voltage: 0V&lt;/span&gt;&lt;/div&gt;&lt;div style=&quot;font-size: 10px;&quot;&gt;&lt;span style=&quot;background-color: initial; font-size: 10px;&quot;&gt;Current: 0A&lt;/span&gt;&lt;/div&gt;&lt;div style=&quot;font-size: 10px;&quot;&gt;Mode: Auto&lt;/div&gt;&lt;div style=&quot;font-size: 10px;&quot;&gt;Next ON: 13:30&lt;/div&gt;&lt;div style=&quot;font-size: 10px;&quot;&gt;&lt;br&gt;&lt;/div&gt;" style="text;html=1;align=left;verticalAlign=top;resizable=0;points=[];autosize=1;strokeColor=none;fillColor=none;fontStyle=1;fontSize=10;fontColor=#FFFFFF;" vertex="1" parent="1">
          <mxGeometry x="860" y="522" width="90" height="70" as="geometry" />
        </mxCell>
        <mxCell id="8Hf_18mNZcBwDk7Id7Ui-17" value="&lt;b&gt;CH4 OFF&lt;br&gt;&lt;/b&gt;" style="text;html=1;align=center;verticalAlign=middle;resizable=0;points=[];autosize=1;strokeColor=none;fillColor=none;fontColor=#FFFFFF;" vertex="1" parent="1">
          <mxGeometry x="880" y="505" width="70" height="30" as="geometry" />
        </mxCell>
      </root>
    </mxGraphModel>
  </diagram>
</mxfile>
